<?xml version="1.0" encoding="utf-8"?>
<!-- Generator: Adobe Illustrator 24.0.2, SVG Export Plug-In . SVG Version: 6.00 Build 0)  -->
<svg version="1.1" id="Capa_1" xmlns="http://www.w3.org/2000/svg" xmlns:xlink="http://www.w3.org/1999/xlink" x="0px" y="0px"
	 width="80px" height="80px" viewBox="0 0 80 80" style="enable-background:new 0 0 80 80;" xml:space="preserve">
<style type="text/css">
	.st0{fill:#CEA809;}
</style>
<g>
	<g>
		<g>
			<g>
				<path class="st0" d="M21.9,30.9c-3.5,0-6.4-2.8-6.4-6.4c0-3.5,2.8-6.3,6.3-6.4v2.4c-2.1,0.1-3.9,1.8-3.9,4c0,2.2,1.8,4,4,4
					c1.4,0,2.7-0.7,3.4-1.9l2.1,1.2C26.2,29.7,24.2,30.9,21.9,30.9z"/>
			</g>
		</g>
	</g>
</g>
<g>
	<g>
		<g>
			<g>
				<path class="st0" d="M76.1,79.9c-3.5,0-6.4-2.8-6.4-6.4v-4H50.3c-3.5,0-6.4-2.8-6.4-6.4V44.5c-1.7-1.5-2.6-3.6-2.6-5.8v-0.1
					H21.9c-7.8,0-14.1-6.3-14.1-14.1c0-0.4,0-0.9,0.1-1.3l0-0.1H0.1v-1.2c0-7.8,6.3-14.1,14.1-14.1h15.9l2.6-7.7h17.2l2.6,7.7h15.9
					c6.3,0,11.5,5.2,11.5,11.5v7.7c0,6.3-5.2,11.5-11.5,11.5H56.7v0.1c0,2.2-0.9,4.2-2.5,5.7l0,15.1h15.7v-4c0-3.5,2.8-6.4,6.4-6.4
					h3.8v30.8H76.1z M76.1,51.5c-2.2,0-4,1.8-4,4v18.1c0,2.2,1.8,4,4,4h1.4v-26H76.1z M67,67.2h2.8v-5.4H67V67.2z M46.4,63.2
					c0,2.2,1.8,4,4,4h14.3v-5.4H54.2c-1.4,0-2.5-1.1-2.5-2.5V45.9l-0.1,0c-0.8,0.3-1.7,0.4-2.5,0.4c-0.9,0-1.7-0.2-2.5-0.4l-0.1,0
					V63.2z M49,33.4c-2.9,0-5.3,2.4-5.3,5.3c0,2.9,2.4,5.3,5.3,5.3s5.3-2.4,5.3-5.3C54.3,35.8,51.9,33.4,49,33.4z M49,31.1
					c3.2,0,6.1,2,7.2,5.1l0,0.1h12.1c5,0,9.1-4.1,9.1-9.1v-4H36l0,0.1c0,0.4,0.1,0.9,0.1,1.3c0,4.6-2.2,8.9-6,11.5l-0.3,0.2h12.1
					l0-0.1C42.9,33.1,45.8,31.1,49,31.1z M21.5,12.8c-6.3,0.2-11.3,5.4-11.3,11.7c0,6.5,5.3,11.7,11.7,11.7S33.6,31,33.6,24.5
					c0-0.4,0-0.8-0.1-1.3l0-0.1h-7.7v-1.2C25.9,18.4,24.3,15.1,21.5,12.8L21.5,12.8L21.5,12.8z M22.3,10.4c3.4,2.4,5.6,6.1,6,10.2
					l0,0.1h49.3v-1.4c0-5-4.1-9.1-9.1-9.1H22L22.3,10.4z M14.2,10.2c-6,0-11,4.5-11.6,10.4l0,0.1h5.8l0-0.1c1.3-4.6,4.9-8.3,9.5-9.7
					l0.3-0.1l-0.3-0.1C16.7,10.4,15.4,10.2,14.2,10.2z M32.6,7.8H50l-1.8-5.4H34.4L32.6,7.8z"/>
			</g>
		</g>
	</g>
</g>
<g>
	<g>
		<g>
			<g>
				<path class="st0" d="M59.5,33.4v-7.5h10.1v7.5H59.5z M61.8,31.1h5.4v-2.8h-5.4V31.1z"/>
			</g>
		</g>
	</g>
</g>
<g>
	<g>
		<g>
			<g>
				<rect x="29.8" y="13" class="st0" width="20.4" height="2.4"/>
			</g>
		</g>
	</g>
</g>
<g>
	<g>
		<g>
			<g>
				<rect x="59.5" y="15.6" class="st0" width="2.4" height="2.4"/>
			</g>
		</g>
	</g>
</g>
<g>
	<g>
		<g>
			<g>
				<rect x="64.6" y="15.6" class="st0" width="2.4" height="2.4"/>
			</g>
		</g>
	</g>
</g>
<g>
	<g>
		<g>
			<g>
				<rect x="69.8" y="15.6" class="st0" width="2.4" height="2.4"/>
			</g>
		</g>
	</g>
</g>
</svg>
