<?xml version="1.0" encoding="utf-8"?>
<!-- Generator: Adobe Illustrator 24.0.2, SVG Export Plug-In . SVG Version: 6.00 Build 0)  -->
<svg version="1.1" id="Capa_1" xmlns="http://www.w3.org/2000/svg" xmlns:xlink="http://www.w3.org/1999/xlink" x="0px" y="0px"
	 width="80px" height="80px" viewBox="0 0 80 80" style="enable-background:new 0 0 80 80;" xml:space="preserve">
<style type="text/css">
	.st0{fill:#CEA809;}
</style>
<g>
	<g>
		<g>
			<path class="st0" d="M73.5,12.9H28.4V80h45.2c3.6,0,6.5-2.9,6.5-6.5V19.4C80,15.8,77.1,12.9,73.5,12.9z M77.4,73.5
				c0,2.1-1.7,3.9-3.9,3.9H31V15.5h42.6c2.1,0,3.9,1.7,3.9,3.9V73.5z"/>
			<polygon class="st0" points="2.6,2.6 49,2.6 49,10.3 51.6,10.3 51.6,0 0,0 0,67.1 25.8,67.1 25.8,64.5 2.6,64.5 			"/>
			<path class="st0" d="M54.2,20.6c-10,0-18.1,8.1-18.1,18.1s8.1,18.1,18.1,18.1s18.1-8.1,18.1-18.1S64.2,20.6,54.2,20.6z
				 M64.7,27.4c-0.8,0.6-2,1.4-3.5,2.1c-1.1-2.4-2.5-4.4-3.6-5.8C60.3,24.2,62.8,25.6,64.7,27.4z M47.8,37.4
				c0.1-1.7,0.4-3.2,0.9-4.7c1.6,0.5,3.5,0.8,5.5,0.8c2,0,3.9-0.3,5.5-0.8c0.5,1.4,0.8,3,0.9,4.7H47.8z M60.6,40
				c-0.1,1.7-0.4,3.2-0.9,4.7c-1.6-0.5-3.5-0.8-5.5-0.8c-2,0-3.9,0.3-5.5,0.8c-0.5-1.4-0.8-3-0.9-4.7H60.6z M58.7,30.3
				c-1.4,0.4-2.9,0.6-4.5,0.6c-1.7,0-3.2-0.3-4.5-0.6c1.5-3.2,3.4-5.5,4.5-6.6C55.3,24.8,57.3,27.1,58.7,30.3z M50.8,23.6
				c-1.2,1.4-2.5,3.4-3.6,5.8c-1.5-0.7-2.7-1.4-3.5-2.1C45.6,25.6,48.1,24.2,50.8,23.6z M41.9,29.3c1,0.8,2.5,1.7,4.4,2.6
				c-0.5,1.7-0.9,3.5-1,5.5h-6.4C39,34.4,40.2,31.6,41.9,29.3z M38.8,40h6.4c0.1,2,0.5,3.9,1,5.5c-1.9,0.8-3.3,1.8-4.4,2.6
				C40.2,45.8,39,43,38.8,40z M43.7,50c0.8-0.6,2-1.4,3.5-2.1c1.1,2.4,2.5,4.4,3.6,5.8C48.1,53.2,45.6,51.9,43.7,50z M49.6,47.1
				c1.4-0.4,2.9-0.6,4.5-0.6c1.7,0,3.2,0.3,4.5,0.6c-1.5,3.2-3.4,5.5-4.5,6.6C53.1,52.6,51.1,50.3,49.6,47.1z M57.6,53.8
				c1.2-1.4,2.5-3.4,3.6-5.8c1.5,0.7,2.7,1.4,3.5,2.1C62.8,51.9,60.3,53.2,57.6,53.8z M66.5,48.1c-1-0.8-2.5-1.7-4.4-2.6
				c0.5-1.7,0.9-3.5,1-5.5h6.4C69.4,43,68.2,45.8,66.5,48.1z M63.2,37.4c-0.1-2-0.5-3.9-1-5.5c1.9-0.8,3.3-1.8,4.4-2.6
				c1.7,2.3,2.9,5.1,3.1,8.1H63.2L63.2,37.4z"/>
			<rect x="36.1" y="59.4" class="st0" width="36.1" height="2.6"/>
			<rect x="36.1" y="64.5" class="st0" width="2.6" height="2.6"/>
			<rect x="41.3" y="64.5" class="st0" width="31" height="2.6"/>
			<rect x="36.1" y="69.7" class="st0" width="36.1" height="2.6"/>
			<rect x="12.9" y="51.6" class="st0" width="2.6" height="2.6"/>
			<rect x="18.1" y="51.6" class="st0" width="7.7" height="2.6"/>
			<rect x="6.5" y="41.3" class="st0" width="19.4" height="2.6"/>
			<rect x="12.9" y="46.5" class="st0" width="12.9" height="2.6"/>
			<rect x="12.9" y="56.8" class="st0" width="12.9" height="2.6"/>
			<polygon class="st0" points="9,7.7 42.6,7.7 42.6,10.3 45.2,10.3 45.2,5.2 6.5,5.2 6.5,38.7 25.8,38.7 25.8,36.1 9,36.1 			"/>
			<path class="st0" d="M18.1,20.6c0,2,0.8,3.8,2,5.2c-3.3,0.3-5.9,3-5.9,6.4v1.3h2.6v-1.3c0-2.1,1.7-3.9,3.9-3.9h5.2v-2.6
				c-2.8,0-5.2-2.3-5.2-5.2s2.3-5.2,5.2-5.2v-2.6C21.5,12.9,18.1,16.4,18.1,20.6z"/>
		</g>
	</g>
</g>
</svg>
