<?xml version="1.0" encoding="utf-8"?>
<!-- Generator: Adobe Illustrator 24.0.2, SVG Export Plug-In . SVG Version: 6.00 Build 0)  -->
<svg version="1.1" id="Layer_1" xmlns="http://www.w3.org/2000/svg" xmlns:xlink="http://www.w3.org/1999/xlink" x="0px" y="0px"
	 width="80px" height="80px" viewBox="0 0 80 80" style="enable-background:new 0 0 80 80;" xml:space="preserve">
<style type="text/css">
	.st0{fill:#CEA809;}
</style>
<path class="st0" d="M78.7,30.7h-16v-8c0-0.4-0.1-0.7-0.4-0.9c-0.3-0.3-0.6-0.4-0.9-0.4H50.7c-0.4,0-0.7,0.1-0.9,0.4
	c-0.3,0.3-0.4,0.6-0.4,0.9v2.8c-1.8-1.8-4.2-2.8-6.7-2.8c-2.5,0-4.9,1-6.7,2.8v-2.8c0-0.4-0.1-0.7-0.4-0.9c-0.3-0.3-0.6-0.4-0.9-0.4
	h-8c-0.4,0-0.7,0.1-0.9,0.4c-0.3,0.3-0.4,0.6-0.4,0.9v3.4c-3-2.7-7.6-2.7-10.7,0V24c0-0.4-0.1-0.7-0.4-0.9c-0.3-0.3-0.6-0.4-0.9-0.4
	h-1.5c-4.3,0-7.9,3.5-7.9,7.9v0.1H1.3C0.6,30.7,0,31.3,0,32s0.6,1.3,1.3,1.3H4v0.1c0,4.3,3.5,7.9,7.9,7.9h1.5c0.4,0,0.7-0.1,0.9-0.4
	c0.3-0.3,0.4-0.6,0.4-0.9v-2.1c3,2.7,7.6,2.7,10.7,0v3.4c0,0.4,0.1,0.7,0.4,0.9c0.3,0.3,0.6,0.4,0.9,0.4h8c0.4,0,0.7-0.1,0.9-0.4
	c0.3-0.3,0.4-0.6,0.4-0.9v-2.8c1.8,1.8,4.2,2.8,6.7,2.8c2.5,0,4.9-1,6.7-2.8v2.8c0,0.4,0.1,0.7,0.4,0.9c0.3,0.3,0.6,0.4,0.9,0.4
	h10.7c0.4,0,0.7-0.1,0.9-0.4c0.3-0.3,0.4-0.6,0.4-0.9v-8h16c0.7,0,1.3-0.6,1.3-1.3S79.4,30.7,78.7,30.7z M12,38.7h-0.1
	c-2.9,0-5.2-2.3-5.2-5.2v-2.9c0-2.9,2.3-5.2,5.2-5.2H12V38.7z M20,37.3c-2.9,0-5.3-2.4-5.3-5.3s2.4-5.3,5.3-5.3s5.3,2.4,5.3,5.3
	C25.3,34.9,22.9,37.3,20,37.3z M33.3,40H28V24h5.3V40z M42.7,38.7c-3.7,0-6.7-3-6.7-6.7s3-6.7,6.7-6.7s6.7,3,6.7,6.7
	C49.3,35.7,46.3,38.7,42.7,38.7z M52,24h2.7v16H52V24z M60,40h-2.7V24H60V40z"/>
<path class="st0" d="M32.9,4.6c1.1-0.7,1.8-1.9,1.8-3.2c0-0.7-0.6-1.3-1.3-1.3S32,0.6,32,1.3c0,0.5-0.2,0.7-0.9,1.2
	c-1.1,0.7-1.8,1.9-1.8,3.2c0,1.3,0.7,2.5,1.8,3.2c0.6,0.5,0.9,0.7,0.9,1.2c0,0.4-0.2,0.6-0.9,1.2c-1.1,0.7-1.8,1.9-1.8,3.2
	c0,0.7,0.6,1.3,1.3,1.3c0.7,0,1.3-0.6,1.3-1.3c0-0.4,0.2-0.6,0.9-1.2c1.1-0.7,1.8-1.9,1.8-3.2c0-1.3-0.7-2.5-1.8-3.2
	C32.2,6.4,32,6.2,32,5.8C32,5.3,32.2,5.1,32.9,4.6z"/>
<path class="st0" d="M39.5,4.6c1.1-0.7,1.8-1.9,1.8-3.2C41.3,0.6,40.7,0,40,0s-1.3,0.6-1.3,1.3c0,0.5-0.2,0.7-0.9,1.2
	C36.7,3.3,36,4.5,36,5.8c0,1.3,0.7,2.5,1.8,3.2c0.6,0.5,0.9,0.7,0.9,1.2c0,0.4-0.2,0.6-0.9,1.2c-1.1,0.7-1.8,1.9-1.8,3.2
	c0,0.7,0.6,1.3,1.3,1.3s1.3-0.6,1.3-1.3c0-0.4,0.2-0.6,0.9-1.2c1.1-0.7,1.8-1.9,1.8-3.2c0-1.3-0.7-2.5-1.8-3.2
	c-0.6-0.5-0.9-0.8-0.9-1.2C38.7,5.3,38.9,5.1,39.5,4.6z"/>
<path class="st0" d="M46.2,4.6C47.3,3.9,48,2.6,48,1.3C48,0.6,47.4,0,46.7,0s-1.3,0.6-1.3,1.3c0,0.5-0.2,0.7-0.9,1.2
	c-1.1,0.7-1.8,1.9-1.8,3.2c0,1.3,0.7,2.5,1.8,3.2c0.6,0.5,0.9,0.7,0.9,1.2c0,0.4-0.2,0.6-0.9,1.2c-1.1,0.7-1.8,1.9-1.8,3.2
	c0,0.7,0.6,1.3,1.3,1.3s1.3-0.6,1.3-1.3c0-0.4,0.2-0.6,0.9-1.2c1.1-0.7,1.8-1.9,1.8-3.2c0-1.3-0.7-2.5-1.8-3.2
	c-0.6-0.5-0.9-0.8-0.9-1.2C45.3,5.3,45.5,5.1,46.2,4.6z"/>
<path class="st0" d="M18.7,80c4.5,0,8.6-2.5,10.7-6.6c2,3.9,5.9,6.3,10.2,6.5l0.4,0c4.5,0,8.6-2.5,10.7-6.6c2,3.9,5.9,6.3,10.2,6.5
	l0.4,0c4.6,0,8.8-2.6,10.8-6.8c2-4.2,1.4-9.1-1.5-12.7c-1.9-2.4-3.3-5.3-4.1-8.3C66.3,50.6,66,49,66,47.4c0-0.5-0.4-1-0.8-1.2
	c-0.5-0.2-1.1-0.1-1.4,0.3c-2.5,2.5-4.6,8-5.6,11.1c-1.3-1-2.6-1.9-4.1-2.7c-0.4-0.2-0.9-0.2-1.3,0C52.3,55,52,55.4,52,55.9
	c-0.2,2.2-0.7,4.4-1.4,6.6c-0.4-0.7-0.8-1.3-1.3-1.9c-1.9-2.4-3.3-5.3-4.1-8.3c-0.4-1.6-0.6-3.2-0.7-4.9c0-0.5-0.4-1-0.8-1.2
	c-0.5-0.2-1.1-0.1-1.4,0.3c-2.5,2.5-4.6,8-5.6,11.1c-1.3-1-2.6-1.9-4.1-2.7c-0.4-0.2-0.9-0.2-1.3,0c-0.4,0.2-0.7,0.6-0.7,1.1
	c-0.2,2.2-0.7,4.4-1.4,6.6c-0.4-0.7-0.8-1.3-1.3-1.9c-1.9-2.4-3.3-5.3-4.1-8.3c-0.4-1.6-0.6-3.2-0.7-4.9c0-0.5-0.4-1-0.8-1.2
	C22,46,21.4,46.1,21,46.5c-2.5,2.5-4.6,8-5.6,11.1c-1.3-1-2.6-1.9-4.1-2.7c-0.4-0.2-0.9-0.2-1.3,0c-0.4,0.2-0.7,0.6-0.7,1.1
	c-0.2,2.6-0.8,5.1-1.7,7.5c-0.7,1.5-1,3.2-0.9,4.8c0.2,6.4,5.2,11.5,11.6,11.8L18.7,80z M18.7,76.1l-2.4-4l2.4-3.2l2.4,3.2
	L18.7,76.1z M40,76.1l-2.4-4l2.4-3.2l2.4,3.2L40,76.1z M61.3,76.1l-2.4-4l2.4-3.2l2.4,3.2L61.3,76.1z M52.7,64.4
	c0.8-2,1.3-4.1,1.7-6.2c1.1,0.7,2.2,1.5,3.1,2.4c0.2,0.5,0.7,0.8,1.3,0.7c0.6,0,1-0.4,1.2-1c0.9-3.2,2.2-6.4,3.7-9.3
	c0.1,0.6,0.2,1.2,0.4,1.8c0.8,3.4,2.4,6.6,4.6,9.4c1.9,2.4,2.6,5.7,1.6,8.7c-0.9,3-3.3,5.3-6.3,6.1l2.6-4.3c0.3-0.5,0.2-1.1-0.1-1.5
	l-4-5.3c-0.3-0.3-0.7-0.5-1.1-0.5c-0.4,0-0.8,0.2-1.1,0.5l-4,5.3c-0.3,0.4-0.4,1-0.1,1.5l2.6,4.3c-3.9-1.2-6.6-4.7-6.7-8.8
	C52,66.8,52.2,65.6,52.7,64.4z M31.4,64.4c0.8-2,1.3-4.1,1.7-6.2c1.1,0.7,2.2,1.5,3.1,2.4c0.2,0.5,0.7,0.8,1.3,0.7
	c0.6,0,1-0.4,1.2-1c0.9-3.2,2.2-6.4,3.7-9.3c0.1,0.6,0.2,1.2,0.4,1.8c0.8,3.4,2.4,6.6,4.6,9.4c1.9,2.4,2.6,5.7,1.6,8.7
	c-0.9,3-3.3,5.3-6.3,6.1l2.6-4.3c0.3-0.5,0.2-1.1-0.1-1.5l-4-5.3c-0.3-0.3-0.7-0.5-1.1-0.5c-0.4,0-0.8,0.2-1.1,0.5l-4,5.3
	c-0.3,0.4-0.4,1-0.1,1.5l2.6,4.3c-3.9-1.2-6.6-4.7-6.7-8.8C30.6,66.8,30.9,65.6,31.4,64.4z M9.3,68.1c0-1.3,0.2-2.6,0.7-3.8
	c0.8-2,1.3-4.1,1.7-6.2c1.1,0.7,2.2,1.5,3.1,2.4c0.2,0.5,0.7,0.8,1.3,0.7c0.6,0,1-0.4,1.2-1c0.9-3.2,2.2-6.4,3.7-9.3
	c0.1,0.6,0.2,1.2,0.4,1.8c0.8,3.4,2.4,6.6,4.6,9.4c1.9,2.4,2.6,5.7,1.6,8.7c-0.9,3-3.3,5.3-6.3,6.1l2.6-4.3c0.3-0.5,0.2-1.1-0.1-1.5
	l-4-5.3c-0.3-0.3-0.7-0.5-1.1-0.5c-0.4,0-0.8,0.2-1.1,0.5l-4,5.3c-0.3,0.4-0.4,1-0.1,1.5l2.6,4.3C12.2,75.8,9.4,72.2,9.3,68.1z"/>
</svg>
