<?xml version="1.0" encoding="utf-8"?>
<!-- Generator: Adobe Illustrator 24.0.2, SVG Export Plug-In . SVG Version: 6.00 Build 0)  -->
<svg version="1.1" id="Layer_3" xmlns="http://www.w3.org/2000/svg" xmlns:xlink="http://www.w3.org/1999/xlink" x="0px" y="0px"
	 width="80px" height="80px" viewBox="0 0 80 80" style="enable-background:new 0 0 80 80;" xml:space="preserve">
<style type="text/css">
	.st0{fill:#CEA809;}
</style>
<g>
	<path class="st0" d="M78.7,72.3H61.9v-2.6h1.3c0.7,0,1.3-0.6,1.3-1.3v-31c0-0.7-0.6-1.3-1.3-1.3H41.3V20.6c0-2.1-1.7-3.9-3.9-3.9
		h-7.7c-0.7,0-1.3-0.6-1.3-1.3h1.3c0.7,0,1.3-0.6,1.3-1.3V9c0-0.7-0.6-1.3-1.3-1.3h-9V1.3c0-0.7-0.6-1.3-1.3-1.3h-5.2
		c-0.7,0-1.3,0.6-1.3,1.3v6.5h-9C3.2,7.7,2.6,8.3,2.6,9v5.2c0,0.7,0.6,1.3,1.3,1.3h1.3v2.6h2.6v-2.6h5.2v7.7H1.3
		c-0.7,0-1.3,0.6-1.3,1.3v5.2C0,30.4,0.6,31,1.3,31h1.3v2.6h2.6V31h2.6v2.6h2.6V31h2.6v41.3H1.3c-0.7,0-1.3,0.6-1.3,1.3v5.2
		C0,79.4,0.6,80,1.3,80h77.4c0.7,0,1.3-0.6,1.3-1.3v-5.2C80,72.8,79.4,72.3,78.7,72.3z M59.4,72.3h-2.6v-2.6h2.6V72.3z M43.9,69.7
		v2.6h-2.6v-2.6H43.9z M46.5,69.7h7.7v2.6h-7.7V69.7z M61.9,67.1H38.7V38.7h23.2V67.1z M29.7,19.4h7.7c0.7,0,1.3,0.6,1.3,1.3v15.5
		h-1.3c-0.7,0-1.3,0.6-1.3,1.3v31c0,0.7,0.6,1.3,1.3,1.3h1.3v2.6H20.6V31h2.6v2.6h2.6V31h2.6v2.6H31V31h1.3c0.7,0,1.3-0.6,1.3-1.3
		v-5.2c0-0.7-0.6-1.3-1.3-1.3H20.6v-7.7h5.2C25.8,17.6,27.5,19.4,29.7,19.4z M15.5,64.5h2.6v2.6h-2.6V64.5z M15.5,2.6h2.6v5.2h-2.6
		V2.6z M5.2,10.3h23.2v2.6H5.2V10.3z M15.5,15.5h2.6v7.7h-2.6V15.5z M2.6,25.8H31v2.6H2.6V25.8z M18.1,31v31h-2.6V31H18.1z
		 M15.5,69.7h2.6v2.6h-2.6V69.7z M77.4,77.4H2.6v-2.6h74.8V77.4z"/>
	<path class="st0" d="M42.6,55.5h4.7l-2.1,7.4c-0.2,0.6,0.1,1.2,0.6,1.5c0.2,0.1,0.4,0.1,0.6,0.1c0.4,0,0.7-0.2,1-0.5l11.6-14.2
		c0.3-0.4,0.4-0.9,0.2-1.4c-0.2-0.4-0.7-0.7-1.2-0.7h-4.2l2.7-4.5c0.2-0.4,0.2-0.9,0-1.3c-0.2-0.4-0.7-0.7-1.1-0.7H49
		c-0.5,0-0.9,0.3-1.1,0.7l-6.5,11.6c-0.2,0.4-0.2,0.9,0,1.3C41.7,55.2,42.1,55.5,42.6,55.5L42.6,55.5z M49.8,43.9h3.4l-2.7,4.5
		c-0.2,0.4-0.2,0.9,0,1.3c0.2,0.4,0.7,0.7,1.1,0.7h3.7l-5.9,7.3l0.9-3c0.1-0.4,0-0.8-0.2-1.1c-0.2-0.3-0.6-0.5-1-0.5h-4.3L49.8,43.9
		z"/>
	<path class="st0" d="M66.8,33.8c1,1,1.6,2.4,1.6,3.8v1.1H71v-1.1c0-2.1-0.8-4.1-2.3-5.6c-1.5-1.5-3.5-2.3-5.6-2.3h-1.1v2.6h1.1
		C64.5,32.3,65.8,32.8,66.8,33.8L66.8,33.8z"/>
	<path class="st0" d="M70.7,29.9c1.8,1.8,2.8,4.3,2.8,6.9v1.9h2.6v-1.9c0-3.3-1.3-6.4-3.6-8.7s-5.4-3.6-8.7-3.6h-1.9v2.6h1.9
		C66.4,27.1,68.9,28.1,70.7,29.9z"/>
</g>
</svg>
