<?xml version="1.0" encoding="utf-8"?>
<!-- Generator: Adobe Illustrator 24.0.2, SVG Export Plug-In . SVG Version: 6.00 Build 0)  -->
<svg version="1.1" id="Layer_1" xmlns="http://www.w3.org/2000/svg" xmlns:xlink="http://www.w3.org/1999/xlink" x="0px" y="0px"
	 width="76.3px" height="80px" viewBox="0 0 76.3 80" style="enable-background:new 0 0 76.3 80;" xml:space="preserve">
<style type="text/css">
	.st0{fill:#CEA809;}
</style>
<g>
	<path class="st0" d="M45.8,34.9c-3.4,0-6.1-2.8-6.1-6.1V6.3c0-3.4,2.8-6.1,6.1-6.1h24.2c3.4,0,6.1,2.8,6.1,6.1v22.5
		c0,3.4-2.8,6.1-6.1,6.1H45.8z M45.8,3c-1.8,0-3.3,1.5-3.3,3.3v22.5c0,1.8,1.5,3.3,3.3,3.3h24.2c1.8,0,3.3-1.5,3.3-3.3V6.3
		c0-1.8-1.5-3.3-3.3-3.3H45.8z"/>
</g>
<g>
	<path class="st0" d="M58,28.4c-6,0-10.9-4.9-10.9-10.9c0-6,4.9-10.9,10.9-10.9s10.9,4.9,10.9,10.9C68.9,23.5,64,28.4,58,28.4z
		 M58,9.5c-4.4,0-8.1,3.6-8.1,8.1s3.6,8.1,8.1,8.1S66,22,66,17.5S62.4,9.5,58,9.5z"/>
</g>
<g>
	<path class="st0" d="M54.3,20.6c-0.8,0-1.4-0.6-1.4-1.4v-3.2c0-0.8,0.6-1.4,1.4-1.4s1.4,0.6,1.4,1.4v3.2
		C55.8,19.9,55.1,20.6,54.3,20.6z"/>
</g>
<g>
	<path class="st0" d="M61.6,20.6c-0.8,0-1.4-0.6-1.4-1.4v-3.2c0-0.8,0.6-1.4,1.4-1.4s1.4,0.6,1.4,1.4v3.2
		C63,19.9,62.4,20.6,61.6,20.6z"/>
</g>
<g>
	<path class="st0" d="M45.9,79.9c-4.1,0-7.5-3.4-7.5-7.5V59.7c0-2-1.7-3.7-3.7-3.7S31,57.7,31,59.7v12.6c0,4.2-3.4,7.5-7.5,7.5
		c-4.2,0-7.5-3.4-7.5-7.5V59.2l-0.1,0c-1.9-0.1-3.4-1.6-3.4-3.5v-1.8h-0.1c-4.8,0-8.6-3.8-8.6-8.5v-9.8h-2c-0.9,0-1.6-0.7-1.6-1.6
		v-3c0-2.3,1.9-4.2,4.2-4.2h3.1V15.1c0-2.2,1.8-3.9,3.9-3.9s3.9,1.8,3.9,3.9v11.7h4.1V15.1c0-2.2,1.8-3.9,3.9-3.9
		c2.2,0,3.9,1.8,3.9,3.9v11.7h3.1c2.3,0,4.2,1.9,4.2,4.2v3c0,0.9-0.7,1.6-1.6,1.6h-2v9.8c0,4.7-3.8,8.5-8.5,8.5h-0.1L22.3,54v1.7
		c0,1.9-1.5,3.5-3.4,3.5l-0.1,0v13.2c0,2.6,2.1,4.7,4.7,4.7s4.7-2.1,4.7-4.7V59.7c0-3.6,2.9-6.6,6.6-6.6s6.6,2.9,6.6,6.6v12.7
		c0,2.6,2.1,4.6,4.6,4.6h19c0.8,0,1.4,0.6,1.4,1.4s-0.6,1.4-1.4,1.4H45.9z M15.3,55.6c0,0.4,0.3,0.7,0.7,0.7h2.8
		c0.4,0,0.7-0.3,0.7-0.7v-1.8h-4.1V55.6z M6.6,45.3c0,3.1,2.5,5.6,5.6,5.6h10.3c3.1,0,5.6-2.5,5.6-5.6v-9.8h-0.6
		c-0.8,0-1.4-0.6-1.4-1.4s0.6-1.4,1.4-1.4h4.2V31c0-0.7-0.6-1.3-1.3-1.3H4.3C3.6,29.7,3,30.3,3,31v1.7h12.1c0.8,0,1.4,0.6,1.4,1.4
		s-0.6,1.4-1.4,1.4H6.6V45.3z M23.4,14.1c-0.6,0-1.1,0.5-1.1,1.1v11.7h2.1V15.1C24.4,14.6,24,14.1,23.4,14.1z M11.4,14.1
		c-0.6,0-1.1,0.5-1.1,1.1v11.7h2.1V15.1C12.4,14.6,12,14.1,11.4,14.1z"/>
</g>
<g>
	<path class="st0" d="M21.3,35.6c-0.8,0-1.4-0.6-1.4-1.4s0.6-1.4,1.4-1.4c0.8,0,1.4,0.6,1.4,1.4S22.1,35.6,21.3,35.6L21.3,35.6z"/>
</g>
</svg>
