<?xml version="1.0" encoding="utf-8"?>
<!-- Generator: Adobe Illustrator 24.0.2, SVG Export Plug-In . SVG Version: 6.00 Build 0)  -->
<svg version="1.1" id="Capa_1" xmlns="http://www.w3.org/2000/svg" xmlns:xlink="http://www.w3.org/1999/xlink" x="0px" y="0px"
	 width="80px" height="80px" viewBox="0 0 80 80" style="enable-background:new 0 0 80 80;" xml:space="preserve">
<style type="text/css">
	.st0{fill:#CEA809;}
</style>
<g>
	<g>
		<g>
			<path class="st0" d="M70.7,77.3H49.3V76c0-2.2-1.8-4-4-4V42.7c0-0.9-0.5-1.8-1.3-2.3V22.7c0-1.7-1.1-3.2-2.7-3.8V8
				c0-2.9,2.4-5.3,5.3-5.3h8v6.7c0,2.2,1.8,4,4,4h8c2.2,0,4-1.8,4-4V4c0-2.2-1.8-4-4-4h-20C44,0,41.5,1.3,40,3.6
				C38.5,1.3,36,0,33.3,0h-20c-2.2,0-4,1.8-4,4v5.3c0,2.2,1.8,4,4,4h8c2.2,0,4-1.8,4-4V2.7h8c2.9,0,5.3,2.4,5.3,5.3v10.9
				C37.1,19.5,36,21,36,22.7v17.7c-0.8,0.5-1.3,1.3-1.3,2.3V72c-2.2,0-4,1.8-4,4v1.3H1.3c-0.7,0-1.3,0.6-1.3,1.3S0.6,80,1.3,80h69.3
				c0.7,0,1.3-0.6,1.3-1.3S71.4,77.3,70.7,77.3z M57.3,2.7h9.3C67.4,2.7,68,3.3,68,4v1.3H57.3L57.3,2.7L57.3,2.7z M57.3,8H68v1.3
				c0,0.7-0.6,1.3-1.3,1.3h-8c-0.7,0-1.3-0.6-1.3-1.3L57.3,8L57.3,8z M22.7,9.3c0,0.7-0.6,1.3-1.3,1.3h-8c-0.7,0-1.3-0.6-1.3-1.3V8
				h10.7L22.7,9.3L22.7,9.3z M22.7,5.3H12V4c0-0.7,0.6-1.3,1.3-1.3h9.3L22.7,5.3L22.7,5.3z M38.7,22.7c0-0.7,0.6-1.3,1.3-1.3
				c0.7,0,1.3,0.6,1.3,1.3V40h-2.7L38.7,22.7L38.7,22.7z M37.3,42.7h5.3v4h-5.3V42.7L37.3,42.7z M37.3,49.3h5.3V72h-5.3V49.3
				L37.3,49.3z M46.7,77.3H33.3V76c0-0.7,0.6-1.3,1.3-1.3h10.7c0.7,0,1.3,0.6,1.3,1.3L46.7,77.3L46.7,77.3z"/>
			<path class="st0" d="M78.7,77.3H76c-0.7,0-1.3,0.6-1.3,1.3S75.3,80,76,80h2.7c0.7,0,1.3-0.6,1.3-1.3S79.4,77.3,78.7,77.3z"/>
			<path class="st0" d="M54.7,14.7c0-0.4-0.1-0.7-0.4-0.9c-0.3-0.3-0.6-0.4-0.9-0.4s-0.7,0.1-0.9,0.4l-4,4c-0.3,0.3-0.5,0.8-0.4,1.3
				c0.1,0.5,0.5,0.8,0.9,0.9c0.5,0.1,1,0,1.3-0.4l4-4C54.5,15.4,54.7,15,54.7,14.7z"/>
			<path class="st0" d="M75.1,19.6c0.2,0.3,0.6,0.4,0.9,0.4c0.5,0,1-0.3,1.2-0.8c0.2-0.5,0.1-1.1-0.3-1.5l-4-4
				c-0.5-0.5-1.4-0.5-1.9,0c-0.5,0.5-0.5,1.4,0,1.9L75.1,19.6z"/>
			<path class="st0" d="M54.1,23.9c0.7,0.3,1.5,0.1,1.8-0.6l2.7-5.3c0.2-0.4,0.2-0.9-0.1-1.3c-0.3-0.4-0.7-0.6-1.2-0.6
				s-0.9,0.3-1.1,0.7l-2.7,5.3c-0.2,0.3-0.2,0.7-0.1,1C53.5,23.4,53.8,23.7,54.1,23.9z"/>
			<path class="st0" d="M61.3,17.3v5.3c0,0.7,0.6,1.3,1.3,1.3c0.7,0,1.3-0.6,1.3-1.3v-5.3c0-0.7-0.6-1.3-1.3-1.3
				C61.9,16,61.3,16.6,61.3,17.3z"/>
			<path class="st0" d="M68.4,16.1c-0.3-0.1-0.7-0.1-1,0.1c-0.3,0.2-0.6,0.4-0.7,0.8c-0.1,0.3-0.1,0.7,0.1,1l2.7,5.3
				c0.3,0.7,1.1,0.9,1.8,0.6c0.7-0.3,0.9-1.1,0.6-1.8l-2.7-5.3C69,16.4,68.8,16.2,68.4,16.1z"/>
			<path class="st0" d="M30.7,20c0.5,0,1-0.3,1.2-0.8c0.2-0.5,0.1-1.1-0.3-1.5l-4-4c-0.5-0.5-1.4-0.5-1.9,0c-0.5,0.5-0.5,1.4,0,1.9
				l4,4C30,19.9,30.3,20,30.7,20z"/>
			<path class="st0" d="M3.7,20c0.5,0.1,1,0,1.3-0.4l4-4c0.5-0.5,0.5-1.4,0-1.9c-0.5-0.5-1.4-0.5-1.9,0l-4,4
				c-0.3,0.3-0.5,0.8-0.4,1.3C2.8,19.5,3.2,19.8,3.7,20z"/>
			<path class="st0" d="M23.1,16.1c-0.3-0.1-0.7-0.1-1,0.1c-0.3,0.2-0.6,0.4-0.7,0.8c-0.1,0.3-0.1,0.7,0.1,1l2.7,5.3
				c0.3,0.7,1.1,0.9,1.8,0.6c0.7-0.3,0.9-1.1,0.6-1.8l-2.7-5.3C23.7,16.4,23.4,16.2,23.1,16.1z"/>
			<path class="st0" d="M18.7,22.7v-5.3c0-0.7-0.6-1.3-1.3-1.3c-0.7,0-1.3,0.6-1.3,1.3v5.3c0,0.7,0.6,1.3,1.3,1.3
				C18.1,24,18.7,23.4,18.7,22.7z"/>
			<path class="st0" d="M8.1,23.1c0.1,0.3,0.4,0.6,0.7,0.8c0.7,0.3,1.5,0.1,1.8-0.6l2.7-5.3c0.3-0.7,0.1-1.5-0.6-1.8
				c-0.7-0.3-1.5-0.1-1.8,0.6l-2.7,5.3C8,22.4,8,22.8,8.1,23.1z"/>
		</g>
	</g>
</g>
</svg>
