<?xml version="1.0" encoding="utf-8"?>
<!-- Generator: Adobe Illustrator 24.0.2, SVG Export Plug-In . SVG Version: 6.00 Build 0)  -->
<svg version="1.1" id="Layer_1" xmlns="http://www.w3.org/2000/svg" xmlns:xlink="http://www.w3.org/1999/xlink" x="0px" y="0px"
	 width="77.6px" height="80px" viewBox="0 0 77.6 80" style="enable-background:new 0 0 77.6 80;" xml:space="preserve">
<style type="text/css">
	.st0{fill:#CEA809;}
</style>
<g id="Outline">
	<g>
		<path class="st0" d="M14.7,53L14.7,53c7.4,6.4,17.7,8.2,26.8,4.9c0.4-0.1,0.7-0.5,0.8-0.9c0.1-0.4,0-0.9-0.3-1.2l-8.9-8.9
			c-0.4-0.4-1-0.5-1.5-0.3c-3.4,1.7-7.1,2.6-10.9,2.6c-1.2,0-2.5-0.1-3.7-0.3c0.6-5,2.7-9.8,6.1-13.5l4.9,4.9
			c0.2,0.2,0.6,0.4,0.9,0.4c0.3,0,0.7-0.1,0.9-0.4c3.3-3.3,3.5-8.6,0.5-12.2c-0.4-0.6-1.2-0.7-1.8-0.3c-0.6,0.4-0.7,1.2-0.3,1.8
			c0,0.1,0.1,0.1,0.1,0.1c1.8,2.2,2,5.3,0.5,7.7L25,33.5c0.4-0.4,0.8-0.7,1.3-1.1c0.6-0.5,0.6-1.3,0.2-1.8c-0.5-0.6-1.3-0.6-1.8-0.2
			l0,0c-0.8,0.7-1.6,1.4-2.4,2.1h-0.1c0,0,0,0,0,0.1C17.7,37,15,42.8,14.4,49c-9.2-10-8.6-25.5,1.3-34.7c3.7-3.4,8.4-5.6,13.4-6.3
			l0.6-0.1c0,5.7,2.5,11,6.9,14.7c0.2,0.2,0.5,0.3,0.8,0.3c0.4,0,0.7-0.2,1-0.5c0.5-0.5,0.4-1.4-0.2-1.8c0,0,0,0,0,0
			c-3.8-3.2-6-7.9-6-12.8c8.5,0,16.4,4.4,20.9,11.6l-8.5,4.5c-1,0.5-2.2,0.7-3.3,0.7l0,0c-2.5,0-5.1,0.3-7.5,1c-0.7,0.2-1,1-0.8,1.6
			c0.2,0.6,0.9,1,1.5,0.8c2.2-0.6,4.5-0.9,6.8-0.9l0,0c1.6,0,3.1-0.3,4.5-1.1l9.7-5.1c0.6-0.3,0.9-1.1,0.5-1.7c0,0,0,0,0,0
			C51.2,10.2,41.5,4.7,31.2,5.2l0,0c-0.7,0-1.4,0.1-2,0.2l-3-4.5c-0.3-0.4-0.8-0.7-1.3-0.6C10,2.2-0.4,15.9,1.6,30.7
			c0.8,5.7,3.3,11,7.3,15.2C10.4,48.6,12.4,51,14.7,53z M31.9,49.3l6.8,6.8c-7.6,2-15.7,0.3-21.8-4.6C22,52.2,27.3,51.5,31.9,49.3z
			 M4.1,24C5.5,13.3,13.8,4.7,24.5,2.9l1.9,2.9c-11.1,2.6-19.5,11.7-21,23c-0.3,2.2-0.3,4.5,0,6.7C4.1,31.9,3.6,27.9,4.1,24z"/>
		<circle class="st0" cx="40.1" cy="12.9" r="1.3"/>
		<path class="st0" d="M63.4,21.8v19.6c0,4.3-3.5,7.8-7.8,7.8s-7.8-3.5-7.8-7.8v-3.9l3.1,2.3c0.6,0.4,1.4,0.3,1.8-0.3
			c0.4-0.6,0.3-1.4-0.3-1.8l0,0l-5.2-3.9c-0.4-0.3-0.9-0.3-1.4-0.1c-0.4,0.2-0.7,0.7-0.7,1.2v6.5c0,5.7,4.6,10.3,10.3,10.3
			S66,47.1,66,41.4V21.8c2.8-0.7,4.4-3.6,3.6-6.3c-0.5-1.8-1.9-3.2-3.6-3.6V1.3C66,0.6,65.4,0,64.7,0c-0.7,0-1.3,0.6-1.3,1.3v10.5
			c-2.8,0.7-4.4,3.6-3.6,6.3C60.2,19.9,61.6,21.3,63.4,21.8z M64.7,14.2c1.4,0,2.6,1.2,2.6,2.6s-1.2,2.6-2.6,2.6
			c-1.4,0-2.6-1.2-2.6-2.6S63.3,14.2,64.7,14.2z"/>
		<path class="st0" d="M23.6,14.6c-0.7-0.1-1.4,0.3-1.5,1c-0.6,3.5,1.7,6.9,5.2,7.5h0.2c0.7,0.1,1.3-0.5,1.4-1.2
			c0.1-0.7-0.5-1.3-1.2-1.4c-2.1-0.3-3.5-2.3-3.2-4.4C24.7,15.5,24.3,14.8,23.6,14.6z"/>
		<path class="st0" d="M21.4,25.9c0-0.7-0.6-1.3-1.3-1.3c-1.8,0-3.2-1.4-3.2-3.2c0-0.7-0.6-1.3-1.3-1.3c-0.7,0-1.3,0.6-1.3,1.3
			c0,3.2,2.6,5.8,5.8,5.8C20.8,27.2,21.4,26.6,21.4,25.9z"/>
		<path class="st0" d="M12.9,30.4c0-0.7-0.6-1.3-1.3-1.3c-0.7,0-1.3,0.6-1.3,1.3c0,3.2,2.6,5.8,5.8,5.8c0.7,0,1.3-0.6,1.3-1.3
			c0-0.7-0.6-1.3-1.3-1.3C14.4,33.6,12.9,32.2,12.9,30.4z"/>
		<path class="st0" d="M4.5,66.7c1.6,0,3-0.6,4.2-1.7c1.3-1.3,3.3-1.3,4.6,0c0,0,0,0,0,0c2.3,2.3,6,2.3,8.3,0c1.3-1.3,3.3-1.3,4.6,0
			c0,0,0,0,0,0c2.3,2.3,6,2.3,8.3,0c1.3-1.3,3.3-1.3,4.6,0c0,0,0,0,0,0c2.3,2.3,6,2.3,8.3,0c1.3-1.3,3.3-1.3,4.6,0c0,0,0,0,0,0
			c2.3,2.3,6,2.3,8.3,0c1.3-1.3,3.3-1.3,4.6,0c0,0,0,0,0,0c2.3,2.3,6,2.3,8.3,0c0.7-0.7,1.8-1.1,2.8-0.9c0.7,0.1,1.4-0.4,1.5-1.1
			s-0.4-1.4-1.1-1.5c-1.8-0.3-3.7,0.3-5,1.6c-1.3,1.3-3.3,1.3-4.6,0c0,0,0,0,0,0c-2.3-2.3-6-2.3-8.3,0c-1.3,1.3-3.3,1.3-4.6,0
			c0,0,0,0,0,0c-2.3-2.3-6-2.3-8.3,0c-1.3,1.3-3.3,1.3-4.6,0c0,0,0,0,0,0c-2.3-2.3-6-2.3-8.3,0c-1.3,1.3-3.3,1.3-4.6,0c0,0,0,0,0,0
			c-2.3-2.3-6-2.3-8.3,0c-1.3,1.3-3.3,1.3-4.6,0c0,0,0,0,0,0c-2.3-2.3-6-2.3-8.3,0c-1.3,1.3-3.3,1.3-4.6,0c0,0,0,0,0,0
			c-0.5-0.5-1.3-0.5-1.8,0c-0.5,0.5-0.5,1.3,0,1.8l0,0C1.5,66,3,66.7,4.5,66.7z"/>
		<path class="st0" d="M77.2,69.6c-2.3-2.3-6-2.3-8.3,0c-1.3,1.3-3.3,1.3-4.6,0c0,0,0,0,0,0c-2.3-2.3-6-2.3-8.3,0
			c-1.3,1.3-3.3,1.3-4.6,0c0,0,0,0,0,0c-2.3-2.3-6-2.3-8.3,0c-1.3,1.3-3.3,1.3-4.6,0c0,0,0,0,0,0c-2.3-2.3-6-2.3-8.3,0
			c-1.3,1.3-3.3,1.3-4.6,0c0,0,0,0,0,0c-2.3-2.3-6-2.3-8.3,0c-1.3,1.3-3.3,1.3-4.6,0c0,0,0,0,0,0c-2.3-2.3-6-2.3-8.3,0
			c-0.7,0.7-1.8,1.1-2.8,0.9c-0.7-0.1-1.4,0.4-1.5,1.1c-0.1,0.7,0.4,1.4,1.1,1.5c1.8,0.3,3.7-0.3,5-1.6c1.3-1.3,3.3-1.3,4.6,0
			c0,0,0,0,0,0c2.3,2.3,6,2.3,8.3,0c1.3-1.3,3.3-1.3,4.6,0c0,0,0,0,0,0c2.3,2.3,6,2.3,8.3,0c1.3-1.3,3.3-1.3,4.6,0c0,0,0,0,0,0
			c2.3,2.3,6,2.3,8.3,0c1.3-1.3,3.3-1.3,4.6,0c0,0,0,0,0,0c2.3,2.3,6,2.3,8.3,0c1.3-1.3,3.3-1.3,4.6,0c0,0,0,0,0,0
			c2.3,2.3,6,2.3,8.3,0c1.3-1.3,3.3-1.3,4.6,0c0,0,0,0,0,0c0.5,0.5,1.3,0.5,1.8,0C77.7,70.9,77.7,70.1,77.2,69.6L77.2,69.6z"/>
		<path class="st0" d="M77.2,76.4c-2.3-2.3-6-2.3-8.3,0c-1.3,1.3-3.3,1.3-4.6,0c0,0,0,0,0,0c-2.3-2.3-6-2.3-8.3,0
			c-1.3,1.3-3.3,1.3-4.6,0c0,0,0,0,0,0c-2.3-2.3-6-2.3-8.3,0c-1.3,1.3-3.3,1.3-4.6,0c0,0,0,0,0,0c-2.3-2.3-6-2.3-8.3,0
			c-1.3,1.3-3.3,1.3-4.6,0c0,0,0,0,0,0c-2.3-2.3-6-2.3-8.3,0c-1.3,1.3-3.3,1.3-4.6,0c0,0,0,0,0,0c-2.3-2.3-6-2.3-8.3,0
			c-0.7,0.7-1.8,1.1-2.8,0.9c-0.7-0.1-1.4,0.4-1.5,1.1c-0.1,0.7,0.4,1.4,1.1,1.5c1.8,0.3,3.7-0.3,5-1.6c1.3-1.3,3.3-1.3,4.6,0
			c0,0,0,0,0,0c2.3,2.3,6,2.3,8.3,0c1.3-1.3,3.3-1.3,4.6,0c0,0,0,0,0,0c2.3,2.3,6,2.3,8.3,0c1.3-1.3,3.3-1.3,4.6,0c0,0,0,0,0,0
			c2.3,2.3,6,2.3,8.3,0c1.3-1.3,3.3-1.3,4.6,0c0,0,0,0,0,0c2.3,2.3,6,2.3,8.3,0c1.3-1.3,3.3-1.3,4.6,0c0,0,0,0,0,0
			c2.3,2.3,6,2.3,8.3,0c1.3-1.3,3.3-1.3,4.6,0c0,0,0,0,0,0c0.5,0.5,1.3,0.5,1.8,0C77.7,77.8,77.7,77,77.2,76.4L77.2,76.4z"/>
	</g>
</g>
</svg>
