<?xml version="1.0" encoding="utf-8"?>
<!-- Generator: Adobe Illustrator 24.0.2, SVG Export Plug-In . SVG Version: 6.00 Build 0)  -->
<svg version="1.1" id="Layer_1" xmlns="http://www.w3.org/2000/svg" xmlns:xlink="http://www.w3.org/1999/xlink" x="0px" y="0px"
	 width="79.4px" height="79.4px" viewBox="0 0 79.4 79.4" style="enable-background:new 0 0 79.4 79.4;" xml:space="preserve">
<style type="text/css">
	.st0{fill:#CEA809;}
</style>
<g>
	<g>
		<g>
			<g>
				<path class="st0" d="M1.3,79.4c-0.4,0-0.7-0.2-0.9-0.4C0.1,78.7,0,78.3,0,78L9.4,1.1C9.5,0.5,10,0,10.6,0h58.1
					c0.6,0,1.2,0.5,1.3,1.1L79.4,78c0,0.4-0.1,0.7-0.3,1c-0.2,0.3-0.6,0.4-0.9,0.4H1.3z M70.8,76.9h5.9L67.6,2.5h-3.9L70.8,76.9z
					 M12.8,45.4c0.3,0,0.6,0.2,0.9,0.5c0.2,0.3,0.3,0.6,0.3,0.9l-2.9,30.1h57.2L61.2,2.5H43.1v8.1c0,0.7-0.6,1.3-1.3,1.3h-6.2
					c-0.7,0-1.3-0.6-1.3-1.3V2.5H18.2l-2.9,30.3C15.2,33.5,14.7,34,14,34c0,0-0.1,0-0.1,0c-0.3,0-0.6-0.2-0.9-0.5
					c-0.2-0.3-0.3-0.6-0.3-0.9l2.9-30.1h-3.9L2.7,76.9h5.9l2.9-30.3c0.1-0.7,0.6-1.1,1.3-1.1C12.7,45.4,12.8,45.4,12.8,45.4z
					 M36.8,9.4h3.7V2.5h-3.7V9.4z"/>
			</g>
			<g>
				<path class="st0" d="M35.6,40c-0.7,0-1.3-0.6-1.3-1.3V20c0-0.7,0.6-1.3,1.3-1.3h6.2c0.7,0,1.3,0.6,1.3,1.3v18.8
					c0,0.7-0.6,1.3-1.3,1.3H35.6z M36.8,37.5h3.7V21.3h-3.7V37.5z"/>
			</g>
			<g>
				<path class="st0" d="M35.6,71.3c-0.7,0-1.3-0.6-1.3-1.3V48.1c0-0.7,0.6-1.3,1.3-1.3h6.2c0.7,0,1.3,0.6,1.3,1.3V70
					c0,0.7-0.6,1.3-1.3,1.3H35.6z M36.8,68.8h3.7V49.4h-3.7V68.8z"/>
			</g>
			<g>
				<path class="st0" d="M13.4,41c-0.7,0-1.3-0.6-1.3-1.3c0-0.7,0.6-1.3,1.3-1.3c0.7,0,1.3,0.6,1.3,1.3C14.6,40.4,14.1,41,13.4,41z"
					/>
			</g>
		</g>
	</g>
</g>
</svg>
