<?xml version="1.0" encoding="utf-8"?>
<!-- Generator: Adobe Illustrator 24.0.2, SVG Export Plug-In . SVG Version: 6.00 Build 0)  -->
<svg version="1.1" id="Layer_5" xmlns="http://www.w3.org/2000/svg" xmlns:xlink="http://www.w3.org/1999/xlink" x="0px" y="0px"
	 width="80.6px" height="80.6px" viewBox="0 0 80.6 80.6" style="enable-background:new 0 0 80.6 80.6;" xml:space="preserve">
<style type="text/css">
	.st0{fill:#CEA809;}
</style>
<g>
	<g>
		<g>
			<path class="st0" d="M40.3,26.4c-5.8,0-10.5-4.3-10.5-7.9c0-4.1,1.9-6.4,3.4-8.3C34.2,9,35,8.1,35,6.9V5.4h1.5
				c1.4,0,3.9,0.8,4.9,3.8C43.1,8.1,44.9,8,45.4,8h1.5v1.5c0,1.4,0.8,2.4,1.6,3.6c1,1.4,2.2,3,2.2,5.4
				C50.8,22.1,46.1,26.4,40.3,26.4z M37.6,8.8c-0.4,1.3-1.3,2.3-2.1,3.3c-1.3,1.6-2.7,3.3-2.7,6.4c0,1.7,3.1,4.9,7.5,4.9
				c4.4,0,7.5-3.2,7.5-4.9c0-1.4-0.8-2.4-1.6-3.6c-0.8-1-1.6-2.2-2-3.7c-1.1,0.3-2.4,1.2-2.4,3.4v1.5h-3v-4.1
				C38.8,10.2,38.2,9.3,37.6,8.8z"/>
		</g>
		<g>
			<path class="st0" d="M0.3,80.3v-3h18v-1.1c0-3.6,3-6.6,6.6-6.6H26v-7.3h-5c-0.6,1.5-2.1,2.6-3.8,2.6h-2.6c-1.7,0-3.1-1-3.8-2.6
				H0.3V36.2h10.6c0.6-1.5,2.1-2.6,3.8-2.6h2.6c1.7,0,3.1,1,3.8,2.6h14v-5.7c-6.1-2.2-10.3-8.1-10.3-14.6c0-8.6,7-15.6,15.6-15.6
				c8.6,0,15.6,7,15.6,15.6c0,6.5-4.1,12.4-10.3,14.6v5.7h14c0.6-1.5,2.1-2.6,3.8-2.6H66c1.7,0,3.1,1,3.8,2.6h10.6v26.1H69.7
				c-0.6,1.5-2.1,2.6-3.8,2.6h-2.6c-1.7,0-3.1-1-3.8-2.6h-5v7.3h1.1c3.6,0,6.6,3,6.6,6.6v1.1h18v3H0.3z M59.4,77.3v-1.1
				c0-2-1.6-3.7-3.7-3.7H24.9c-2,0-3.7,1.6-3.7,3.7v1.1H59.4z M51.7,69.6v-8.8c0-2-1.6-3.7-3.7-3.7H32.6c-2,0-3.7,1.6-3.7,3.7v8.8
				H51.7z M63.4,36.6c-0.6,0-1.1,0.5-1.1,1.1v23.1c0,0.6,0.5,1.1,1.1,1.1H66c0.6,0,1.1-0.5,1.1-1.1V37.7c0-0.6-0.5-1.1-1.1-1.1H63.4
				z M14.6,36.6c-0.6,0-1.1,0.5-1.1,1.1v23.1c0,0.6,0.5,1.1,1.1,1.1h2.6c0.6,0,1.1-0.5,1.1-1.1V37.7c0-0.6-0.5-1.1-1.1-1.1H14.6z
				 M77.3,59.4V39.2H70v20.1H77.3z M59.4,59.4V39.2H21.2v20.1h4.9c0.7-3,3.4-5.1,6.5-5.1H48c3.1,0,5.8,2.2,6.5,5.1H59.4z M10.6,59.4
				V39.2H3.3v20.1H10.6z M42.7,36.2v-4.9c-0.8,0.1-1.6,0.2-2.4,0.2c-0.7,0-1.5-0.1-2.4-0.2v4.9H42.7z M40.3,3.3
				c-7,0-12.6,5.7-12.6,12.6s5.7,12.6,12.6,12.6s12.6-5.7,12.6-12.6S47.3,3.3,40.3,3.3z"/>
		</g>
	</g>
</g>
</svg>
