<?xml version="1.0" encoding="utf-8"?>
<!-- Generator: Adobe Illustrator 24.0.2, SVG Export Plug-In . SVG Version: 6.00 Build 0)  -->
<svg version="1.1" id="Layer_1" xmlns="http://www.w3.org/2000/svg" xmlns:xlink="http://www.w3.org/1999/xlink" x="0px" y="0px"
	 width="100.8px" height="79.6px" viewBox="0 0 100.8 79.6" style="enable-background:new 0 0 100.8 79.6;" xml:space="preserve">
<style type="text/css">
	.st0{fill:#CEA809;}
</style>
<g>
	<g>
		<g>
			<path class="st0" d="M89.7,61.5c-4.8,0-8.1-2.7-9.7-4.2l-0.1-0.1l-0.1,0.1c-1.5,1.6-4.8,4.2-9.7,4.2s-8.1-2.7-9.7-4.2l-0.1-0.1
				l-0.1,0.1c-1.5,1.6-4.8,4.2-9.7,4.2c-4.8,0-8.1-2.7-9.7-4.2l-0.1-0.1l-0.1,0.1c-1.5,1.6-4.8,4.2-9.7,4.2c-4.8,0-8.1-2.7-9.7-4.2
				l-0.1-0.1l-0.1,0.1c-1.5,1.6-4.8,4.2-9.7,4.2c-7,0-10.7-5.4-10.9-5.7C0,55.5,0,55.2,0,54.8c0.1-0.3,0.3-0.6,0.5-0.8
				c0.2-0.1,0.5-0.2,0.7-0.2c0.4,0,0.8,0.2,1.1,0.6c0.1,0.2,3.2,4.5,8.8,4.5c4.8,0,7.7-3.2,8.5-4.2l0-0.1V43.4
				c0-0.7,0.6-1.3,1.3-1.3c0.7,0,1.3,0.6,1.3,1.3v11.3l0,0.1c0.5,0.6,1.8,2.1,3.8,3.1l0.3,0.1V17.7c0-2.9,1.2-5.8,3.3-7.9
				c2-2,4.7-3.1,7.5-3.1l0.2,0c5.9,0.1,10.7,5,10.7,10.8v11.2h4.2v-11c0-8.3-6.7-15.1-14.9-15.2l-0.2,0c-4,0-7.7,1.5-10.5,4.3
				c-2.9,2.8-4.5,6.6-4.5,10.7v19.9c0,0.7-0.6,1.3-1.3,1.3c-0.7,0-1.3-0.6-1.3-1.3v-6.1H1.4c-0.7,0-1.3-0.6-1.3-1.3s0.6-1.3,1.3-1.3
				h18.2V17.6c0-4.7,1.9-9.2,5.2-12.5C28.2,1.8,32.6,0,37.2,0l0.2,0c6.9,0.1,13.1,4.2,15.9,10.6l0.2,0.4l0.2-0.4
				c0.9-2.1,2.2-3.9,3.8-5.5C60.7,1.8,65.1,0,69.8,0L70,0c9.6,0.1,17.4,8.1,17.4,17.8v11h12.1c0.7,0,1.3,0.6,1.3,1.3
				c0,0.7-0.6,1.3-1.3,1.3h-38v23.3l0,0.1c0.8,1,3.7,4.2,8.5,4.2c5.6,0,8.6-4.4,8.7-4.5c0.2-0.4,0.6-0.6,1.1-0.6s0.8,0.2,1.1,0.6
				c0.1,0.2,3.2,4.5,8.8,4.5c5.6,0,8.6-4.4,8.8-4.5c0.2-0.4,0.6-0.6,1.1-0.6c0.3,0,0.5,0.1,0.7,0.2c0.6,0.4,0.7,1.2,0.3,1.8
				C100.4,56,96.7,61.5,89.7,61.5z M40.6,53.8c0.4,0,0.8,0.2,1.1,0.6c0.1,0.2,3.2,4.5,8.8,4.5c0.5,0,1.1,0,1.7-0.1l0.2,0v-9.9H28.9
				v9.9l0.2,0c0.5,0.1,1.1,0.1,1.7,0.1c5.6,0,8.6-4.4,8.8-4.5C39.7,54,40.1,53.8,40.6,53.8z M69.7,2.6c-4,0-7.7,1.5-10.5,4.3
				c-2.9,2.8-4.5,6.6-4.5,10.7v40.4l0.3-0.1c2-1,3.4-2.5,3.8-3.1l0-0.1V17.7c0-2.9,1.2-5.8,3.3-7.9c2-2,4.7-3.1,7.5-3.1l0.2,0
				c5.9,0.1,10.7,5,10.7,10.8v1.8c0,0.7-0.6,1.3-1.3,1.3s-1.3-0.6-1.3-1.3v-1.8c0-4.5-3.6-8.2-8.1-8.3l-0.1,0
				c-2.1,0-4.2,0.8-5.7,2.4c-1.6,1.6-2.6,3.8-2.6,6.1v11.1h16.6v-3.5c0-0.7,0.6-1.3,1.3-1.3s1.3,0.6,1.3,1.3v3.5h4.2v-11
				c0-8.3-6.7-15.1-14.9-15.2L69.7,2.6z M28.9,46.2h23.3v-4.6H28.9V46.2z M28.9,39.1h23.3v-7.8H28.9V39.1z M37.2,9.3
				c-2.1,0-4.2,0.8-5.7,2.4c-1.6,1.6-2.6,3.8-2.6,6.1v11.1h16.6V17.6c0-4.5-3.6-8.2-8.1-8.3L37.2,9.3z"/>
		</g>
		<g>
			<path class="st0" d="M40.6,79.6c-4.8,0-8.1-2.7-9.7-4.2l-0.1-0.1l-0.1,0.1c-1.5,1.6-4.8,4.2-9.7,4.2c-7,0-10.7-5.4-10.9-5.7
				c-0.2-0.3-0.3-0.6-0.2-1c0.1-0.3,0.3-0.6,0.5-0.8c0.2-0.1,0.5-0.2,0.7-0.2c0.4,0,0.8,0.2,1.1,0.6c0.1,0.2,3.2,4.5,8.8,4.5
				c5.6,0,8.6-4.4,8.8-4.5c0.2-0.3,0.6-0.6,1.1-0.6c0.4,0,0.8,0.2,1.1,0.6c0.1,0.2,3.2,4.5,8.8,4.5c0.7,0,1.3,0.6,1.3,1.3
				C41.9,79,41.3,79.6,40.6,79.6z"/>
		</g>
		<g>
			<path class="st0" d="M79.9,79.6c-4.8,0-8.1-2.7-9.7-4.2L70,75.2l-0.1,0.1c-1.5,1.6-4.8,4.2-9.7,4.2s-8.1-2.7-9.7-4.2l-0.1-0.1
				l-0.1,0.1c-0.9,1-2,1.8-3.1,2.4c-0.2,0.1-0.4,0.2-0.6,0.2c-0.5,0-0.9-0.2-1.1-0.6c-0.4-0.6-0.1-1.4,0.5-1.8
				c2.3-1.3,3.5-3.1,3.5-3.1c0.2-0.3,0.6-0.6,1.1-0.6c0.4,0,0.8,0.2,1.1,0.6c0.1,0.2,3.2,4.5,8.8,4.5c5.6,0,8.7-4.5,8.8-4.5
				c0.2-0.4,0.6-0.6,1.1-0.6s0.8,0.2,1.1,0.6c0.1,0.2,3.2,4.5,8.8,4.5c5.6,0,8.6-4.4,8.8-4.5c0.2-0.4,0.6-0.6,1.1-0.6
				c0.3,0,0.5,0.1,0.7,0.2c0.6,0.4,0.7,1.2,0.3,1.8C90.6,74.2,86.8,79.6,79.9,79.6z"/>
		</g>
	</g>
</g>
</svg>
