<?xml version="1.0" encoding="utf-8"?>
<!-- Generator: Adobe Illustrator 24.0.2, SVG Export Plug-In . SVG Version: 6.00 Build 0)  -->
<svg version="1.1" id="Capa_1" xmlns="http://www.w3.org/2000/svg" xmlns:xlink="http://www.w3.org/1999/xlink" x="0px" y="0px"
	 width="65.6px" height="80px" viewBox="0 0 65.6 80" style="enable-background:new 0 0 65.6 80;" xml:space="preserve">
<style type="text/css">
	.st0{fill:#CEA809;}
</style>
<g>
	<g>
		<path class="st0" d="M32.8,6.3c-0.9,0-1.6,0.7-1.6,1.6c0,0.8,0.6,1.5,1.4,1.6c0.9,0.1,1.7-0.6,1.7-1.6C34.4,6.9,33.7,6.3,32.8,6.3
			z"/>
	</g>
</g>
<g>
	<g>
		<path class="st0" d="M64.1,9.4c-4.3,0-7.8-3.5-7.8-7.8c0-0.9-0.7-1.6-1.6-1.6H10.9c-0.9,0-1.6,0.7-1.6,1.6c0,4.3-3.5,7.8-7.8,7.8
			C0.7,9.4,0,10.1,0,10.9v25.5c0,19.9,13,37.7,32.4,43.5c0.1,0,0.3,0.1,0.4,0.1c0.2,0,0.3,0,0.4-0.1c19-5.7,32.4-23.2,32.4-43.5
			V10.9C65.6,10.1,64.9,9.4,64.1,9.4z M62.5,36.4c0,18.7-11.9,34.8-29.7,40.4C15.2,71.3,3.1,55,3.1,36.4v-24
			c4.8-0.7,8.6-4.5,9.3-9.3h40.8c0.7,4.8,4.5,8.6,9.3,9.3V36.4z"/>
	</g>
</g>
<g>
	<g>
		<path class="st0" d="M58.4,14.5c-3.3-1.4-5.8-4-7.3-7.3c-0.2-0.6-0.8-0.9-1.4-0.9H39.1c-0.9,0-1.6,0.7-1.6,1.6s0.7,1.6,1.6,1.6
			h9.7c1.7,3.2,4.3,5.8,7.5,7.5v19.6c0,15.3-9.2,28.5-23.4,33.8C18.6,64.9,9.4,51.7,9.4,36.4V16.9c3.2-1.7,5.8-4.3,7.5-7.5h9.7
			c0.9,0,1.6-0.7,1.6-1.6s-0.7-1.6-1.6-1.6H15.9c-0.6,0-1.2,0.4-1.4,0.9c-1.4,3.3-4,5.8-7.3,7.3c-0.6,0.2-0.9,0.8-0.9,1.4v20.6
			c0,16.8,10.4,31.4,26,36.9c0.2,0.1,0.3,0.1,0.5,0.1c0.2,0,0.4,0,0.5-0.1c15.7-5.5,26-20.1,26-36.9V15.9
			C59.4,15.3,59,14.7,58.4,14.5z"/>
	</g>
</g>
<g>
	<g>
		<path class="st0" d="M32.8,22.8c-7.8,0-14.1,6.3-14.1,14.1s6.3,14.1,14.1,14.1s14.1-6.3,14.1-14.1S40.6,22.8,32.8,22.8z
			 M32.8,47.8c-6,0-10.9-4.9-10.9-10.9s4.9-10.9,10.9-10.9s10.9,4.9,10.9,10.9S38.8,47.8,32.8,47.8z"/>
	</g>
</g>
<g>
	<g>
		<path class="st0" d="M40.2,32.6c-0.6-0.6-1.6-0.6-2.2,0l-6.7,6.7l-2-2c-0.6-0.6-1.6-0.6-2.2,0c-0.6,0.6-0.6,1.6,0,2.2l3.1,3.1
			c0.3,0.3,0.7,0.5,1.1,0.5c0.4,0,0.8-0.2,1.1-0.5l7.8-7.8C40.8,34.2,40.8,33.3,40.2,32.6z"/>
	</g>
</g>
</svg>
