<?xml version="1.0" encoding="utf-8"?>
<!-- Generator: Adobe Illustrator 24.0.2, SVG Export Plug-In . SVG Version: 6.00 Build 0)  -->
<svg version="1.1" id="Layer_5" xmlns="http://www.w3.org/2000/svg" xmlns:xlink="http://www.w3.org/1999/xlink" x="0px" y="0px"
	 width="80px" height="80px" viewBox="0 0 80 80" style="enable-background:new 0 0 80 80;" xml:space="preserve">
<style type="text/css">
	.st0{fill:#CEA809;}
</style>
<path class="st0" d="M77.4,50.3c0-3.6-2.9-6.5-6.5-6.5H60.2c-0.8-0.6-1.7-1.2-2.6-1.6c1.9-1.4,3.1-3.6,3.1-6.2
	c0-4.3-3.5-7.7-7.7-7.7s-7.7,3.5-7.7,7.7c0,2.5,1.2,4.7,3.1,6.2c-0.9,0.4-1.8,0.9-2.6,1.6H34.8c-3.6,0-6.5,2.9-6.5,6.5v3.9h-2.6v7.9
	c-0.9,0.2-1.7,0.5-2.5,0.9c0,0-0.1-0.1-0.1-0.1V42.5c1.1,0.8,2.4,1.3,3.9,1.3c3.1,0,5.7-2.2,6.3-5.2c0,0,0.1,0,0.1,0
	c3.6,0,6.5-2.9,6.5-6.5c0-0.2,0-0.3-0.1-0.5c2.3-1,3.9-3.3,3.9-5.9c0-2.1-1-4-2.6-5.2c0.8-1.1,1.3-2.4,1.3-3.9
	c0-1.6-0.6-3.1-1.7-4.3c0.3-0.7,0.4-1.4,0.4-2.1c0-3.6-2.9-6.5-6.5-6.5c-0.7,0-1.5,0.1-2.1,0.4C31.4,1.7,28.8,0,25.8,0
	c-1.7,0-3.4,0.6-4.7,1.6c-1.2-1-2.7-1.6-4.3-1.6c-2.7,0-5.1,1.7-6,4.1C10.2,4,9.6,3.9,9,3.9c-3.6,0-6.5,2.9-6.5,6.5
	c0,0.7,0.1,1.5,0.4,2.2c-1,1.1-1.7,2.6-1.7,4.3c0,1.5,0.5,2.8,1.3,3.9C1,21.8,0,23.7,0,25.8c0,2.6,1.6,4.9,3.9,5.9
	c0,0.2,0,0.4,0,0.5c0,3.6,2.9,6.5,6.5,6.5c0,0,0.1,0,0.1,0c0.6,2.9,3.2,5.2,6.3,5.2c1.5,0,2.8-0.5,3.9-1.3v18.2
	c-1.5-0.9-3.3-1.4-5.2-1.4C9.8,59.4,5.2,64,5.2,69.7C2.3,69.7,0,72,0,74.8S2.3,80,5.2,80h20.6h1.3h9V69.7h9v5.8c0,2.5,2,4.5,4.5,4.5
	c1.3,0,2.4-0.5,3.2-1.4c0.8,0.8,2,1.4,3.2,1.4c2.5,0,4.5-2,4.5-4.5v-5.8h9V80H80V69.7v-1.3V54.2h-2.6V50.3z M74.8,50.3v3.9h-5.2v7.7
	h-9c2.1,0,3.9-1.7,3.9-3.9v-5.2c0-2.4-0.7-4.6-2-6.5H71C73.1,46.5,74.8,48.2,74.8,50.3z M77.4,63.3c-1.1-0.8-2.4-1.3-3.9-1.3h-1.3
	v-5.2h5.2V63.3z M47.7,36.1c0-2.8,2.3-5.2,5.2-5.2c2.8,0,5.2,2.3,5.2,5.2s-2.3,5.2-5.2,5.2C50.1,41.3,47.7,39,47.7,36.1L47.7,36.1z
	 M52.9,43.9c5,0,9,4.1,9,9v5.2c0,0.7-0.6,1.3-1.3,1.3h-4.1c0.1-0.4,0.2-0.8,0.2-1.3c0-0.5-0.1-0.9-0.2-1.3h2.8v-5.2h-2.6v2.6h-3.9
	H49v-2.6h-2.6v5.2h6.5c0.7,0,1.3,0.6,1.3,1.3c0,0.7-0.6,1.3-1.3,1.3h-7.7c-0.7,0-1.3-0.6-1.3-1.3v-5.2
	C43.9,47.9,47.9,43.9,52.9,43.9z M31,50.3c0-2.1,1.7-3.9,3.9-3.9h8.4c-1.2,1.8-2,4.1-2,6.5v5.2c0,2.1,1.7,3.9,3.9,3.9h-9v-7.7H31
	V50.3z M33.5,56.8v5.2h-1.3c-1.5,0-2.8,0.5-3.9,1.3v-6.5H33.5z M16.8,41.3c-2.1,0-3.9-1.7-3.9-3.9s1.7-3.9,3.9-3.9V31
	c-3.1,0-5.7,2.2-6.3,5.1c0,0-0.1,0-0.1,0c-2.1,0-3.9-1.7-3.9-3.9c0-0.3,0.1-0.6,0.2-1.1L7,29.9l-1.3-0.3c-1.8-0.4-3.1-2-3.1-3.8
	c0-1.4,0.8-2.7,2.1-3.4c0.9,0.5,2,0.8,3.1,0.8c0.7,0,1.5-0.1,2.2-0.4L9,20.4c-0.4,0.1-0.9,0.2-1.3,0.2c-2.1,0-3.9-1.7-3.9-3.9
	s1.7-3.9,3.9-3.9v-2.6c-0.9,0-1.7,0.2-2.5,0.5c0-0.2-0.1-0.3-0.1-0.5c0-2.1,1.7-3.9,3.9-3.9s3.9,1.7,3.9,3.9h2.6c0-2-1-3.8-2.4-5
	c0.5-1.6,2-2.8,3.7-2.8c1.3,0,2.4,0.6,3.2,1.7l0.9,1.3L22,4.3c1-1.1,2.4-1.8,3.9-1.8c2.8,0,5.2,2.3,5.2,5.2s-2.3,5.2-5.2,5.2v2.6
	c4.3,0,7.7-3.5,7.7-7.7c0-0.4,0-0.7-0.1-1c0.4-0.2,0.9-0.3,1.4-0.3c2.1,0,3.9,1.7,3.9,3.9c0,0.6-0.2,1.2-0.5,1.8l-0.5,0.9l0.8,0.7
	c0.9,0.7,1.5,1.8,1.5,3c0,2.1-1.7,3.9-3.9,3.9v2.6c1.1,0,2.2-0.3,3.1-0.8c1.2,0.7,2.1,2,2.1,3.4c0,1.5-0.8,2.8-2.1,3.4
	c-1.1-2-3.2-3.4-5.7-3.4v2.6c2.1,0,3.9,1.7,3.9,3.9s-1.7,3.9-3.9,3.9s-3.9-1.7-3.9-3.9h-2.6c0,2.6,1.6,4.9,3.8,5.9
	c-0.3,1.8-1.9,3.2-3.8,3.2c-2.1,0-3.9-1.7-3.9-3.9v-8.2l10.8-4.8L33,22l-3.9,1.8l-2-6.1l-2.4,0.8l2.1,6.4l-3.5,1.5V12.9h-2.6v9.5
	l-3-1.5L14,14.8l-2.2,1.3l3.4,5.6l-4.4,4.4l1.8,1.8l4.5-4.5l3.6,1.8v12.1C20.6,39.6,18.9,41.3,16.8,41.3L16.8,41.3z M5.2,77.4
	c-1.4,0-2.6-1.2-2.6-2.6s1.2-2.6,2.6-2.6h2.6v-2.6c0-4.3,3.5-7.7,7.7-7.7c2.2,0,4.4,1,5.8,2.6c-1.2,1.4-1.9,3.1-1.9,5.1h2.6
	c0-2.4,1.7-4.4,3.9-5v3.7v1.3v7.7H5.2z M33.5,77.4h-5.2v-7.7h5.2V77.4z M28.6,67.1c0.5-1.5,2-2.6,3.7-2.6h12.9v2.6H28.6z M49.7,77.4
	c-1.1,0-1.9-0.9-1.9-1.9V63.9c0-1.1,0.9-1.9,1.9-1.9s1.9,0.9,1.9,1.9v11.6C51.6,76.6,50.7,77.4,49.7,77.4z M58.1,75.5
	c0,1.1-0.9,1.9-1.9,1.9s-1.9-0.9-1.9-1.9V63.9c0-1.1,0.9-1.9,1.9-1.9s1.9,0.9,1.9,1.9V75.5z M60.6,64.5h12.9c1.7,0,3.1,1.1,3.7,2.6
	H60.6V64.5z M77.4,77.4h-5.2v-7.7h5.2V77.4z"/>
<path class="st0" d="M12.9,64.5h2.6v2.6h-2.6V64.5z"/>
<path class="st0" d="M18.1,72.3h2.6v2.6h-2.6V72.3z"/>
<path class="st0" d="M10.3,72.3h2.6v2.6h-2.6V72.3z"/>
<path class="st0" d="M10.3,43.9v-1.3H6.5C2.9,42.6,0,45.5,0,49v1.3h3.9C7.4,50.3,10.3,47.4,10.3,43.9z M6.5,45.2h1.1
	c-0.5,1.5-2,2.6-3.7,2.6H2.8C3.3,46.2,4.8,45.2,6.5,45.2z"/>
<path class="st0" d="M7.7,55.5v1.3h3.9c3.6,0,6.5-2.9,6.5-6.5V49h-3.9C10.6,49,7.7,51.9,7.7,55.5z M14.2,51.6h1.1
	c-0.5,1.5-2,2.6-3.7,2.6h-1.1C11.1,52.7,12.5,51.6,14.2,51.6z"/>
<path class="st0" d="M65.8,6.5c0.7,0,1.3,0.6,1.3,1.3V9h-1.3v2.6H71V9h-1.3V7.7c0-0.7,0.6-1.3,1.3-1.3s1.3,0.6,1.3,1.3h2.6
	c0-2.1-1.7-3.9-3.9-3.9c-1,0-1.9,0.4-2.6,1c-0.7-0.6-1.6-1-2.6-1c-2.1,0-3.9,1.7-3.9,3.9h2.6C64.5,7,65.1,6.5,65.8,6.5z"/>
<path class="st0" d="M71,18.1c-2.1,0-3.9,1.7-3.9,3.9h2.6c0-0.7,0.6-1.3,1.3-1.3s1.3,0.6,1.3,1.3v1.3H71v2.6h5.2v-2.6h-1.3v-1.3
	c0-0.7,0.6-1.3,1.3-1.3c0.7,0,1.3,0.6,1.3,1.3H80c0-2.1-1.7-3.9-3.9-3.9c-1,0-1.9,0.4-2.6,1C72.9,18.5,72,18.1,71,18.1z"/>
<path class="st0" d="M49,14.2c0.7,0,1.3,0.6,1.3,1.3v1.3H49v2.6h5.2v-2.6h-1.3v-1.3c0-0.7,0.6-1.3,1.3-1.3c0.7,0,1.3,0.6,1.3,1.3
	h2.6c0-2.1-1.7-3.9-3.9-3.9c-1,0-1.9,0.4-2.6,1c-0.7-0.6-1.6-1-2.6-1c-2.1,0-3.9,1.7-3.9,3.9h2.6C47.7,14.8,48.3,14.2,49,14.2z"/>
</svg>
