<?xml version="1.0" encoding="utf-8"?>
<!-- Generator: Adobe Illustrator 24.0.2, SVG Export Plug-In . SVG Version: 6.00 Build 0)  -->
<svg version="1.1" id="Capa_1" xmlns="http://www.w3.org/2000/svg" xmlns:xlink="http://www.w3.org/1999/xlink" x="0px" y="0px"
	 width="81.7px" height="80px" viewBox="0 0 81.7 80" style="enable-background:new 0 0 81.7 80;" xml:space="preserve">
<style type="text/css">
	.st0{fill:#CEA809;}
</style>
<g>
	<g>
		<g>
			<g>
				<path class="st0" d="M17.4,79.6c-2.9,0-5.2-2.3-5.2-5.2V57.2c0-2.1,0.9-4.1,2.5-5.5l1.7-1.4l4.3-10c0.8-2,2.8-3.2,4.9-3.3H57
					c2.1,0,4,1.3,4.9,3.3l4.3,10v0.1l0.1,0.2l1,1c1.4,1.4,2.2,3.3,2.2,5.2v17.6c0,2.9-2.3,5.2-5.2,5.2h-3.3c-2.9,0-5.2-2.3-5.2-5.2
					V72h-30v2.4c0,2.9-2.3,5.2-5.2,5.2H17.4z M63.9,76.9l0.4,0c1.4,0,2.5-1.1,2.5-2.5v-2.9l-0.5,0.2c-0.6,0.2-1.2,0.3-1.8,0.3
					l-5.9,0v2.4c0,0.7,0.3,1.3,0.7,1.8s1.1,0.7,1.7,0.7L63.9,76.9L63.9,76.9z M14.9,74.4c0,1.4,1.1,2.5,2.5,2.5h3.3
					c1.4,0,2.5-1.1,2.5-2.5V72l-5.9,0c-0.6,0-1.2-0.1-1.8-0.3l-0.5-0.2V74.4z M16.5,53.9c-1,0.8-1.6,2.1-1.6,3.4v9.6
					c0,1.4,1.1,2.4,2.4,2.4l47,0c1.3,0,2.3-0.9,2.5-2h0l0-0.4V56.8c0-1.2-0.5-2.4-1.4-3.2l-1.3-1.3H18.3L16.5,53.9z M52,42.4
					c4,0,7.5,2.9,8.3,6.8l0.1,0.3h2.4l-3.5-8.2c-0.4-0.9-1.3-1.6-2.4-1.6H25.6c-1.1,0-2,0.7-2.4,1.6l-3.5,8.2h23.9l0.1-0.3
					c0.7-3.4,3.3-6,6.7-6.7C50.9,42.5,51.4,42.4,52,42.4z M52,45.1c-2.5,0-4.7,1.6-5.5,3.9l-0.2,0.5h11.3L57.5,49
					c-0.6-1.7-1.9-3-3.6-3.6C53.3,45.2,52.7,45.1,52,45.1z"/>
			</g>
		</g>
	</g>
</g>
<g>
	<g>
		<g>
			<g>
				<path class="st0" d="M19.2,66c-0.8,0-1.4-0.6-1.4-1.4v-6.3c0-0.8,0.6-1.4,1.4-1.4h9.2c0.8,0,1.4,0.6,1.4,1.4v6.3
					c0,0.8-0.6,1.4-1.4,1.4H19.2z M20.6,63.3H27v-3.6h-6.4V63.3z"/>
			</g>
		</g>
	</g>
</g>
<g>
	<g>
		<g>
			<g>
				<path class="st0" d="M53.4,66c-0.8,0-1.4-0.6-1.4-1.4v-6.3c0-0.8,0.6-1.4,1.4-1.4h9.2c0.8,0,1.4,0.6,1.4,1.4v6.3
					c0,0.8-0.6,1.4-1.4,1.4H53.4z M54.7,63.3h6.4v-3.6h-6.4V63.3z"/>
			</g>
		</g>
	</g>
</g>
<g>
	<g>
		<g>
			<g>
				<path class="st0" d="M35,65.7c-0.8,0-1.4-0.6-1.4-1.4s0.6-1.4,1.4-1.4h11.8c0.8,0,1.4,0.6,1.4,1.4s-0.6,1.4-1.4,1.4H35z"/>
			</g>
		</g>
	</g>
</g>
<g>
	<g>
		<g>
			<g>
				<path class="st0" d="M35,60.9c-0.8,0-1.4-0.6-1.4-1.4s0.6-1.4,1.4-1.4h11.8c0.8,0,1.4,0.6,1.4,1.4s-0.6,1.4-1.4,1.4H35z"/>
			</g>
		</g>
	</g>
</g>
<g>
	<g>
		<g>
			<g>
				<path class="st0" d="M74.4,79.6c-0.8,0-1.4-0.6-1.4-1.3V23.4H8.7v54.9c0,0.7-0.7,1.3-1.4,1.3H1.8c-0.8,0-1.4-0.6-1.4-1.3V1.7
					C0.4,1,1,0.4,1.8,0.4h78.2c0.4,0,0.7,0.1,1,0.4c0.2,0.2,0.4,0.6,0.4,0.9v76.5c0,0.7-0.6,1.3-1.4,1.3L74.4,79.6z M75.7,76.9h2.9
					V3.1h-2.9V76.9z M3.1,76.9H6V3.1H3.1V76.9z M8.8,20.7H73V3.1H8.8V20.7z"/>
			</g>
		</g>
	</g>
</g>
</svg>
