<?xml version="1.0" encoding="utf-8"?>
<!-- Generator: Adobe Illustrator 24.0.2, SVG Export Plug-In . SVG Version: 6.00 Build 0)  -->
<svg version="1.1" id="Layer_1" xmlns="http://www.w3.org/2000/svg" xmlns:xlink="http://www.w3.org/1999/xlink" x="0px" y="0px"
	 width="63px" height="79.4px" viewBox="0 0 63 79.4" style="enable-background:new 0 0 63 79.4;" xml:space="preserve">
<style type="text/css">
	.st0{fill:#CEA809;}
</style>
<g>
	<g>
		<g>
			<path class="st0" d="M46.8,79.4c-0.3,0-0.7-0.1-0.9-0.4c-0.2-0.2-0.4-0.6-0.4-0.9l0-5.9l0-10.5l-0.8-0.4
				c-0.2-0.1-0.3-0.1-0.4-0.2l-3-1.7l-2.4,4.9c-0.5,1-1.1,1.9-2.9,2.5l-12.5,4.3l0,0.2c0.1,2.4-1.8,5.1-4.7,6.7
				c-0.2,0.1-0.4,0.2-0.6,0.2c-0.2,0-0.3,0-0.4-0.1c-0.4-0.1-0.6-0.4-0.8-0.8l-4.7-12.6c-0.1-0.3-0.1-0.7,0-1
				c0.1-0.3,0.4-0.5,0.7-0.7l5.4-2l8.7-2.9l0.4-2h-8.7c-0.7,0-1.3-0.6-1.3-1.3c0-0.7,0.6-1.3,1.3-1.3h9.2l1.3-6.7L28,39.1l-1.4,0.5
				l0,5.8c0,2.7-2.2,4.9-4.9,4.9c-2.7,0-4.9-2.2-4.9-4.9v-4.9H7.5c-0.7,0-1.3-0.6-1.3-1.3c0-0.7,0.6-1.3,1.3-1.3h9.3v-2
				c0.1-2.1,1.4-3.8,3.3-4.5l9.3-3.2l2.4-3.4l-0.2-0.2c-1.6-1.2-2.9-2.9-3.9-5l0-0.1c-3.8-11.7,2.1-15.8,6-17.2
				c1.4-0.5,2.8-0.5,4-0.5l1.5,0c2.2,0,4.5-0.1,7.7-1.7C47,0,47.2,0,47.4,0c0.5,0,0.9,0.3,1.1,0.7c1.5,2.8,1,4.9,0.3,6.2
				c-0.3,0.5-0.7,1-1.2,1.5l-0.2,0.2l0.1,0.2c1.3,1.9,2,4.1,2,6.4c0,3.8-2.1,7.4-5.5,9.6l-0.3,0.2l3.7,5.8l3.1,0l3.4-5
				c0.7-1.1,1.9-1.8,3.1-2c0.3-0.1,0.6-0.1,0.9-0.1c1,0,1.9,0.3,2.8,0.9c1.1,0.7,1.8,1.9,2,3.2c0.2,1.3-0.1,2.6-0.8,3.6l-5.3,7.5
				c-1.4,2-2.6,2-4.4,2l-4.3,0l0,5.7l6.9,6.8c1.3,1.3,1.3,2.2,1.3,3.6l0,3c0,0.7-0.6,1.3-1.3,1.3c-0.7,0-1.3-0.6-1.3-1.3l0-3
				c0-1.1,0-1.3-0.5-1.8l-6.9-6.8H32.5l0.2,0.4c1.5,3.8,5.5,6,7.9,7.3c0.3,0.2,0.7,0.4,1,0.5l5.9,3.3c0.4,0.2,0.7,0.7,0.7,1.1l0,10
				H55c1.8,0,4.7,1.3,6.1,3.3c1,1.3,1.3,2.8,0.8,4.3c-0.2,0.5-0.7,0.9-1.2,0.9H46.8z M48.1,76.8h11.5l-0.2-0.4
				c-0.1-0.2-0.2-0.5-0.4-0.7c-1-1.4-3.2-2.3-4.1-2.3h-6.9L48.1,76.8z M15.4,65.2l3.7,9.9l0.3-0.3c1.5-1.4,2-3,1.7-3.8L18.5,64
				L15.4,65.2z M29.8,59.5c-0.1,0.5-0.4,0.8-0.8,1l-8.1,2.7l2.1,5.6l12.4-4.3c0.9-0.3,1.1-0.6,1.4-1.2l2.4-5L39,58
				c-1.8-1-5.1-2.8-7.3-5.8l-0.4-0.6L29.8,59.5z M31.2,30.5c-0.3,0-0.5,0-0.7,0.1L21,33.9c-0.9,0.3-1.5,1.2-1.6,2.1v3.1
				c0,0.1,0,0.1,0,0.2s0,0.1,0,0.1l0,6.1c0,1.3,1.1,2.3,2.4,2.3c1.3,0,2.3-1.1,2.3-2.4l0-6.7c0-0.5,0.3-1,0.9-1.2l7-2.4
				c1.2-0.4,1.9-1.8,1.5-3C33.1,31.2,32.2,30.5,31.2,30.5z M32.7,28.2l0.4,0.1c1.3,0.5,2.4,1.6,2.8,3c0.9,2.6-0.5,5.4-3,6.2
				l-2.3,0.8l1.5,7.4h13.6l0-13.4l-4-6.3l-0.2,0.1c-1,0.3-2.1,0.5-3.1,0.5c-1.4,0-2.7-0.2-3.9-0.6L34.2,26L32.7,28.2z M48.1,38.3
				l4.3,0c1.6,0,1.7,0,2.3-0.9l5.3-7.5c0.3-0.5,0.5-1.1,0.4-1.7c-0.1-0.6-0.5-1.2-1-1.5c-0.4-0.3-0.8-0.4-1.3-0.4
				c-0.1,0-0.3,0-0.4,0c-0.6,0.1-1.1,0.5-1.5,1l-3.8,5.5c-0.2,0.3-0.6,0.6-1,0.6l-3.2,0L48.1,38.3z M45.2,10.1c-3,1.5-6.7,1.9-7.7,2
				c-4,0.3-6.4,5.3-7.1,6.9l-0.1,0.1l0.1,0.1c0.9,1.9,2.2,3.2,3.8,4c0.1,0,0.1,0,0.1,0.1c1.1,0.5,2.5,0.8,3.9,0.8
				c4.1,0,8.8-3.9,8.8-8.9c0-1.8-0.5-3.5-1.5-5L45.4,10L45.2,10.1z M37.7,4.4c-1.3,0-2.2,0.1-3.1,0.4c-2.6,0.9-4.3,2.5-5.1,4.7
				c-0.5,1.4-0.6,3.2-0.3,5.2l0.1,0.8l0.4-0.7c1.5-2.2,4-4.9,7.5-5.2c3.6-0.3,8.1-1.6,9.4-3.9C47,5,47.1,4.2,46.9,3.3L46.8,3
				l-0.3,0.1c-2.8,1.1-5.2,1.3-7.3,1.3L37.7,4.4z"/>
		</g>
		<g>
			<path class="st0" d="M13.2,56.2c-0.7,0-1.3-0.6-1.3-1.3c0-0.7,0.6-1.3,1.3-1.3c0.7,0,1.3,0.6,1.3,1.3
				C14.5,55.6,13.9,56.2,13.2,56.2L13.2,56.2z"/>
		</g>
		<g>
			<path class="st0" d="M1.3,40.6C0.6,40.6,0,40,0,39.3C0,38.6,0.6,38,1.3,38c0.7,0,1.3,0.6,1.3,1.3C2.6,40,2,40.6,1.3,40.6
				L1.3,40.6z"/>
		</g>
		<g>
			<path class="st0" d="M55,67.2c-0.7,0-1.3-0.6-1.3-1.3c0-0.7,0.6-1.3,1.3-1.3s1.3,0.6,1.3,1.3C56.3,66.7,55.7,67.2,55,67.2z"/>
		</g>
	</g>
</g>
</svg>
