<?xml version="1.0" encoding="utf-8"?>
<!-- Generator: Adobe Illustrator 24.0.2, SVG Export Plug-In . SVG Version: 6.00 Build 0)  -->
<svg version="1.1" id="Layer_1" xmlns="http://www.w3.org/2000/svg" xmlns:xlink="http://www.w3.org/1999/xlink" x="0px" y="0px"
	 width="80px" height="80px" viewBox="0 0 80 80" style="enable-background:new 0 0 80 80;" xml:space="preserve">
<style type="text/css">
	.st0{fill:#CEA809;}
</style>
<g id="Page-1">
	<g id="_x30_21---Water-Supply">
		<path id="Shape" class="st0" d="M79.3,65.2c-4.3-4.6-7.3-7-13.5-7.8c-1.9-0.2-3.9-0.1-5.8,0.5v-6h0.4c2.1-0.1,3.7-1.9,3.6-4v-1.3
			c0-1.7-1-3.3-2.7-3.8V36c0-5.2-4.2-9.3-9.3-9.3h-8.1c-1.2-2.5-2.9-4.7-5.2-6.3v-1.7c0-2.4-1.7-4.5-4-5.1V9.3H38
			c2.6,0,4.7-2.1,4.7-4.7S40.6,0,38,0H20.7C18.1,0,16,2.1,16,4.7s2.1,4.7,4.7,4.7H24v4.2c-2.3,0.6-4,2.7-4,5.1v1.7
			c-0.4,0.3-0.8,0.6-1.2,1h-8.1V20c0-2.2-1.8-4-4-4H4c-2.2,0-4,1.8-4,4v26.7c0,2.2,1.8,4,4,4h2.7c2.2,0,4-1.8,4-4v-1.3h8.1
			c3.8,3.3,8.9,4.7,13.9,3.6c4.9-1.1,9.1-4.4,11.2-9H48v2.8c-1.6,0.6-2.7,2.1-2.7,3.8V48c-0.1,2.1,1.5,3.9,3.6,4h0.4v8.1
			c-2.9,0.2-3.7,0.2-4,0.3c-1.5,0.1-2.9,0.9-3.8,2.1c-0.9,1.2-1.2,2.8-0.9,4.2l-10.1-3.5c-1.7-0.7-3.7-0.4-5.2,0.7
			c-1.5,1.2-2.2,3-1.9,4.9c0.3,1.8,1.6,3.4,3.3,4c15.7,5.9,18,7.1,22,7.1h24.6c3.7,0,6.7-3,6.7-6.7v-6.3
			C80,66.4,79.7,65.7,79.3,65.2z M8,46.7C8,47.4,7.4,48,6.7,48H4c-0.7,0-1.3-0.6-1.3-1.3v-4H8V46.7z M8,40H2.7V26.7H8V40z M8,24H2.7
			v-4c0-0.7,0.6-1.3,1.3-1.3h2.7C7.4,18.7,8,19.3,8,20V24z M20.7,6.7c-1.1,0-2-0.9-2-2s0.9-2,2-2H38c1.1,0,2,0.9,2,2s-0.9,2-2,2
			H20.7z M32,9.3v4h-5.3v-4H32z M42.6,35c-0.7,5.8-5.2,10.5-11,11.5c-5.8,1-11.6-1.9-14.2-7.2c-0.3-0.7-1.1-0.9-1.8-0.6
			C15,39,14.7,39.8,15,40.5c0.4,0.8,0.8,1.5,1.3,2.2h-5.7V24h5.7c-0.5,0.7-0.9,1.3-1.3,2.1c-0.3,0.7-0.1,1.5,0.6,1.8
			c0.7,0.3,1.5,0.1,1.8-0.6c1.1-2.1,2.7-3.8,4.6-5.1c0.4-0.2,0.6-0.7,0.6-1.1v-2.4c0-1.5,1.2-2.7,2.7-2.7h8c1.5,0,2.7,1.2,2.7,2.7
			V21c0,0.5,0.2,0.9,0.6,1.1C40.9,24.9,43.2,29.9,42.6,35z M44.8,37.3c0.7-2.6,0.7-5.4,0-8H52c3.7,0,6.7,3,6.7,6.7v6.7h-8V40
			c0-1.5-1.2-2.7-2.7-2.7H44.8z M48,48v-1.3c0-0.7,0.4-1.3,1-1.3h11.4c0.5,0,1,0.6,1,1.3V48c0,0.7-0.4,1.3-1,1.3H49
			C48.4,49.3,48,48.7,48,48z M52,52h5.3v6.8c-1.7,0.5-3.5,0.9-5.3,1.1V52z M77.3,73.3c0,2.2-1.8,4-4,4H48.7c-1.9,0-3.8-0.4-5.5-1.1
			l-15.6-5.8c-0.9-0.3-1.5-1.1-1.6-2c-0.1-0.9,0.2-1.8,0.9-2.4c0.7-0.6,1.7-0.7,2.5-0.3c15.2,5.3,14.2,5,14.5,5c0.4,0,3.2,0,14.3,0
			c0.7,0,1.3-0.6,1.3-1.3c0-0.7-0.6-1.3-1.3-1.3H44.5c-1-0.6-1.5-1.7-1.3-2.8c0.2-1.1,1.1-2,2.2-2.2c0.1,0,5.7-0.3,8-0.7
			c6.3-1,8-2.9,12.1-2.3c5.3,0.7,7.8,2.7,11.9,7c0,0,0,0,0,0V73.3z"/>
		<path id="Shape_1_" class="st0" d="M37.3,34.4c-0.5,3.5-3.2,6.3-6.7,6.9c-0.7,0.1-1.2,0.8-1.1,1.5c0.1,0.7,0.8,1.2,1.5,1.1
			c4.7-0.8,8.3-4.5,8.9-9.2c0.1-0.7-0.4-1.4-1.2-1.5C38,33.1,37.4,33.6,37.3,34.4L37.3,34.4z"/>
	</g>
</g>
</svg>
