<?xml version="1.0" encoding="utf-8"?>
<!-- Generator: Adobe Illustrator 24.0.2, SVG Export Plug-In . SVG Version: 6.00 Build 0)  -->
<svg version="1.1" id="outline" xmlns="http://www.w3.org/2000/svg" xmlns:xlink="http://www.w3.org/1999/xlink" x="0px" y="0px"
	 width="80px" height="80px" viewBox="0 0 80 80" style="enable-background:new 0 0 80 80;" xml:space="preserve">
<style type="text/css">
	.st0{fill:#CEA809;}
</style>
<g>
	<path class="st0" d="M68,79.8c-1.4,0-2.5-1.1-2.5-2.5v-5.5h-9.1c-0.6,0-1.1-0.2-1.5-0.5l-1.8-1.4v7.5c0,1.4-1.1,2.5-2.5,2.5H48
		c-1.4,0-2.5-1.1-2.5-2.5V63.7l-9.9-7.9h-1.1v21.5c0,1.4-1.1,2.5-2.5,2.5h-2.7c-1.4,0-2.5-1.1-2.5-2.5V55.8H14.5v21.5
		c0,1.4-1.1,2.5-2.5,2.5H9.3c-1.4,0-2.5-1.1-2.5-2.5V55.8H2.7c-1.4,0-2.5-1.1-2.5-2.5v-2.7c0-1.4,1.1-2.5,2.5-2.5H5l-0.1-0.3
		c-1.4-3.8-0.6-8.2,1.9-11.3l0-0.1v-8.7H4c-0.4,0-0.7-0.2-0.9-0.5c-0.4-0.5-0.3-1.2,0.2-1.6l15.1-11.3l-0.1-0.2
		c-0.5-0.6-0.8-1.5-0.8-2.3c0-2.1,1.7-3.8,3.8-3.8s3.8,1.7,3.8,3.8c0,0.8-0.3,1.6-0.8,2.3l-0.1,0.2l1.1,0.8l11.8-8.8L37,6.3
		c-0.5-0.6-0.8-1.5-0.8-2.3c0-2.1,1.7-3.8,3.8-3.8c2.1,0,3.8,1.7,3.8,3.8c0,0.8-0.3,1.6-0.8,2.3l-0.1,0.2l11.8,8.8l1.1-0.8l-0.1-0.2
		c-0.5-0.6-0.8-1.5-0.8-2.3c0-2.1,1.7-3.8,3.8-3.8s3.8,1.7,3.8,3.8c0,0.8-0.3,1.6-0.8,2.3l-0.1,0.2l15.1,11.3
		c0.3,0.2,0.5,0.6,0.5,0.9c0,0.6-0.5,1.1-1.1,1.1h-2.9v36.4h4.2c1.4,0,2.5,1.1,2.5,2.5v2.7c0,1.4-1.1,2.5-2.5,2.5h-4.2v5.5
		c0,1.4-1.1,2.5-2.5,2.5H68z M67.8,77.5h3.1v-5.7h-3.1V77.5z M47.8,77.5h3.1V68l-3.1-2.5V77.5z M29.1,77.5h3.1V55.8h-3.1V77.5z
		 M9.1,77.5h3.1V55.8H9.1V77.5z M30.7,34.5c-5.3,0-9.5,4.3-9.5,9.5c0,5.3,4.3,9.5,9.5,9.5h4.9c0.6,0,1.1,0.2,1.5,0.5l19.3,15.5h21.1
		v-3.1H59.1c-0.6,0-1.1-0.2-1.5-0.5L38.3,50.5h-7.6c-3.6,0-6.5-2.9-6.5-6.5s2.9-6.5,6.5-6.5c3.6,0,6.5,2.9,6.5,6.5
		c0,1.4-0.5,2.8-1.3,3.9l-0.2,0.3h4.6V44C40.2,38.7,35.9,34.5,30.7,34.5z M59.1,64.2h8.4L50.3,50.5h-8.4L59.1,64.2z M39.4,36.1
		c0.7,0.8,1.3,1.7,1.8,2.6l0.1,0.1h12.1c8,0,14.5,6.5,14.5,14.5v8.3l3.1,2.5V53.3c0-9.7-7.9-17.5-17.5-17.5H39.1L39.4,36.1z
		 M53.1,49.9l12.4,9.9v-6.4c0-6.7-5.5-12.2-12.2-12.2h-0.2V49.9z M16,34.5c-5.3,0-9.5,4.3-9.5,9.5c0,5.3,4.3,9.5,9.5,9.5h7.7
		l-0.4-0.4c-0.7-0.5-1.3-1.1-1.8-1.8c-4.1-5.1-3.3-12.5,1.8-16.6l0.4-0.4H16z M2.5,53.5H9l-0.4-0.4c-0.9-0.8-1.7-1.6-2.4-2.6
		l-0.1-0.1H2.5V53.5z M47.8,48.2h3.1v-7.1h-3.1V48.2z M42.2,41.4c0.2,0.9,0.3,1.7,0.3,2.6v4.2h3.1v-7.1h-3.4L42.2,41.4z M30.7,39.8
		c-2.3,0-4.2,1.9-4.2,4.2s1.9,4.2,4.2,4.2c2.3,0,4.2-1.9,4.2-4.2C34.9,41.7,33,39.8,30.7,39.8z M67.8,39.9L67.8,39.9
		c1.1,1.1,2,2.4,2.7,3.6l0.4,0.6V27.8h-3.1V39.9z M53.1,33.5l0.2,0c4.3,0,8.5,1.4,11.9,4l0.3,0.2v-10H53.1V33.5z M9.1,34.4l0.3-0.2
		c0.8-0.5,1.7-1,2.6-1.3l0.1,0v-5H9.1V34.4z M47.8,33.5h3.1V19.8h-3.1V33.5z M34.5,32.8l0.1,0c0.5,0.2,1,0.4,1.4,0.6l9.5,0V19.8
		H34.5V32.8z M29.1,32.2h1.5c0.4,0,0.9,0,1.3,0.1l0.2,0V19.8h-3.1V32.2z M14.5,32.3l0.2,0c0.4,0,0.9-0.1,1.3-0.1h10.9v-4.4H14.5
		V32.3z M53.1,25.5h19.5l-13-9.7h-1.9l-1.2,0.9l1.5,1.1c0.3,0.2,0.5,0.6,0.5,0.9c0,0.6-0.5,1.1-1.1,1.1h-4.2V25.5z M7.4,25.5h19.5
		v-5.7h-4.2c-0.4,0-0.7-0.2-0.9-0.5c-0.2-0.2-0.3-0.5-0.2-0.8c0-0.3,0.2-0.6,0.4-0.7l1.5-1.1l-1.2-0.9h-1.9L7.4,25.5z M26.1,17.5
		h27.9L41,7.8H39L26.1,17.5z M58.7,10.5c-0.8,0-1.5,0.7-1.5,1.5c0,0.8,0.7,1.5,1.5,1.5s1.5-0.7,1.5-1.5
		C60.2,11.2,59.5,10.5,58.7,10.5L58.7,10.5z M21.3,10.5c-0.8,0-1.5,0.7-1.5,1.5c0,0.8,0.7,1.5,1.5,1.5c0.8,0,1.5-0.7,1.5-1.5
		C22.9,11.2,22.2,10.5,21.3,10.5L21.3,10.5z M40,2.5c-0.8,0-1.5,0.7-1.5,1.5c0,0.8,0.7,1.5,1.5,1.5c0.8,0,1.5-0.7,1.5-1.5
		C41.5,3.2,40.8,2.5,40,2.5L40,2.5z"/>
</g>
</svg>
