<?xml version="1.0" encoding="utf-8"?>
<!-- Generator: Adobe Illustrator 24.0.2, SVG Export Plug-In . SVG Version: 6.00 Build 0)  -->
<svg version="1.1" id="Capa_1" xmlns="http://www.w3.org/2000/svg" xmlns:xlink="http://www.w3.org/1999/xlink" x="0px" y="0px"
	 width="63.1px" height="80.6px" viewBox="0 0 63.1 80.6" style="enable-background:new 0 0 63.1 80.6;" xml:space="preserve">
<style type="text/css">
	.st0{fill:#CEA809;}
</style>
<g>
	<g>
		<g>
			<g>
				<path class="st0" d="M2.7,80.6c-1.5,0-2.7-1.2-2.7-2.7v-5c0-1.5,1.2-2.7,2.7-2.7h1.1V31.7c-1.4-0.1-2.5-1.3-2.5-2.7v-2.5
					c0-1.5,1.2-2.7,2.7-2.7h8.6v-2.1h-1.1c-0.5,0-1-0.3-1.2-0.7c-0.3-0.4-0.3-1-0.1-1.4l1.5-2.9h-0.2c-0.5,0-1-0.3-1.2-0.7
					c-0.3-0.4-0.3-1-0.1-1.4l1.5-2.9h-0.2c-0.5,0-1-0.3-1.2-0.7c-0.3-0.4-0.3-1-0.1-1.4l2.5-5C13,4.1,13.4,3.8,14,3.8h1.1V1.5
					c0-0.8,0.6-1.4,1.4-1.4s1.4,0.6,1.4,1.4v2.3H19c0.5,0,1,0.3,1.3,0.8l2.5,5c0.2,0.4,0.2,1-0.1,1.4c-0.3,0.4-0.7,0.7-1.2,0.7h-0.2
					l1.5,2.9c0.2,0.4,0.2,1-0.1,1.4c-0.3,0.4-0.7,0.7-1.2,0.7h-0.2l1.5,2.9c0.2,0.4,0.2,1-0.1,1.4c-0.3,0.4-0.7,0.7-1.2,0.7h-1.1
					v2.1h7.1v-2.1h-1.1c-0.5,0-1-0.3-1.2-0.7c-0.3-0.4-0.3-1-0.1-1.4l1.5-2.9h-0.2c-0.5,0-1-0.3-1.2-0.7c-0.3-0.4-0.3-1-0.1-1.4
					l1.5-2.9h-0.2c-0.5,0-1-0.3-1.2-0.7c-0.3-0.4-0.3-1-0.1-1.4l2.5-5C28,4.1,28.5,3.8,29,3.8h1.1V1.5c0-0.8,0.6-1.4,1.4-1.4
					C32.3,0,33,0.7,33,1.5v2.3H34c0.5,0,1,0.3,1.3,0.8l2.5,5c0.2,0.4,0.2,1-0.1,1.4c-0.3,0.4-0.7,0.7-1.2,0.7h-0.2l1.5,2.9
					c0.2,0.4,0.2,1-0.1,1.4s-0.7,0.7-1.2,0.7h-0.2l1.5,2.9c0.2,0.4,0.2,1-0.1,1.4c-0.3,0.4-0.7,0.7-1.2,0.7h-1.1v2.1h7.1v-2.1h-1.1
					c-0.5,0-1-0.3-1.2-0.7c-0.3-0.4-0.3-1-0.1-1.4l1.5-2.9h-0.2c-0.5,0-1-0.3-1.2-0.7c-0.3-0.4-0.3-1-0.1-1.4l1.5-2.9h-0.2
					c-0.5,0-1-0.3-1.2-0.7c-0.3-0.4-0.3-1-0.1-1.4l2.5-5c0.2-0.5,0.7-0.8,1.3-0.8h1.1V1.5c0-0.8,0.6-1.4,1.4-1.4S48,0.7,48,1.5v2.3
					h1.1c0.5,0,1,0.3,1.3,0.8l2.5,5c0.2,0.4,0.2,1-0.1,1.4c-0.3,0.4-0.7,0.7-1.2,0.7h-0.2l1.5,2.9c0.2,0.4,0.2,1-0.1,1.4
					c-0.3,0.4-0.7,0.7-1.2,0.7h-0.2l1.5,2.9c0.2,0.4,0.2,1-0.1,1.4c-0.3,0.4-0.7,0.7-1.2,0.7h-1.1v2.1h8.6c1.5,0,2.7,1.2,2.7,2.7V29
					c0,1.4-1.1,2.6-2.5,2.7v38.5h1.1c1.5,0,2.7,1.2,2.7,2.7v5c0,1.5-1.2,2.7-2.7,2.7H2.7z M60.2,77.7v-4.6H12.7
					c-0.8,0-1.4-0.6-1.4-1.4s0.6-1.4,1.4-1.4h43.7V31.7h-1.1c-0.8,0-1.4-0.6-1.4-1.4c0-0.8,0.6-1.4,1.4-1.4h3.6v-2.1H4.2v2.1h46.2
					c0.8,0,1.4,0.6,1.4,1.4c0,0.8-0.6,1.4-1.4,1.4H48v1.1c0,0.8-0.6,1.4-1.4,1.4s-1.4-0.6-1.4-1.4v-1.1H33v1.1
					c0,0.8-0.6,1.4-1.4,1.4c-0.8,0-1.4-0.6-1.4-1.4v-1.1H17.9v1.1c0,0.8-0.6,1.4-1.4,1.4s-1.4-0.6-1.4-1.4v-1.1H6.7v38.5h1.1
					c0.8,0,1.4,0.6,1.4,1.4s-0.6,1.4-1.4,1.4H2.9v4.6H60.2z M47.6,23.8v-2.1h-2.1v2.1H47.6z M32.6,23.8v-2.1h-2.1v2.1H32.6z
					 M17.6,23.8v-2.1h-2.1v2.1H17.6z M49.2,18.8l-1.1-2.1h-3.2l-1.1,2.1H49.2z M34.2,18.8l-1.1-2.1h-3.2l-1.1,2.1H34.2z M19.2,18.8
					l-1.1-2.1h-3.2l-1.1,2.1H19.2z M49.2,13.8l-1.1-2.1h-3.2l-1.1,2.1H49.2z M34.2,13.8l-1.1-2.1h-3.2l-1.1,2.1H34.2z M19.2,13.8
					l-1.1-2.1h-3.2l-1.1,2.1H19.2z M49.2,8.8l-1.1-2.1h-3.2l-1.1,2.1H49.2z M34.2,8.8l-1.1-2.1h-3.2l-1.1,2.1H34.2z M19.2,8.8
					l-1.1-2.1h-3.2l-1.1,2.1H19.2z"/>
			</g>
		</g>
	</g>
</g>
<g>
	<g>
		<g>
			<g>
				<path class="st0" d="M19.7,64.3c-0.9,0-1.7-0.5-2.2-1.3c-0.5-0.8-0.5-1.7,0-2.5l11.9-20.6c0.5-0.8,1.3-1.3,2.2-1.3
					c0.9,0,1.7,0.5,2.2,1.3l11.9,20.6c0.5,0.8,0.5,1.7,0,2.5c-0.5,0.8-1.3,1.3-2.2,1.3H19.7z M42.8,61.4L31.5,41.9L20.3,61.4H42.8z"
					/>
			</g>
		</g>
	</g>
</g>
<g>
	<g>
		<g>
			<g>
				<path class="st0" d="M31.5,60c-0.1,0-0.3,0-0.4-0.1c-0.4-0.1-0.7-0.4-0.8-0.7c-0.2-0.3-0.2-0.7-0.1-1.1l1-3.1H30
					c-0.5,0-0.9-0.2-1.2-0.6c-0.3-0.4-0.4-0.8-0.2-1.3l1.6-5c0.2-0.6,0.7-1,1.4-1c0.1,0,0.3,0,0.4,0.1c0.4,0.1,0.7,0.4,0.8,0.7
					s0.2,0.7,0.1,1.1l-1,3.1h1.2c0.5,0,0.9,0.2,1.2,0.6s0.4,0.8,0.2,1.3l-1.6,5C32.7,59.6,32.2,60,31.5,60z"/>
			</g>
		</g>
	</g>
</g>
</svg>
