<?xml version="1.0" encoding="utf-8"?>
<!-- Generator: Adobe Illustrator 24.0.2, SVG Export Plug-In . SVG Version: 6.00 Build 0)  -->
<svg version="1.1" id="Layer_5" xmlns="http://www.w3.org/2000/svg" xmlns:xlink="http://www.w3.org/1999/xlink" x="0px" y="0px"
	 width="80px" height="80px" viewBox="0 0 80 80" style="enable-background:new 0 0 80 80;" xml:space="preserve">
<style type="text/css">
	.st0{fill:#CEA809;}
</style>
<path class="st0" d="M45.6,8l2.2-1.3l1.3,2.2l-2.2,1.3L45.6,8z"/>
<path class="st0" d="M50,5.4L52.2,4l1.3,2.2l-2.2,1.3L50,5.4z"/>
<path class="st0" d="M41.2,10.7l2.2-1.3l1.3,2.2l-2.2,1.3L41.2,10.7z"/>
<path class="st0" d="M12.9,25.1l1.6,1.6C17.3,29.4,21,31,24.9,31c2.5,0,5-0.7,7.2-1.9l1.5-0.8v9.7l6.2-2.1l4.9-13.5L61.9,11V8.4
	c0-4.6-3.8-8.4-8.4-8.4c-1.5,0-3,0.4-4.2,1.2L38.9,7.2L23.1,1.1l-6,4l11.3,8.3l-7.6,4.5l-8.9-7.7l-6.1,2l7.1,11.4L12.9,25.1z
	 M37.7,33.8l-1.6,0.5V24l6.5-3.7L37.7,33.8z M21.6,5.2L23.4,4l12.7,4.9L30.9,12L21.6,5.2z M50.6,3.4c0.9-0.5,1.9-0.8,2.9-0.8
	c3.2,0,5.8,2.6,5.8,5.8v1.2l-14.2,9.3v-3.1l-11.6,6.6v2.8l-2.7,1.6c-1.8,1-3.9,1.6-5.9,1.6c-3.2,0-6.2-1.3-8.5-3.5L15.5,24L50.6,3.4
	z M9.7,13.6l1.6-0.5l7.1,6.2l-3.9,2.3L9.7,13.6z"/>
<path class="st0" d="M68.4,59.4v-7.7h2.2l4.2-12.7v-2.8H49v2.8l4.2,12.7h2.2v7.7H44.8l1.4-7.7h0.2c1.4,0,2.6-1.2,2.6-2.6v-2.6
	c0-1.4-1.2-2.6-2.6-2.6H2.6C1.2,43.9,0,45,0,46.5V49c0,1.4,1.2,2.6,2.6,2.6h0.2L8,80h72V59.4H68.4z M55.1,49l-3.4-10.3h20.5L68.7,49
	h-2.9v-7.7h-7.7V49H55.1z M65.8,51.6v7.7h-7.7v-7.7H65.8z M60.6,49v-5.2h2.6V49H60.6z M2.6,49v-2.6h43.9l0,2.6H2.6z M11.6,77.4h-1.5
	L8,65.8h3.6V77.4z M11.6,63.2H7.5L5.4,51.6h6.2V63.2z M19.4,77.4h-5.2V65.8h5.2V77.4z M19.4,63.2h-5.2V51.6h5.2V63.2z M27.1,77.4
	h-5.2V65.8h5.2V77.4z M27.1,63.2h-5.2V51.6h5.2V63.2z M34.8,77.4h-5.2V65.8h5.2V77.4z M34.8,63.2h-5.2V51.6h5.2V63.2z M38.9,77.4
	h-1.5V65.8H41L38.9,77.4z M37.4,63.2V51.6h6.2l-2.1,11.6H37.4z M51.6,77.4H49v-7.7h2.6V77.4z M61.9,77.4h-2.6v-7.7h2.6V77.4z
	 M72.3,77.4h-2.6v-7.7h2.6V77.4z M77.4,77.4h-2.6V67.1h-7.7v10.3h-2.6V67.1h-7.7v10.3h-2.6V67.1h-7.7v10.3h-4.9l2.8-15.5h33.1V77.4z
	"/>
</svg>
