<?xml version="1.0" encoding="utf-8"?>
<!-- Generator: Adobe Illustrator 24.0.2, SVG Export Plug-In . SVG Version: 6.00 Build 0)  -->
<svg version="1.1" id="Layer_1" xmlns="http://www.w3.org/2000/svg" xmlns:xlink="http://www.w3.org/1999/xlink" x="0px" y="0px"
	 width="80px" height="80px" viewBox="0 0 80 80" style="enable-background:new 0 0 80 80;" xml:space="preserve">
<style type="text/css">
	.st0{fill:#CEA809;}
</style>
<g>
	<g>
		<g>
			<g>
				<g>
					<path class="st0" d="M43.8,23.7c-0.6,0-1.1-0.3-1.3-0.8H32.2c-0.2,0.5-0.7,0.8-1.3,0.8c-0.8,0-1.4-0.6-1.4-1.4
						c0-1.2,1-2.2,2.2-2.2h11.2c1.2,0,2.2,1,2.2,2.2C45.2,23.1,44.6,23.7,43.8,23.7z"/>
				</g>
				<g>
					<path class="st0" d="M31.7,27.9c-1.2,0-2.2-1-2.2-2.2c0-0.8,0.6-1.4,1.4-1.4c0.6,0,1.1,0.3,1.3,0.8h10.3
						c0.2-0.5,0.7-0.8,1.3-0.8c0.8,0,1.4,0.6,1.4,1.4c0,1.2-1,2.2-2.2,2.2H31.7z"/>
				</g>
				<g>
					<path class="st0" d="M45.1,33.8c-0.6,0-1.1-0.3-1.3-0.8H32.2c-0.2,0.5-0.7,0.8-1.3,0.8c-0.8,0-1.4-0.6-1.4-1.4
						c0-1.2,1-2.2,2.2-2.2h12.5c1.2,0,2.2,1,2.2,2.2C46.4,33.2,45.8,33.8,45.1,33.8z"/>
				</g>
				<g>
					<path class="st0" d="M31.7,38c-1.2,0-2.2-1-2.2-2.2c0-0.8,0.6-1.4,1.4-1.4c0.6,0,1.1,0.3,1.3,0.8h11.6c0.2-0.5,0.7-0.8,1.3-0.8
						c0.8,0,1.4,0.6,1.4,1.4c0,1.2-1,2.2-2.2,2.2H31.7z"/>
				</g>
				<g>
					<path class="st0" d="M11.4,14.4c-2.6,0-4.8-2.1-4.8-4.8c0-0.8,0.6-1.4,1.4-1.4s1.4,0.6,1.4,1.4c0,1.1,0.9,2,2,2h6.7
						c1.1,0,2-0.9,2-2s-0.9-2-2-2h-1.7c-0.8,0-1.4-0.6-1.4-1.4c0-1.1-0.9-2-2-2H4.6c-1.1,0-2,0.9-2,2s0.9,2,2,2C5.4,8.3,6,8.9,6,9.7
						s-0.6,1.4-1.4,1.4c-2.6,0-4.8-2.1-4.8-4.8S2,1.6,4.6,1.6h8.4c2.1,0,3.9,1.4,4.6,3.4h0.5c2.6,0,4.8,2.1,4.8,4.8
						s-2.1,4.8-4.8,4.8H11.4z"/>
				</g>
				<g>
					<path class="st0" d="M1.3,80.1c-0.8,0-1.4-0.6-1.4-1.4c0-0.8,0.6-1.4,1.4-1.4h77.5c0.8,0,1.4,0.6,1.4,1.4
						c0,0.8-0.6,1.4-1.4,1.4H1.3z"/>
				</g>
				<g>
					<path class="st0" d="M1.3,70.9c-0.8,0-1.4-0.6-1.4-1.4c0-0.8,0.6-1.4,1.4-1.4h18.5c0.8,0,1.4,0.6,1.4,1.4
						c0,0.8-0.6,1.4-1.4,1.4H1.3z"/>
				</g>
				<g>
					<path class="st0" d="M55.2,38.9c-0.8,0-1.4-0.6-1.4-1.4v-6.6c0-0.8,0.6-1.4,1.4-1.4h5.1c0.8,0,1.4,0.6,1.4,1.4v6.6
						c0,0.8-0.6,1.4-1.4,1.4H55.2z M58.8,36.1v-3.8h-2.3v3.8H58.8z"/>
				</g>
				<g>
					<path class="st0" d="M66.9,38.9c-0.8,0-1.4-0.6-1.4-1.4v-6.6c0-0.8,0.6-1.4,1.4-1.4H72c0.8,0,1.4,0.6,1.4,1.4v6.6
						c0,0.8-0.6,1.4-1.4,1.4H66.9z M70.6,36.1v-3.8h-2.3v3.8H70.6z"/>
				</g>
				<g>
					<path class="st0" d="M63.6,18.8c-2.2,0-3.9-1.8-3.9-3.9s1.8-3.9,3.9-3.9s3.9,1.8,3.9,3.9S65.7,18.8,63.6,18.8z M63.6,13.8
						c-0.6,0-1.1,0.5-1.1,1.1S63,16,63.6,16s1.1-0.5,1.1-1.1S64.2,13.8,63.6,13.8z"/>
				</g>
				<g>
					<path class="st0" d="M43.8,43.9c-0.6,0-1.1-0.3-1.3-0.8H32.2c-0.2,0.5-0.7,0.8-1.3,0.8c-0.8,0-1.4-0.6-1.4-1.4
						c0-1.2,1-2.2,2.2-2.2h11.2c1.2,0,2.2,1,2.2,2.2C45.2,43.3,44.6,43.9,43.8,43.9z"/>
				</g>
				<g>
					<path class="st0" d="M46.7,61.6c-0.8,0-1.4-0.6-1.4-1.4c0-0.8,0.6-1.4,1.4-1.4h2V48.1c-1-0.3-1.7-1.1-1.7-2.2v-3.4
						c0-1,0.7-1.9,1.7-2.2V27.9c-1-0.3-1.7-1.1-1.7-2.2v-3.4c0-1,0.7-1.9,1.7-2.2v-5.7H27.9v30.6c0,0.8-0.6,1.4-1.4,1.4
						s-1.4-0.6-1.4-1.4V22.9h-2.3v7.9c0,1.2-1,2.2-2.2,2.2h-3.4C16,33,15,32,15,30.7v-7.9h-3.9v10.7c2.9,0.3,5.2,2.5,5.6,5.4
						l0.8,5.9c0.1,0.8-0.4,1.5-1.2,1.6c-0.1,0-0.1,0-0.2,0c-0.7,0-1.3-0.5-1.4-1.2l-0.8-5.9c-0.2-1.7-1.7-3-3.4-3
						c-1.7,0-3.2,1.3-3.4,3L5.1,55c-0.1,1,0.2,2,0.8,2.7c0.6,0.7,1.6,1.2,2.6,1.2h4.8c-1-1.3-1.6-2.9-1.6-4.5c0-4,3.3-7.3,7.3-7.3
						H24c4,0,7.3,3.3,7.3,7.3c0,1.6-0.6,3.2-1.6,4.5h11.9c0.8,0,1.4,0.6,1.4,1.4c0,0.8-0.6,1.4-1.4,1.4H24c-0.8,0-1.4-0.6-1.4-1.4
						c0-0.8,0.6-1.4,1.4-1.4c2.5,0,4.5-2,4.5-4.5c0-2.5-2-4.5-4.5-4.5h-5.1c-2.5,0-4.5,2-4.5,4.5c0,2.5,2,4.5,4.5,4.5
						c0.8,0,1.4,0.6,1.4,1.4c0,0.8-0.6,1.4-1.4,1.4H1.3c-0.8,0-1.4-0.6-1.4-1.4c0-0.8,0.6-1.4,1.4-1.4h2c-0.8-1.2-1.2-2.7-1-4.2
						l2.1-15.6c0.3-2.2,1.8-4.1,3.9-5V21.5c0-0.8,0.6-1.4,1.4-1.4H15v-1.1c0-1.2,1-2.2,2.2-2.2h3.4c1.2,0,2.2,1,2.2,2.2v1.1h2.3
						v-6.2c0-1.2,1-2.2,2.2-2.2h2.8V9.4h-2.8c-1.2,0-2.2-1-2.2-2.2V2.1c0-1.2,1-2.2,2.2-2.2h21.9c1.2,0,2.2,1,2.2,2.2v5.1
						c0,1.2-1,2.2-2.2,2.2h-2.8v2.3h2.8c0.7,0,1.3,0.3,1.8,0.9l11.4-7.1c0.4-0.2,0.8-0.3,1.2-0.3c0.4,0,0.8,0.1,1.2,0.3l12.6,7.9
						c0.7,0.4,1.1,1.1,1.1,1.9v4.9c1,0.3,1.7,1.1,1.7,2.2v3.4c0,1-0.7,1.9-1.7,2.2v12.5c1,0.3,1.7,1.1,1.7,2.2v3.4
						c0,1-0.7,1.9-1.7,2.2v10.8h0.3c0.8,0,1.4,0.6,1.4,1.4c0,0.8-0.6,1.4-1.4,1.4H46.7z M75.7,58.8V48.1H70v10.7H75.7z M67.2,58.8
						V48.1h-0.3c-0.8,0-1.4-0.6-1.4-1.4c0-0.8,0.6-1.4,1.4-1.4h10.4v-2.3H49.8v2.3h12.1c0.8,0,1.4,0.6,1.4,1.4
						c0,0.8-0.6,1.4-1.4,1.4h-2v10.7H67.2z M57.1,58.8V48.1h-5.6v10.7H57.1z M75.7,40.3V27.9h-2c-0.8,0-1.4-0.6-1.4-1.4
						c0-0.8,0.6-1.4,1.4-1.4h3.7v-2.3H49.8v2.3h18.8c0.8,0,1.4,0.6,1.4,1.4c0,0.8-0.6,1.4-1.4,1.4H51.5v12.4H75.7z M20.1,30.2V19.5
						h-2.3v10.7H20.1z M75.7,20.1v-4.6L63.6,8l-12.1,7.5v4.6H75.7z M43.7,11.7V9.4H33v2.3H43.7z M27.9,6.6l20.8,0V2.7H27.9V6.6z"/>
				</g>
				<g>
					<path class="st0" d="M31.7,48.1c-1.2,0-2.2-1-2.2-2.2c0-0.8,0.6-1.4,1.4-1.4c0.6,0,1.1,0.3,1.3,0.8h10.3
						c0.2-0.5,0.7-0.8,1.3-0.8c0.8,0,1.4,0.6,1.4,1.4c0,1.2-1,2.2-2.2,2.2H31.7z"/>
				</g>
				<g>
					<path class="st0" d="M30.7,70.9c-0.8,0-1.4-0.6-1.4-1.4c0-0.8,0.6-1.4,1.4-1.4h18.5c0.8,0,1.4,0.6,1.4,1.4
						c0,0.8-0.6,1.4-1.4,1.4H30.7z"/>
				</g>
				<g>
					<path class="st0" d="M60.2,70.9c-0.8,0-1.4-0.6-1.4-1.4c0-0.8,0.6-1.4,1.4-1.4h18.5c0.8,0,1.4,0.6,1.4,1.4
						c0,0.8-0.6,1.4-1.4,1.4H60.2z"/>
				</g>
			</g>
		</g>
	</g>
</g>
</svg>
