<?xml version="1.0" encoding="utf-8"?>
<!-- Generator: Adobe Illustrator 24.0.2, SVG Export Plug-In . SVG Version: 6.00 Build 0)  -->
<svg version="1.1" id="line_icons" xmlns="http://www.w3.org/2000/svg" xmlns:xlink="http://www.w3.org/1999/xlink" x="0px" y="0px"
	 width="78.9px" height="80.6px" viewBox="0 0 78.9 80.6" style="enable-background:new 0 0 78.9 80.6;" xml:space="preserve">
<style type="text/css">
	.st0{fill:#CEA809;}
</style>
<g>
	<path class="st0" d="M49.6,41.7c-0.8,0-1.4-0.6-1.4-1.4v-8.5c0-0.3,0.1-0.5,0.2-0.8c3.1-4.9,1.6-11.3-3.3-14.4
		c-1.7-1.1-3.6-1.6-5.6-1.6c-3.6,0-6.9,1.8-8.8,4.9c-2.1,3.4-2.1,7.7,0,11.1c0.1,0.2,0.2,0.5,0.2,0.8v8.5c0,0.8-0.6,1.4-1.4,1.4
		c-0.3,0-0.6-0.1-0.8-0.3c-4.3-2.9-7.2-7.3-8.1-12.4c-1-5.1,0.1-10.2,3-14.5c3.6-5.3,9.6-8.5,16-8.5c3.9,0,7.6,1.2,10.9,3.3
		c4.3,2.9,7.2,7.3,8.1,12.4s-0.1,10.2-3,14.5c-1.4,2-3.1,3.8-5.1,5.1C50.2,41.6,49.9,41.7,49.6,41.7z M51.1,37.2
		c6.3-6.1,6.7-16.2,0.8-22.8C48.7,11,44.2,9,39.6,9c-4.1,0-8,1.5-11,4.2c-6.8,6.1-7.3,16.5-1.3,23.3c0.2,0.3,0.5,0.5,0.8,0.8v-5
		c-1.8-3-2.3-6.6-1.4-10c0.9-3.4,3-6.4,6.1-8.2c2.1-1.2,4.4-1.9,6.8-1.9c4.7,0,9.1,2.5,11.5,6.5c2.5,4.2,2.5,9.4,0,13.5V37.2z"/>
</g>
<g>
	<path class="st0" d="M49.6,50.9c-0.8,0-1.4-0.6-1.4-1.4s0.6-1.4,1.4-1.4h9c1.8,0,3.4-1.5,3.4-3.3V6.2c0-1.8-1.5-3.3-3.4-3.3H20.3
		c-1.8,0-3.4,1.5-3.4,3.3v38.4c0,1.8,1.5,3.3,3.4,3.3h9.3c0.8,0,1.4,0.6,1.4,1.4s-0.6,1.4-1.4,1.4h-9.3c-3.4,0-6.2-2.8-6.2-6.2V6.2
		C14,2.8,16.8,0,20.3,0h38.4c3.4,0,6.2,2.8,6.2,6.2v38.4c0,3.4-2.8,6.2-6.2,6.2H49.6z"/>
</g>
<g>
	<path class="st0" d="M14.1,61.1l-0.3,0c-2.3,0-4.6-0.6-6.6-1.7C5.5,58.5,3.6,58,1.7,58l-0.3,0c-0.8,0-1.5-0.6-1.5-1.4
		s0.6-1.4,1.4-1.4l0.3,0c2.3,0,4.6,0.6,6.6,1.7c1.7,0.9,3.5,1.4,5.4,1.4l0.3,0l0.3,0c1.9,0,3.7-0.5,5.4-1.4c2-1.1,4.3-1.7,6.6-1.7
		l0.5,0c1,0,1.9,0.1,2.9,0.2c0.4,0.1,0.7,0.3,0.9,0.6s0.3,0.7,0.2,1.1c-0.1,0.7-0.7,1.2-1.4,1.2c-0.1,0-0.2,0-0.3,0
		c-0.8-0.1-1.6-0.2-2.3-0.2l-0.4,0c-1.9,0-3.7,0.5-5.4,1.4c-2,1.1-4.3,1.7-6.6,1.7L14.1,61.1z"/>
</g>
<g>
	<path class="st0" d="M64.5,61.1c-2.3,0-4.6-0.6-6.6-1.7c-1.7-0.9-3.5-1.4-5.4-1.4l-0.4,0c-0.7,0-1.5,0.1-2.2,0.2
		c-0.1,0-0.2,0-0.2,0c-0.7,0-1.3-0.5-1.4-1.2c-0.1-0.8,0.4-1.5,1.2-1.7c0.9-0.1,1.7-0.2,2.6-0.2l0.5,0c2.3,0,4.6,0.6,6.6,1.7
		c1.8,0.9,3.7,1.4,5.7,1.4s3.9-0.5,5.7-1.4c2-1.1,4.3-1.6,6.6-1.6l0.3,0c0.8,0,1.4,0.6,1.4,1.4s-0.6,1.4-1.4,1.4l-0.3,0
		c-1.9,0-3.7,0.5-5.4,1.4c-2,1.1-4.3,1.7-6.6,1.7l-0.3,0L64.5,61.1z"/>
</g>
<g>
	<path class="st0" d="M39.1,70.8c-2.3,0-4.6-0.6-6.6-1.7c-1.7-0.9-3.5-1.4-5.4-1.4l-0.3,0l-0.3,0c-1.9,0-3.7,0.5-5.4,1.4
		c-2,1.1-4.3,1.7-6.6,1.7l-0.3,0l-0.3,0c-2.3,0-4.6-0.6-6.6-1.7c-1.7-0.9-3.5-1.4-5.4-1.4l-0.3,0c-0.8,0-1.5-0.6-1.5-1.4
		s0.6-1.4,1.4-1.4l0.3,0c2.3,0,4.6,0.6,6.6,1.7c1.7,0.9,3.5,1.4,5.4,1.4l0.3,0l0.3,0c1.9,0,3.8-0.5,5.4-1.4c2-1.1,4.3-1.7,6.6-1.7
		l0.3,0l0.3,0c2.3,0,4.6,0.6,6.6,1.7c1.7,0.9,3.5,1.4,5.4,1.4l0.3,0l0.3,0c1.9,0,3.8-0.5,5.4-1.4c2-1.1,4.3-1.7,6.6-1.7l0.3,0l0.3,0
		c2.3,0,4.6,0.6,6.6,1.7c1.8,0.9,3.7,1.4,5.7,1.4c2,0,3.9-0.5,5.7-1.4c2-1.1,4.3-1.7,6.6-1.7l0.3,0c0.8,0,1.4,0.6,1.4,1.4
		s-0.6,1.4-1.4,1.4l-0.3,0c-1.9,0-3.7,0.5-5.4,1.4c-2,1.1-4.3,1.7-6.6,1.7l-0.3,0l-0.3,0c-2.3,0-4.6-0.6-6.6-1.7
		c-1.7-0.9-3.5-1.4-5.4-1.4l-0.3,0l-0.3,0c-1.9,0-3.7,0.5-5.4,1.4c-2,1.1-4.3,1.7-6.6,1.7l-0.3,0L39.1,70.8z"/>
</g>
<g>
	<path class="st0" d="M64.8,80.6l-0.3,0c-2.3,0-4.6-0.6-6.6-1.7c-1.7-0.9-3.5-1.4-5.4-1.4l-0.3,0l-0.3,0c-1.9,0-3.7,0.5-5.4,1.4
		c-2,1.1-4.3,1.7-6.6,1.7l-0.3,0l-0.3,0c-2.3,0-4.6-0.6-6.6-1.7c-1.7-0.9-3.5-1.4-5.4-1.4l-0.3,0l-0.3,0c-1.9,0-3.7,0.5-5.4,1.4
		c-2,1.1-4.3,1.7-6.6,1.7l-0.3,0l-0.3,0c-2.3,0-4.6-0.6-6.6-1.7c-1.7-0.9-3.5-1.4-5.4-1.4l-0.3,0c-0.8,0-1.5-0.6-1.5-1.4
		s0.6-1.4,1.4-1.4l0.3,0c2.3,0,4.6,0.6,6.6,1.7c1.7,0.9,3.5,1.4,5.4,1.4l0.3,0l0.3,0c1.9,0,3.7-0.5,5.4-1.4c2-1.1,4.3-1.7,6.6-1.7
		l0.3,0l0.3,0c2.3,0,4.6,0.6,6.6,1.7c1.7,0.9,3.5,1.4,5.4,1.4l0.3,0l0.3,0c1.9,0,3.7-0.5,5.4-1.4c2-1.1,4.3-1.7,6.6-1.7l0.3,0l0.3,0
		c2.3,0,4.6,0.6,6.6,1.7c1.8,0.9,3.7,1.4,5.7,1.4c2,0,3.9-0.5,5.7-1.4c2-1.1,4.3-1.7,6.6-1.7l0.3,0c0.8,0,1.4,0.6,1.4,1.4
		s-0.6,1.4-1.4,1.4l-0.3,0c-1.9,0-3.7,0.5-5.4,1.4c-2,1.1-4.3,1.7-6.6,1.7L64.8,80.6z"/>
</g>
<g>
	<path class="st0" d="M49.6,62.3c-0.8,0-1.4-0.6-1.4-1.4V31.1c0-0.7-0.6-1.3-1.3-1.3H32.2c-0.7,0-1.3,0.6-1.3,1.3v29.7
		c0,0.8-0.6,1.4-1.4,1.4c-0.8,0-1.4-0.6-1.4-1.4V31.1c0-2.3,1.9-4.1,4.1-4.2h14.7c2.3,0,4.1,1.9,4.1,4.2v29.7
		C51.1,61.6,50.4,62.3,49.6,62.3z"/>
</g>
<g>
	<path class="st0" d="M33.9,41.3c-0.8,0-1.4-0.6-1.4-1.4v-1.1c0-0.8,0.6-1.4,1.4-1.4c0.8,0,1.4,0.6,1.4,1.4v1.1
		C35.3,40.6,34.7,41.3,33.9,41.3z"/>
</g>
<g>
	<path class="st0" d="M43.4,45.7c-0.8,0-1.4-0.6-1.4-1.4v-1.1c0-0.8,0.6-1.4,1.4-1.4s1.4,0.6,1.4,1.4v1.1
		C44.8,45.1,44.2,45.7,43.4,45.7z"/>
</g>
<g>
	<path class="st0" d="M44.9,38.7c-0.8,0-1.4-0.6-1.4-1.4v-1.1c0-0.8,0.6-1.4,1.4-1.4s1.4,0.6,1.4,1.4v1.1
		C46.4,38.1,45.7,38.7,44.9,38.7z"/>
</g>
<g>
	<path class="st0" d="M38.9,35.9c-0.8,0-1.4-0.6-1.4-1.4v-1.1c0-0.8,0.6-1.4,1.4-1.4c0.8,0,1.4,0.6,1.4,1.4v1.1
		C40.3,35.2,39.7,35.9,38.9,35.9z"/>
</g>
<g>
	<path class="st0" d="M37.6,46.3c-0.8,0-1.4-0.6-1.4-1.4v-1.1c0-0.8,0.6-1.4,1.4-1.4c0.8,0,1.4,0.6,1.4,1.4v1.1
		C39,45.6,38.4,46.3,37.6,46.3z"/>
</g>
<g>
	<path class="st0" d="M35.1,52.7c-0.8,0-1.4-0.6-1.4-1.4v-1.1c0-0.8,0.6-1.4,1.4-1.4c0.8,0,1.4,0.6,1.4,1.4v1.1
		C36.6,52.1,35.9,52.7,35.1,52.7z"/>
</g>
<g>
	<path class="st0" d="M44.2,54.3c-0.8,0-1.4-0.6-1.4-1.4v-1.1c0-0.8,0.6-1.4,1.4-1.4s1.4,0.6,1.4,1.4v1.1
		C45.6,53.7,45,54.3,44.2,54.3z"/>
</g>
<g>
	<path class="st0" d="M38.3,59.6c-0.8,0-1.4-0.6-1.4-1.4V57c0-0.8,0.6-1.4,1.4-1.4c0.8,0,1.4,0.6,1.4,1.4v1.1
		C39.7,58.9,39.1,59.6,38.3,59.6z"/>
</g>
</svg>
