<?xml version="1.0" encoding="utf-8"?>
<!-- Generator: Adobe Illustrator 24.0.2, SVG Export Plug-In . SVG Version: 6.00 Build 0)  -->
<svg version="1.1" id="Capa_1" xmlns="http://www.w3.org/2000/svg" xmlns:xlink="http://www.w3.org/1999/xlink" x="0px" y="0px"
	 width="80px" height="80px" viewBox="0 0 80 80" style="enable-background:new 0 0 80 80;" xml:space="preserve">
<style type="text/css">
	.st0{fill:#CEA809;}
</style>
<g>
	<g>
		<g>
			<path class="st0" d="M73.9,0H31.4c-3.5,0.2-6.2,3.2-6.1,6.7v54.7c0,0,0,0,0,0.1c0,0.2,0,0.3,0.1,0.4l0,0l0,0l3.2,7.3
				c0.4,0.9,1.3,1.5,2.3,1.6H32V76c0,0.5,0.1,0.9,0.2,1.3H16v-24c0-2.2-1.8-4-4-4V26.6c5.6-0.7,9.7-5.6,9.3-11.3
				c-0.4-5.6-5-10-10.6-10S0.4,9.7,0,15.3s3.7,10.5,9.3,11.3v22.8c-2.2,0-4,1.8-4,4v24h-4c-0.7,0-1.3,0.6-1.3,1.3S0.6,80,1.3,80
				h77.3c0.7,0,1.3-0.6,1.3-1.3s-0.6-1.3-1.3-1.3h-5.6c0.2-0.4,0.2-0.9,0.2-1.3v-5.3h1.1c1,0,1.9-0.6,2.3-1.5l3.2-7.3l0,0
				c0,0,0,0,0,0c0.1-0.1,0.1-0.3,0.1-0.4c0,0,0,0,0-0.1V6.7C80.2,3.2,77.4,0.2,73.9,0z M2.7,16c0-4.4,3.6-8,8-8s8,3.6,8,8
				s-3.6,8-8,8C6.3,24,2.7,20.4,2.7,16z M13.3,77.3H8v-24C8,52.6,8.6,52,9.3,52H12c0.7,0,1.3,0.6,1.3,1.3V77.3z M40,76
				c0,0.7-0.6,1.3-1.3,1.3H36c-0.7,0-1.3-0.6-1.3-1.3v-5.3H40V76z M42.4,77.3c0.2-0.4,0.2-0.9,0.2-1.3v-5.3h20V76
				c0,0.5,0.1,0.9,0.2,1.3H42.4z M70.7,76c0,0.7-0.6,1.3-1.3,1.3h-2.7c-0.7,0-1.3-0.6-1.3-1.3v-5.3h5.3L70.7,76L70.7,76z M74.3,68
				H31l-2.3-5.3h47.9L74.3,68z M46.7,60v-2.7c0-0.7,0.6-1.3,1.3-1.3h9.3c0.7,0,1.3,0.6,1.3,1.3V60H46.7z M77.3,6.7V60h-16v-2.7
				c0-2.2-1.8-4-4-4H48c-2.2,0-4,1.8-4,4V60H28V6.7c-0.2-2,1.4-3.8,3.4-4h42.5C76,2.8,77.5,4.6,77.3,6.7z"/>
			<path class="st0" d="M70.7,5.3h-36c-2.2,0-4,1.8-4,4v1.3c0,2.2,1.8,4,4,4h36c2.2,0,4-1.8,4-4V9.3C74.7,7.1,72.9,5.3,70.7,5.3z
				 M72,10.7c0,0.7-0.6,1.3-1.3,1.3h-36c-0.7,0-1.3-0.6-1.3-1.3V9.3c0-0.7,0.6-1.3,1.3-1.3h36C71.4,8,72,8.6,72,9.3V10.7z"/>
			<path class="st0" d="M36,46.7c-2.9,0-5.3,2.4-5.3,5.3c0,2.9,2.4,5.3,5.3,5.3c2.9,0,5.3-2.4,5.3-5.3C41.3,49.1,38.9,46.7,36,46.7z
				 M36,54.7c-1.5,0-2.7-1.2-2.7-2.7c0-1.5,1.2-2.7,2.7-2.7c1.5,0,2.7,1.2,2.7,2.7C38.7,53.5,37.5,54.7,36,54.7z"/>
			<path class="st0" d="M69.3,46.7c-2.9,0-5.3,2.4-5.3,5.3c0,2.9,2.4,5.3,5.3,5.3s5.3-2.4,5.3-5.3C74.7,49.1,72.3,46.7,69.3,46.7z
				 M69.3,54.7c-1.5,0-2.7-1.2-2.7-2.7c0-1.5,1.2-2.7,2.7-2.7S72,50.5,72,52C72,53.5,70.8,54.7,69.3,54.7z"/>
			<path class="st0" d="M70.7,17.3h-36c-2.2,0-4,1.8-4,4V40c0,2.2,1.8,4,4,4h36c2.2,0,4-1.8,4-4V21.3C74.7,19.1,72.9,17.3,70.7,17.3
				z M72,40c0,0.7-0.6,1.3-1.3,1.3h-36c-0.7,0-1.3-0.6-1.3-1.3V21.3c0-0.7,0.6-1.3,1.3-1.3h36c0.7,0,1.3,0.6,1.3,1.3V40z"/>
		</g>
	</g>
</g>
</svg>
