<?xml version="1.0" encoding="utf-8"?>
<!-- Generator: Adobe Illustrator 24.0.2, SVG Export Plug-In . SVG Version: 6.00 Build 0)  -->
<svg version="1.1" id="Layer_5" xmlns="http://www.w3.org/2000/svg" xmlns:xlink="http://www.w3.org/1999/xlink" x="0px" y="0px"
	 width="80px" height="80px" viewBox="0 0 80 80" style="enable-background:new 0 0 80 80;" xml:space="preserve">
<style type="text/css">
	.st0{fill:#CEA809;}
</style>
<g>
	<path class="st0" d="M77.4,33.5V23.2h-2.6V9c0-5-4.1-9-9-9s-9,4.1-9,9v1.4l-8.6-4.5c-1.9-1-4.2-1-6.1,0l-14.2,7.4
		c-0.3,0.2-0.6,0.4-0.9,0.6v-3.6h5.7L22.5,0h-3.6L8.5,10.3h5.7v5.2H9.5l-3.9,7.8C2.5,23.7,0,26.4,0,29.7v43.9C0,77.1,2.9,80,6.5,80
		H80V33.5H77.4z M72.3,33.5v-5.2h-2.6v5.2h-2.6v-5.2h-2.6v5.2h-5.2v-7.7h15.5v7.7H72.3z M49,33.5h-7.7V23.2H49V33.5z M38.7,20.6
		v12.9h-5.2V19.2l11.6-5.8l11.6,5.8v14.4h-5.2V20.6H38.7z M25.8,33.5h-7.7V31h7.7V33.5z M15.5,28.4v5.2h-2.6v-7.7H31v7.7h-2.6v-5.2
		H15.5z M59.4,23.2v-2.8c0.4,0.1,0.8,0.2,1.3,0.2c1.5,0,2.8-0.8,3.5-2.1c1-1.9,0.2-4.2-1.7-5.2l-3-1.6v-0.1h12.9v11.6H59.4z
		 M65.8,2.6c3.6,0,6.5,2.9,6.5,6.5H59.4C59.4,5.5,62.2,2.6,65.8,2.6z M28.5,16.4c0.1-0.3,0.3-0.6,0.7-0.8l14.2-7.4
		c1.1-0.6,2.5-0.6,3.7,0l14.2,7.4c0.3,0.2,0.5,0.4,0.6,0.7c0.1,0.3,0.1,0.7-0.1,1c-0.3,0.6-1.1,0.9-1.7,0.6l-14.9-7.5l-14.9,7.5
		c-0.6,0.3-1.4,0-1.7-0.6C28.4,17,28.3,16.7,28.5,16.4z M19.9,2.6h1.5l5.2,5.2H14.7L19.9,2.6z M16.8,10.3h7.7v5.2h-7.7V10.3z
		 M11.1,18.1H26c0.1,0.1,0.1,0.3,0.2,0.4c0.7,1.3,2,2.1,3.5,2.1c0.4,0,0.9-0.1,1.3-0.2v2.8H12.9H8.5L11.1,18.1z M2.6,29.7
		c0-2.1,1.7-3.9,3.9-3.9h3.9v41.3H6.5c-1.5,0-2.8,0.5-3.9,1.3V29.7z M77.4,77.4h-71c-2.1,0-3.9-1.7-3.9-3.9s1.7-3.9,3.9-3.9h6.5
		V36.1h2.6h12.9h49V77.4z"/>
	<path class="st0" d="M15.5,42.6v14.2h7.7v15.5h18.1v-3.9h16.8v6.5h16.8V41.3H61.9v-2.6H31v3.9H15.5z M33.5,41.3h11.6V49h2.6v-7.7
		h11.6v11.6h2.6v-9h10.3v12.9h-7.7v2.6h7.7v12.9H60.6v-6.5H50.3v-5.2h-2.6v5.2h-9v3.9H25.8v-7.7h7.7v-2.6h-7.7v-5.2h-7.7v-9H31v5.2
		h2.6v-6.5v-1.3V41.3z"/>
</g>
</svg>
