<?xml version="1.0" encoding="utf-8"?>
<!-- Generator: Adobe Illustrator 24.0.2, SVG Export Plug-In . SVG Version: 6.00 Build 0)  -->
<svg version="1.1" id="Capa_1" xmlns="http://www.w3.org/2000/svg" xmlns:xlink="http://www.w3.org/1999/xlink" x="0px" y="0px"
	 width="80px" height="80px" viewBox="0 0 80 80" style="enable-background:new 0 0 80 80;" xml:space="preserve">
<style type="text/css">
	.st0{fill:#CEA809;}
</style>
<g>
	<g>
		<g>
			<rect x="60.6" y="49" class="st0" width="2.6" height="15.5"/>
			<path class="st0" d="M19.4,10.3h41.3V31h2.6V6.5c0-3.6-2.9-6.5-6.5-6.5H23.2c-3.6,0-6.5,2.9-6.5,6.5v6.5h2.6V10.3z M19.4,6.5
				c0-2.1,1.7-3.9,3.9-3.9h33.5c2.1,0,3.9,1.7,3.9,3.9v1.3H19.4V6.5z"/>
			<path class="st0" d="M47.1,49.5l-2.4-1c-1.3,3.1-3.3,5.8-5.6,7.9c-0.8-0.9-2.2-2.4-4.5-3.6c1.5-3.2,2.5-7,2.7-11.5H40v-2.6h-2.6
				c-0.2-4.5-1.3-8.3-2.7-11.5c2.2-1.3,3.7-2.7,4.5-3.6c2.4,2.1,4.3,4.8,5.6,7.9l2.4-1c-3.8-9.1-12.7-15-22.6-15
				C11,15.5,0,26.5,0,40s11,24.5,24.5,24.5C34.4,64.5,43.3,58.6,47.1,49.5z M37.1,58c-2.6,1.8-5.5,3-8.6,3.6c1.5-1.5,3.4-3.7,5-6.5
				C35.3,56.1,36.4,57.3,37.1,58z M37.1,22c-0.6,0.7-1.8,1.9-3.6,2.9c-1.6-2.8-3.5-5-5-6.5C31.6,19,34.5,20.2,37.1,22z M25.8,19.5
				c1.5,1.3,3.5,3.5,5.2,6.5c-1.5,0.5-3.2,0.9-5.2,1V19.5z M25.8,29.6c2.5-0.1,4.7-0.6,6.5-1.3c1.3,2.9,2.3,6.3,2.5,10.4h-9V29.6z
				 M25.8,41.3h9c-0.2,4-1.2,7.5-2.5,10.4c-1.8-0.7-3.9-1.2-6.4-1.3V41.3z M25.8,53c2,0.1,3.8,0.5,5.2,1c-1.8,3-3.8,5.2-5.2,6.5V53z
				 M20.6,18.4c-1.5,1.5-3.4,3.7-5,6.5c-1.8-1-3-2.2-3.6-2.9C14.5,20.3,17.4,19,20.6,18.4z M10,23.6c0.8,0.9,2.2,2.4,4.4,3.6
				c-1.5,3.2-2.5,7-2.7,11.5h-9C3,32.7,5.8,27.4,10,23.6z M10,56.4c-4.2-3.8-7-9.1-7.3-15.1h9c0.2,4.5,1.3,8.3,2.7,11.5
				C12.2,54,10.8,55.4,10,56.4z M12,58c0.6-0.7,1.8-1.9,3.6-2.9c1.6,2.8,3.5,5,5,6.5C17.4,61,14.5,59.7,12,58z M23.2,60.5
				C21.8,59.1,19.8,57,18,54c1.5-0.5,3.2-0.9,5.2-1V60.5z M23.2,50.4c-2.5,0.1-4.7,0.6-6.5,1.3c-1.3-2.9-2.3-6.3-2.5-10.4h9V50.4z
				 M23.2,38.7h-9c0.2-4,1.2-7.5,2.5-10.4c1.8,0.7,3.9,1.2,6.4,1.3V38.7z M23.2,27c-2-0.1-3.8-0.5-5.2-1c1.8-3,3.8-5.2,5.2-6.5V27z"
				/>
			<path class="st0" d="M16.8,73.5c0,3.6,2.9,6.5,6.5,6.5h33.5c3.6,0,6.5-2.9,6.5-6.5v-6.5H16.8V73.5z M19.4,69.7h41.3v3.9
				c0,2.1-1.7,3.9-3.9,3.9H23.2c-2.1,0-3.9-1.7-3.9-3.9V69.7z"/>
			<rect x="32.3" y="72.3" class="st0" width="15.5" height="2.6"/>
			<path class="st0" d="M42.6,33.5v12.9H80V33.5H42.6z M51.6,43.9h-6.5v-7.7h6.5V43.9z M77.4,43.9H54.2v-7.7h23.2V43.9z"/>
			<rect x="56.8" y="38.7" class="st0" width="2.6" height="2.6"/>
			<rect x="61.9" y="38.7" class="st0" width="2.6" height="2.6"/>
			<rect x="67.1" y="38.7" class="st0" width="2.6" height="2.6"/>
			<rect x="72.3" y="38.7" class="st0" width="2.6" height="2.6"/>
		</g>
	</g>
</g>
</svg>
