<?xml version="1.0" encoding="utf-8"?>
<!-- Generator: Adobe Illustrator 24.0.2, SVG Export Plug-In . SVG Version: 6.00 Build 0)  -->
<svg version="1.1" id="Capa_1" xmlns="http://www.w3.org/2000/svg" xmlns:xlink="http://www.w3.org/1999/xlink" x="0px" y="0px"
	 width="80px" height="73.7px" viewBox="0 0 80 73.7" style="enable-background:new 0 0 80 73.7;" xml:space="preserve">
<style type="text/css">
	.st0{fill:#CEA809;}
</style>
<g id="XMLID_1032_">
	<g>
		<g id="XMLID_19_">
			<g id="XMLID_21_">
				<path class="st0" d="M7.4,73.5c-0.5,0-1-0.3-1.2-0.8c-0.5-1.1-0.8-2.4-0.8-3.6c0-4.8,3.9-8.6,8.6-8.6c1.2,0,2.4,0.3,3.6,0.8
					l0.3,0.2V51.3l-0.2,0c-1.7-0.1-3.4-0.5-5-1.1c-0.3-0.1-0.6-0.4-0.7-0.7c-0.1-0.3-0.2-0.7,0-1c0.2-0.5,0.7-0.9,1.2-0.9
					c0.2,0,0.3,0,0.5,0.1c1.3,0.5,2.7,0.8,4.1,0.9l0.3,0v-16l-5.3-5.3c-0.5-0.5-0.5-1.3,0-1.9c0.2-0.2,0.6-0.4,0.9-0.4
					s0.7,0.1,0.9,0.4l3.4,3.4v-8.2c0-0.7,0.6-1.3,1.3-1.3s1.3,0.6,1.3,1.3v13.8l5.9-5.9V16.6c0-2.9,0.8-5.8,2.3-8.3l0.1-0.1L28.7,8
					c-2.1-3.2-5.7-5.1-9.5-5.1C12.9,2.9,7.8,8,7.8,14.3c0,1.5,0.3,3,0.9,4.4c0.2,0.5,0.1,1.1-0.3,1.5c-3.5,3.1-5.5,7.5-5.5,12.2
					c0,2.3,0.5,4.5,1.4,6.6c0.3,0.7,0,1.4-0.7,1.7c-0.2,0.1-0.3,0.1-0.5,0.1c-0.5,0-1-0.3-1.2-0.8c-1.1-2.4-1.6-5-1.6-7.6
					c0-5,2-9.9,5.6-13.4L6,18.8l0-0.1c-0.5-1.4-0.7-2.9-0.7-4.4c0-7.7,6.3-14,14-14c4.4,0,8.4,2,11.1,5.4l0.2,0.2l0.2-0.2
					c3.1-3.4,7.5-5.4,12.1-5.4c7.5,0,14.1,5.1,15.8,12.4l0.1,0.3l0.3-0.1c1.4-0.6,2.9-0.9,4.5-0.9c6.7,0,12.1,5.4,12.1,12.1
					c0,1.3-0.2,2.5-0.6,3.7l0,0.1l0.1,0.1c3,3,4.7,7.2,4.7,11.5C79.8,48,73.4,55,65,55.8l-0.2,0v15.1h7.3c0.7,0,1.3,0.6,1.3,1.3
					s-0.6,1.3-1.3,1.3H7.4z M52,51.5c-2.3,1.6-5,2.6-7.7,2.8l-0.2,0v8.1l0.1,0.1c2,1.6,3.1,4,3.1,6.6c0,0.5,0,1-0.1,1.5l0,0.3h15
					V55.8l-0.2,0c-3.5-0.3-6.9-1.9-9.6-4.3l-0.1-0.1L52,51.5z M14,63.1c-3.3,0-6,2.7-6,6c0,0.5,0.1,1.1,0.2,1.6l0,0.2h36.1l0-0.2
					c0.1-0.5,0.2-1,0.2-1.6c0-3.3-2.7-6-6-6c-1,0-2,0.3-2.9,0.7C35.6,64,35.4,64,35.1,64c-0.2,0-0.3,0-0.4-0.1
					c-0.4-0.1-0.6-0.4-0.8-0.8c-1.1-2.7-3.7-4.5-6.6-4.5c-3.3,0-6.2,2.3-6.9,5.5c-0.1,0.5-0.5,0.8-0.9,1c-0.1,0-0.2,0.1-0.4,0.1
					c-0.4,0-0.7-0.1-0.9-0.4C17.1,63.8,15.6,63.1,14,63.1z M27.3,56.1c3.5,0,6.6,1.8,8.3,4.7l0.1,0.2l0.2-0.1
					c0.9-0.3,1.8-0.4,2.7-0.4c0.9,0,1.7,0.1,2.5,0.4l0.3,0.1v-6.6l-0.2,0c-4.4-0.4-8.4-2.6-11.2-6.1L29.9,48l-0.2,0.1
					C27,50,24,51,20.7,51.3l-0.2,0v7.6l0.4-0.4C22.7,57,25,56.1,27.3,56.1z M59,39.9c-0.4,3.6-2,7-4.6,9.6l-0.2,0.2l0.2,0.2
					c2.1,1.8,4.7,3,7.4,3.3l0.3,0V42.4L59,39.4L59,39.9z M69.3,39.5c0.4,0,0.7,0.1,0.9,0.4c0.2,0.2,0.4,0.6,0.4,0.9
					c0,0.4-0.1,0.7-0.4,0.9l-5.5,5.5v5.9l0.3,0c6.9-0.8,12.1-6.6,12.1-13.6c0-3.9-1.7-7.6-4.6-10.2c-0.4-0.4-0.6-1-0.3-1.5
					c0.5-1.2,0.7-2.4,0.7-3.7c0-5.2-4.3-9.5-9.5-9.5c-1.5,0-2.9,0.3-4.2,1l-0.1,0.1l0,0.2c0,0.2,0,0.5,0,0.7v19.1l3,3v-6.5
					c0-0.7,0.6-1.3,1.3-1.3s1.3,0.6,1.3,1.3v11.3l3.6-3.6C68.7,39.6,69,39.5,69.3,39.5z M48.7,38c0.4,0,0.7,0.1,0.9,0.4
					c0.5,0.5,0.5,1.3,0,1.9l-5.5,5.5v5.9l0.3,0C51.3,50.8,56.5,45,56.5,38V16.6c0-7.5-6.1-13.7-13.7-13.7c-7.5,0-13.7,6.1-13.7,13.7
					V38c0,6.9,5.2,12.8,12.1,13.6l0.3,0V41L37,36.5c-0.5-0.5-0.5-1.3,0-1.9c0.2-0.2,0.6-0.4,0.9-0.4s0.7,0.1,0.9,0.4l2.6,2.6v-6.5
					c0-0.7,0.6-1.3,1.3-1.3s1.3,0.6,1.3,1.3V42l3.6-3.6C48,38.1,48.3,38,48.7,38z M20.5,38.3v10.3l0.3,0c2.7-0.3,5.2-1.2,7.5-2.7
					l0.2-0.1l-0.1-0.2c-1.2-2.3-1.9-5-1.9-7.6v-5.7L20.5,38.3z"/>
			</g>
			<g id="XMLID_20_">
				<path class="st0" d="M7.1,46.5c-0.3,0-0.7-0.1-0.9-0.4c-0.2-0.2-0.4-0.6-0.4-0.9c0-0.3,0.1-0.7,0.4-0.9c0.2-0.2,0.6-0.4,0.9-0.4
					S7.8,44,8,44.3s0.4,0.6,0.4,0.9c0,0.3-0.1,0.7-0.4,0.9S7.4,46.5,7.1,46.5z"/>
			</g>
		</g>
	</g>
</g>
</svg>
