<?xml version="1.0" encoding="utf-8"?>
<!-- Generator: Adobe Illustrator 24.0.2, SVG Export Plug-In . SVG Version: 6.00 Build 0)  -->
<svg version="1.1" id="Capa_1" xmlns="http://www.w3.org/2000/svg" xmlns:xlink="http://www.w3.org/1999/xlink" x="0px" y="0px"
	 width="54px" height="80px" viewBox="0 0 54 80" style="enable-background:new 0 0 54 80;" xml:space="preserve">
<style type="text/css">
	.st0{fill:#CEA809;}
</style>
<g>
	<path class="st0" d="M52,41.2h-3.4c-0.1-3.1-2.7-5.7-5.9-5.7h-1.6V25.4c2.1-0.3,3.8-2.1,3.8-4.3c0-2.2-1.6-4-3.8-4.3v-2.6
		c0-4.4-3.6-8.1-8.1-8.1h-0.3V2c0-1.1-0.9-2-2-2h-7.7c-1.1,0-2,0.9-2,2v4.2h-0.3c-4.4,0-8.1,3.6-8.1,8.1v2.6
		C10.6,17.1,9,18.9,9,21.1c0,2.2,1.6,4,3.8,4.3v10.2h-1.6c-3.2,0-5.7,2.5-5.9,5.7H2c-1.1,0-2,0.9-2,2v4.2c0,1.1,0.9,2,2,2h3.3v1.2
		c0,3.2,2.6,5.9,5.9,5.9h1.6v15.5H9.8c-2.2,0-4,1.8-4,4c0,2.2,1.8,4,4,4h1.5c0.6,0,1.2-0.5,1.2-1.2s-0.5-1.2-1.2-1.2H9.8
		c-0.9,0-1.7-0.8-1.7-1.7c0-0.9,0.8-1.7,1.7-1.7H44c0.9,0,1.7,0.8,1.7,1.7c0,0.9-0.8,1.7-1.7,1.7h-27c-0.6,0-1.2,0.5-1.2,1.2
		s0.5,1.2,1.2,1.2h27c2.2,0,4-1.8,4-4c0-2.2-1.8-4-4-4h-2.9V56.4h1.6c3.2,0,5.9-2.6,5.9-5.9v-1.2H52c1.1,0,2-0.9,2-2v-4.2
		C54,42.1,53.1,41.2,52,41.2L52,41.2z M23.5,2.3h6.9v3.8h-6.9L23.5,2.3z M11.3,21.1c0-1.1,0.9-2,2-2h5.4c0.6,0,1.2-0.5,1.2-1.2
		c0-0.6-0.5-1.2-1.2-1.2h-3.7v-2.6c0-3.1,2.6-5.7,5.7-5.7H33c3.1,0,5.7,2.6,5.7,5.7v2.6H24.4c-0.6,0-1.2,0.5-1.2,1.2
		c0,0.6,0.5,1.2,1.2,1.2h16.1c1.1,0,2,0.9,2,2c0,1.1-0.9,2-2,2H13.3C12.2,23.1,11.3,22.2,11.3,21.1z M2.3,47v-3.4h2.9V47H2.3z
		 M11.1,54.1c-1.9,0-3.5-1.6-3.5-3.5v-9.1c0-1.9,1.6-3.5,3.5-3.5h1.6v16.2L11.1,54.1L11.1,54.1z M15.1,64.8h4v7.1h-4V64.8z
		 M32.4,64.8v7.1h-4.3v-7.1H32.4z M25.7,71.9h-4.3v-7.1h4.3V71.9z M34.7,71.9v-7.1h4v7.1H34.7z M46.3,50.6c0,1.9-1.6,3.5-3.5,3.5
		h-1.6v-0.3c0-0.6-0.5-1.2-1.2-1.2c-0.6,0-1.2,0.5-1.2,1.2v8.7H15.1v-37h23.7v22.4c0,0.6,0.5,1.2,1.2,1.2c0.6,0,1.2-0.5,1.2-1.2
		v-9.9h1.6c1.9,0,3.5,1.6,3.5,3.5V50.6z M51.7,47h-3.1v-3.4h3.1V47z"/>
	<path class="st0" d="M26.9,35.3c-5.5,0-10,4.5-10,10s4.5,10,10,10s10-4.5,10-10S32.4,35.3,26.9,35.3L26.9,35.3z M26.9,53
		c-4.2,0-7.7-3.4-7.7-7.7s3.4-7.7,7.7-7.7s7.7,3.4,7.7,7.7S31.2,53,26.9,53L26.9,53z"/>
	<path class="st0" d="M26.9,40.9c-2.4,0-4.4,2-4.4,4.4c0,2.4,2,4.4,4.4,4.4s4.4-2,4.4-4.4C31.3,42.9,29.3,40.9,26.9,40.9z
		 M26.9,47.3c-1.1,0-2-0.9-2-2c0-1.1,0.9-2,2-2c1.1,0,2,0.9,2,2C28.9,46.4,28,47.3,26.9,47.3z"/>
</g>
</svg>
