<?xml version="1.0" encoding="utf-8"?>
<!-- Generator: Adobe Illustrator 24.0.2, SVG Export Plug-In . SVG Version: 6.00 Build 0)  -->
<svg version="1.1" id="Capa_1" xmlns="http://www.w3.org/2000/svg" xmlns:xlink="http://www.w3.org/1999/xlink" x="0px" y="0px"
	 width="80px" height="80px" viewBox="0 0 80 80" style="enable-background:new 0 0 80 80;" xml:space="preserve">
<style type="text/css">
	.st0{fill:#CEA809;}
</style>
<g>
	<path class="st0" d="M43.8,30h18.8c4.1,0,7.5-3.4,7.5-7.5c0-3.9-3-7.1-6.8-7.5c-0.9-2-2.7-3.4-4.8-3.7C57.3,7.6,53.9,5,50,5
		c-4.5,0-8.3,3.5-8.7,7.9c-3.7,1.1-6.3,4.5-6.3,8.4C35,26.1,38.9,30,43.8,30z M42.7,15.1c0.6-0.1,1-0.7,1-1.3c0-3.4,2.8-6.3,6.3-6.3
		c3.1,0,5.7,2.2,6.2,5.2c0.1,0.6,0.6,1,1.2,1c0,0,0.1,0,0.2,0c1.7,0,3.1,1.2,3.6,2.8c0.1,0.6,0.6,0.9,1.2,0.9c0,0,0.1,0,0.2,0
		c2.7,0,5,2.3,5,5c0,2.8-2.2,5-5,5H43.8c-3.4,0-6.3-2.8-6.3-6.3C37.5,18.2,39.7,15.6,42.7,15.1z"/>
	<path class="st0" d="M15,33.8h1.3c0-2.1,1.7-3.8,3.8-3.8v-2.5c-2.6,0-4.8,1.6-5.8,3.8c-2.4,0.4-4.2,2.4-4.2,4.9h2.5
		C12.5,34.9,13.6,33.8,15,33.8z"/>
	<path class="st0" d="M51.3,21.3h2.5c0-3.4-2.8-6.3-6.3-6.3v2.5C49.6,17.5,51.3,19.2,51.3,21.3z"/>
	<rect x="25" y="7.5" class="st0" width="2.5" height="2.5"/>
	<rect x="30" y="7.5" class="st0" width="2.5" height="2.5"/>
	<rect x="15" class="st0" width="2.5" height="2.5"/>
	<rect x="20" class="st0" width="2.5" height="2.5"/>
	<rect x="25" class="st0" width="2.5" height="2.5"/>
	<rect x="2.5" y="12.5" class="st0" width="2.5" height="2.5"/>
	<path class="st0" d="M66.3,10c0.3,0,0.6-0.1,0.9-0.4l3.8-3.8l-1.8-1.8L66.3,7l-2.9-2.9l-1.8,1.8l3.8,3.8C65.6,9.9,65.9,10,66.3,10z
		"/>
	<path class="st0" d="M74.1,18.4c0.2,0.2,0.6,0.4,0.9,0.4s0.6-0.1,0.9-0.4l3.8-3.7l-1.8-1.8L75,15.7l-2.9-2.9l-1.8,1.8L74.1,18.4z"
		/>
	<rect y="5" class="st0" width="2.5" height="2.5"/>
	<rect x="5" y="5" class="st0" width="2.5" height="2.5"/>
	<rect x="10" y="5" class="st0" width="2.5" height="2.5"/>
	<path class="st0" d="M80,45v-2.5c-2.8,0-5.2-0.4-7.4-1.2c-1.9-0.7-3.9-1-5.8-1.3c-0.8-2.1-2.3-3.8-4.3-3.8c-1.9,0-3.4,1.7-4.2,3.7
		c-2.8-0.2-5.8-0.1-9.5,0.5c-3,0.5-6.1,1.6-9,3.3c-1.3,0.7-2.5,1.5-3.7,2.3c-1.6,1-3.1,2-4.6,2.8c-2.1,1.1-4.2,1.6-6.1,1.6
		c-1.8,0-3.6-0.7-5.4-1.4V45c0.5-0.4,0.9-0.8,1.3-1.2c1.1,1.5,3,2.5,5,2.5c3.4,0,6.3-2.8,6.3-6.3c0-1.8-0.7-3.4-2-4.6
		c0.5-0.9,0.8-1.9,0.8-2.9c0-3-2.5-5.5-5-6.1c0,0,0-0.1,0-0.1c0-2.5-1.5-4.8-3.8-5.7c-0.4-3.1-3-5.5-6.2-5.5s-5.8,2.4-6.2,5.5
		c-2.3,1-3.8,3.2-3.8,5.7c0,0,0,0.1,0,0.1c-2.5,0.6-5,3.1-5,6.1c0,1,0.3,2,0.8,2.9c-1.3,1.2-2,2.8-2,4.6c0,3.4,2.8,6.3,6.3,6.3
		c2,0,3.9-1,5-2.5c0.4,0.5,0.8,0.9,1.3,1.2v2c-2-0.4-3.9,0-5.4,0.4c-1,0.3-2,0.8-3,1.3C2.7,49.3,1.4,50,0,50v2.5
		c1.9,0,3.6-0.8,5.3-1.6C6.2,50.4,7,50,7.9,49.8c1.3-0.4,3-0.7,4.6-0.2v7.2c-0.1,0-0.2,0-0.3,0c-1.6,0.2-3.3,0.6-4.8,0.9
		c-2.6,0.6-5,1.1-7.4,1.1v2.5c2.7,0,5.4-0.6,7.9-1.2c1.6-0.4,3.1-0.7,4.6-0.9c5.1-0.7,9.6,0,13.6,2c2.5,1.2,4.9,2.9,7.2,4.6
		c2.9,2.1,5.9,4.2,9.2,5.6c-5.7,2.1-11.9,3-18,3.9l-0.8,0.1c-7.2,1-14.3,2-22.6,2.2H0V80h1.3c8.5-0.2,15.7-1.1,22.9-2.2l0.8-0.1
		c2.4-0.3,4.9-0.7,7.3-1.1c2.5,2,5.9,3.2,9.6,3.2c0.8,0,1.5,0,2.3-0.2c3.2-0.4,6.2-1.8,9.1-3.1c4.1-1.9,8.1-3.7,12.3-2.8
		c2.2,0.5,4.2,1.7,6.2,2.9l0.4,0.3c0.7,0.4,1.2,0.7,1.7,0.9c1.8,0.9,3.6,0.9,5,0.9H80v-2.5h-1.3c-1.7,0-2.8-0.1-3.9-0.6
		c-0.4-0.2-0.9-0.4-1.4-0.8l-0.4-0.3c-2.1-1.3-4.4-2.7-7-3.3c-5-1.1-9.5,1-13.9,2.9c-2.9,1.3-5.5,2.5-8.4,2.9
		c-2.8,0.4-5.7-0.1-7.9-1.3c3.7-0.8,7.3-1.9,10.8-3.4c1.4-0.6,2.8-1.4,4.1-2.2c1.4-0.8,2.7-1.5,4.1-2.1c3.3-1.5,6.3-2.4,9.2-2.8
		c2.8-0.4,5.5-0.4,7.9,0.2c0.9,0.2,1.7,0.6,2.5,0.9c1.3,0.6,2.6,1.2,4.5,1.1H80V65h-1.3c-1.3,0-2.2-0.4-3.3-0.9
		c-0.8-0.4-1.8-0.9-3-1.1c-2.8-0.6-5.7-0.7-8.8-0.2c-3.1,0.5-6.3,1.5-9.8,3c-1.5,0.7-2.9,1.5-4.3,2.3c-1.1,0.7-2.2,1.3-3.4,1.8
		c-3.2-0.9-6-2.6-8.9-4.5c0,0,0,0,0.1,0c6.8,0,14.3-2.1,19.9-5.8l0.2-0.1C64.4,54.8,71.7,50,80,50v-2.5c-5.9,0-11.3,2.2-16.3,5v-3.9
		c2.4-0.4,3.8-2.2,3.8-4.9c0-0.3,0-0.7-0.1-1.1c1.4,0.2,2.9,0.5,4.3,1C74.3,44.6,76.9,45,80,45z M11.3,38.8c-0.7,0-1.3,0.6-1.3,1.3
		c0,2.1-1.7,3.8-3.8,3.8S2.5,42.1,2.5,40c0-1.3,0.7-2.5,1.8-3.2c0.3-0.2,0.5-0.5,0.6-0.9c0.1-0.4,0-0.7-0.3-1
		c-0.4-0.5-0.9-1.3-0.9-2.4c0-2.1,1.7-3.8,3.7-3.8c0,0,0.2,0,0.2,0c0.4,0,0.8-0.2,1-0.5C8.9,28,9,27.6,8.9,27.2
		c-0.1-0.4-0.1-0.7-0.1-1c0-1.7,1.2-3.2,2.8-3.6c0.6-0.1,1-0.7,0.9-1.3c0-0.1,0-0.1,0-0.1c0-2.1,1.7-3.8,3.8-3.8s3.8,1.7,3.8,3.7
		c0,0,0,0.2,0,0.2c0,0.6,0.4,1.1,0.9,1.3c1.7,0.4,2.8,1.9,2.8,3.6c0,0.3,0,0.6-0.1,0.9c-0.1,0.4,0,0.8,0.2,1.1
		c0.2,0.3,0.6,0.5,1,0.5c0.1,0,0.1,0,0.1,0c2.1,0,3.8,1.7,3.8,3.8c0,1.1-0.5,1.9-0.9,2.4c-0.2,0.3-0.3,0.7-0.3,1
		c0.1,0.4,0.3,0.7,0.6,0.9c1.2,0.7,1.8,1.9,1.8,3.2c0,2.1-1.7,3.8-3.8,3.8s-3.8-1.7-3.8-3.8c0-0.7-0.6-1.3-1.3-1.3S20,39.3,20,40
		c0,2.1-1.7,3.8-3.8,3.8s-3.8-1.7-3.8-3.8C12.5,39.3,11.9,38.8,11.3,38.8z M15,56.5V46.1c0.4,0.1,0.8,0.1,1.3,0.1s0.8-0.1,1.3-0.1
		v10.4C16.7,56.5,15.8,56.5,15,56.5z M51.3,55c-1.7,0-2.5-0.8-2.5-2.5c0-2.4,1.5-5,2.5-5s2.5,2.6,2.5,5C53.8,54.2,53,55,51.3,55z
		 M56,57.4l-0.2,0.1c-1,0.7-2.1,1.3-3.3,1.8v-2c2.4-0.4,3.8-2.2,3.8-4.9c0-3.1-1.9-7.5-5-7.5c-3.1,0-5,4.4-5,7.5
		c0,2.7,1.4,4.4,3.8,4.9v3.1c-5.4,2.1-11.6,3-16.8,2.2c-1.9-1.3-3.8-2.6-5.9-3.6c-2.3-1.1-4.7-1.9-7.3-2.3v-5.2c1.7,0.6,3.4,1,5.3,1
		c0,0,0.1,0,0.1,0c2.3,0,4.7-0.4,7.1-1.7c1.7-0.9,3.3-1.7,4.9-2.7c1.2-0.8,2.4-1.5,3.6-2.2c2.7-1.5,5.4-2.5,8.2-3
		c3.2-0.6,5.9-0.7,8.4-0.6c-0.1,0.5-0.1,0.9-0.1,1.3c0,2.7,1.4,4.4,3.8,4.9V54C59.4,55.1,57.7,56.2,56,57.4z M62.5,46.3
		c-1.7,0-2.5-0.8-2.5-2.5c0-2.4,1.5-5,2.5-5s2.5,2.6,2.5,5C65,45.5,64.2,46.3,62.5,46.3z"/>
	<rect x="2.5" y="71.3" class="st0" width="2.5" height="2.5"/>
	<rect x="7.5" y="71.3" class="st0" width="2.5" height="2.5"/>
	<rect x="12.5" y="71.3" class="st0" width="2.5" height="2.5"/>
</g>
</svg>
