<?xml version="1.0" encoding="utf-8"?>
<!-- Generator: Adobe Illustrator 24.0.2, SVG Export Plug-In . SVG Version: 6.00 Build 0)  -->
<svg version="1.1" id="Capa_1" xmlns="http://www.w3.org/2000/svg" xmlns:xlink="http://www.w3.org/1999/xlink" x="0px" y="0px"
	 width="80px" height="80px" viewBox="0 0 80 80" style="enable-background:new 0 0 80 80;" xml:space="preserve">
<style type="text/css">
	.st0{fill:#CEA809;}
</style>
<g>
	<g>
		<path class="st0" d="M25.3,26.5c-0.7,1.2-2,1.9-3.4,1.9c-2.1,0-3.9-1.7-3.9-3.9s1.7-3.9,3.9-3.9v-2.6c-3.6,0-6.5,2.9-6.5,6.5
			s2.9,6.5,6.5,6.5c2.3,0,4.4-1.2,5.6-3.2L25.3,26.5z"/>
	</g>
</g>
<g>
	<g>
		<path class="st0" d="M56.8,38.7h11.6c6.4,0,11.6-5.2,11.6-11.6v-7.7C80,13,74.8,7.7,68.4,7.7H52.5L50,0H32.6L30,7.7H14.2
			C6.4,7.7,0,14.1,0,21.9v1.3h7.8c0,0.4-0.1,0.9-0.1,1.3c0,7.8,6.4,14.2,14.2,14.2h19.4c0,2.3,1,4.3,2.6,5.8v18.8
			c0,3.6,2.9,6.5,6.5,6.5h19.4v3.9c0,3.6,2.9,6.5,6.5,6.5H80V49h-3.9c-3.6,0-6.5,2.9-6.5,6.5v3.9H54.2V44.5
			C55.8,43,56.8,41,56.8,38.7z M72.3,55.5c0-2.1,1.7-3.9,3.9-3.9h1.3v25.8h-1.3c-2.1,0-3.9-1.7-3.9-3.9V55.5z M34.5,2.6h13.6
			l1.7,5.2H32.8L34.5,2.6z M68.4,10.3c5,0,9,4.1,9,9v1.3H28.3c-0.4-4.3-2.7-8-6-10.3H68.4z M2.7,20.6c0.6-5.8,5.6-10.3,11.5-10.3
			c1.3,0,2.5,0.2,3.7,0.6c-4.6,1.4-8.2,5.1-9.6,9.7H2.7z M10.3,24.5c0-6.3,5-11.4,11.2-11.6c2.6,2.1,4.3,5.4,4.3,9v1.3h7.7
			c0,0.4,0.1,0.9,0.1,1.3c0,6.4-5.2,11.6-11.6,11.6S10.3,30.9,10.3,24.5z M41.7,36.1H30.1c3.7-2.6,6.1-6.8,6.1-11.6
			c0-0.4,0-0.9-0.1-1.3h41.4v3.9c0,5-4.1,9-9,9H56.3c-1.1-3-3.9-5.2-7.3-5.2C45.7,31,42.8,33.1,41.7,36.1z M67.1,61.9h2.6v5.2h-2.6
			V61.9z M64.5,61.9v5.2H50.3c-2.1,0-3.9-1.7-3.9-3.9V46c0.8,0.3,1.7,0.5,2.6,0.5c0.9,0,1.8-0.2,2.6-0.5v13.4c0,1.4,1.2,2.6,2.6,2.6
			H64.5z M49,43.9c-2.8,0-5.2-2.3-5.2-5.2c0-2.8,2.3-5.2,5.2-5.2c2.8,0,5.2,2.3,5.2,5.2S51.9,43.9,49,43.9z"/>
	</g>
</g>
<g>
	<g>
		<path class="st0" d="M59.4,25.8v7.7h10.3v-7.7H59.4z M67.1,31h-5.2v-2.6h5.2V31z"/>
	</g>
</g>
<g>
	<g>
		<rect x="29.7" y="12.9" class="st0" width="20.6" height="2.6"/>
	</g>
</g>
<g>
	<g>
		<rect x="59.4" y="15.5" class="st0" width="2.6" height="2.6"/>
	</g>
</g>
<g>
	<g>
		<rect x="64.5" y="15.5" class="st0" width="2.6" height="2.6"/>
	</g>
</g>
<g>
	<g>
		<rect x="69.7" y="15.5" class="st0" width="2.6" height="2.6"/>
	</g>
</g>
</svg>
