<?xml version="1.0" encoding="utf-8"?>
<!-- Generator: Adobe Illustrator 24.0.2, SVG Export Plug-In . SVG Version: 6.00 Build 0)  -->
<svg version="1.1" id="Capa_1" xmlns="http://www.w3.org/2000/svg" xmlns:xlink="http://www.w3.org/1999/xlink" x="0px" y="0px"
	 width="79.6px" height="79.6px" viewBox="0 0 79.6 79.6" style="enable-background:new 0 0 79.6 79.6;" xml:space="preserve">
<style type="text/css">
	.st0{fill:#CEA809;}
</style>
<g>
	<g>
		<g>
			<g>
				<path class="st0" d="M52,79.6c-2.4,0-4.3-1.9-4.3-4.3v-1.9H37.3v1.9c0,2.4-1.9,4.3-4.3,4.3h-9.1c-2.4,0-4.3-1.9-4.3-4.3V70
					l-0.1-0.1C12,65.5,7.3,57.4,7.3,48.7c0-1,0.1-2,0.2-2.9l0-0.2H6.8c-3.7,0-6.8-3-6.8-6.8C0,35.1,3,32,6.8,32
					c0.8,0,1.4,0.6,1.4,1.4s-0.6,1.4-1.4,1.4c-2.2,0-4,1.8-4,4s1.8,4,4,4h1.3l0-0.2c2.8-11,12.6-18.6,23.9-18.6h2
					c0.8,0,1.4,0.6,1.4,1.4s-0.6,1.4-1.4,1.4h-2c-12.1,0-21.9,9.8-21.9,21.9c0,8,4.4,15.4,11.5,19.3c0.4,0.2,0.7,0.7,0.7,1.2v6.1
					c0,0.9,0.7,1.6,1.6,1.6h9.1c0.9,0,1.6-0.7,1.6-1.6V72c0-0.8,0.6-1.4,1.4-1.4H49c0.8,0,1.4,0.6,1.4,1.4v3.3
					c0,0.9,0.7,1.6,1.6,1.6h9.1c0.9,0,1.6-0.7,1.6-1.6v-8.6c0-0.4,0.2-0.8,0.5-1c3.3-2.7,5.7-6.3,6.9-10.3c0.2-0.5,0.6-0.9,1.1-0.9
					l4.2-0.5c0.8-0.1,1.4-0.8,1.4-1.6v-7.9c0-0.8-0.6-1.5-1.4-1.6l-4.6-0.6c-0.5-0.1-0.9-0.4-1.1-0.9c-1-2.9-2.6-5.4-4.7-7.7
					c-0.2-0.1-0.3-0.2-0.4-0.4c-2.9-2.9-6.5-4.9-10.4-5.8c-0.7-0.2-1.2-0.9-1-1.6c0.1-0.6,0.7-1,1.3-1c0.1,0,0.2,0,0.3,0
					c1.1,0.3,2.3,0.6,3.4,1.1l0.2,0.1l0.1-0.2c1.6-4,5.5-6.7,9.8-6.7h0.3c0.4,0,0.8,0.2,1.1,0.5c0.3,0.3,0.4,0.8,0.3,1.2L67.3,32
					l0.1,0.1c2,2.2,3.5,4.6,4.6,7.3l0,0.1l3.7,0.5c2.2,0.3,3.8,2.1,3.8,4.3v7.9c0,2.2-1.6,4-3.8,4.3l-3.4,0.4l0,0.1
					c-1.4,3.9-3.8,7.4-6.9,10.2l-0.1,0.1v8c0,2.4-1.9,4.3-4.3,4.3H52z M66.6,21.9c-2.6,0.6-4.8,2.5-5.6,5L60.9,27l0.1,0.1
					c1.3,0.7,2.5,1.6,3.7,2.5l0.2,0.2l1.9-8L66.6,21.9z"/>
			</g>
		</g>
	</g>
</g>
<g>
	<g>
		<g>
			<g>
				<path class="st0" d="M60.9,41.9c-0.4,0-0.7-0.1-1-0.4c-0.3-0.3-0.4-0.6-0.4-1c0-0.4,0.1-0.7,0.4-1c0.3-0.3,0.6-0.4,1-0.4
					c0.4,0,0.7,0.1,1,0.4c0.3,0.3,0.4,0.6,0.4,1c0,0.4-0.1,0.7-0.4,1C61.6,41.8,61.3,41.9,60.9,41.9z"/>
			</g>
		</g>
	</g>
</g>
<g>
	<g>
		<g>
			<g>
				<path class="st0" d="M45.6,18c-0.8,0-1.4-0.6-1.4-1.4v-6.2c0-0.8,0.6-1.4,1.4-1.4S47,9.7,47,10.5v6.2C47,17.4,46.4,18,45.6,18z"
					/>
			</g>
		</g>
	</g>
</g>
<g>
	<g>
		<g>
			<g>
				<path class="st0" d="M45.6,6.2c-0.4,0-0.7-0.1-1-0.4c-0.3-0.3-0.4-0.6-0.4-1s0.1-0.7,0.4-1c0.3-0.3,0.6-0.4,1-0.4s0.7,0.1,1,0.4
					c0.3,0.3,0.4,0.6,0.4,1c0,0.4-0.1,0.7-0.4,1C46.3,6,46,6.2,45.6,6.2z"/>
			</g>
		</g>
	</g>
</g>
<g>
	<g>
		<g>
			<g>
				<path class="st0" d="M32.9,5.4c-0.8,0-1.4-0.6-1.4-1.4V1.4c0-0.8,0.6-1.4,1.4-1.4s1.4,0.6,1.4,1.4V4C34.3,4.8,33.7,5.4,32.9,5.4
					z"/>
			</g>
		</g>
	</g>
</g>
<g>
	<g>
		<g>
			<g>
				<path class="st0" d="M16,50.1c-0.7,0-1.4-0.6-1.4-1.4c0-0.8,0.6-1.4,1.4-1.4s1.4,0.6,1.4,1.4C17.4,49.5,16.8,50.1,16,50.1
					L16,50.1z"/>
			</g>
		</g>
	</g>
</g>
<g>
	<g>
		<g>
			<g>
				<path class="st0" d="M23.7,63.7c-0.2,0-0.5-0.1-0.7-0.2c-3.3-2-5.8-5-7.2-8.6c-0.3-0.7,0.1-1.5,0.8-1.8c0.2-0.1,0.3-0.1,0.5-0.1
					c0.6,0,1.1,0.4,1.3,0.9c1.1,3,3.3,5.6,6.1,7.3c0.6,0.4,0.8,1.2,0.5,1.9C24.6,63.4,24.2,63.7,23.7,63.7z"/>
			</g>
		</g>
	</g>
</g>
<g>
	<g>
		<g>
			<g>
				<path class="st0" d="M32.9,20.2c-3.5,0-6.4-2.9-6.4-6.4s2.9-6.4,6.4-6.4s6.4,2.9,6.4,6.4S36.4,20.2,32.9,20.2z M32.9,10.2
					c-2,0-3.6,1.6-3.6,3.6s1.6,3.6,3.6,3.6s3.6-1.6,3.6-3.6S34.9,10.2,32.9,10.2z"/>
			</g>
		</g>
	</g>
</g>
<g>
	<g>
		<g>
			<g>
				<path class="st0" d="M32.3,35.8c-0.8,0-1.4-0.6-1.4-1.4s0.6-1.4,1.4-1.4h8.1l-0.2-0.3c-0.6-1-0.9-2.2-0.9-3.3
					c0-3.5,2.9-6.4,6.4-6.4c3.5,0,6.4,2.9,6.4,6.4c0,1.2-0.3,2.3-0.9,3.3l-0.2,0.3h1.8c0.8,0,1.4,0.6,1.4,1.4s-0.6,1.4-1.4,1.4H32.3
					z M45.6,25.8c-2,0-3.6,1.6-3.6,3.6s1.6,3.6,3.6,3.6s3.6-1.6,3.6-3.6S47.6,25.8,45.6,25.8z"/>
			</g>
		</g>
	</g>
</g>
</svg>
