<?xml version="1.0" encoding="utf-8"?>
<!-- Generator: Adobe Illustrator 24.0.2, SVG Export Plug-In . SVG Version: 6.00 Build 0)  -->
<svg version="1.1" id="Layer_5" xmlns="http://www.w3.org/2000/svg" xmlns:xlink="http://www.w3.org/1999/xlink" x="0px" y="0px"
	 width="80px" height="80px" viewBox="0 0 80 80" style="enable-background:new 0 0 80 80;" xml:space="preserve">
<style type="text/css">
	.st0{fill:#CEA809;}
</style>
<path class="st0" d="M80,58.1v-7.7c0-4-2.6-7.4-6.3-8.6c1.5-1.4,2.4-3.4,2.4-5.6c0-2.9-1.6-5.4-3.9-6.7V19.3c1.6-1.2,2.6-3,2.6-5.1
	V9c0-2.1-1.7-3.9-3.9-3.9H56.8h-2.6h-8.5C43.8,2,40.8,0,37.4,0s-6.4,2-8.2,5.2h-8.5h-2.6H3.9C1.7,5.2,0,6.9,0,9v5.2
	c0,2.1,1,3.9,2.6,5.1v58.1H0V80h7.7h33.5H80v-2.6h-6.5v-5.2h3.9c1.4,0,2.6-1.2,2.6-2.6v-2.6c0-1.4-1.2-2.6-2.6-2.6h-0.1
	C79,62.9,80,60.6,80,58.1z M68.4,41.3c-2.8,0-5.2-2.3-5.2-5.2s2.3-5.2,5.2-5.2s5.2,2.3,5.2,5.2S71.2,41.3,68.4,41.3z M68.4,18.1
	h-7.7c-2.1,0-3.9-1.7-3.9-3.9h15.5C72.3,16.3,70.5,18.1,68.4,18.1z M47.7,14.2h6.5c0,2.1-1.7,3.9-3.9,3.9h-3.4
	C47.3,16.9,47.6,15.6,47.7,14.2z M71,7.7c0.7,0,1.3,0.6,1.3,1.3v2.6H56.8V7.7H71z M54.2,7.7v3.9h-6.5c-0.1-1.4-0.4-2.7-0.8-3.9H54.2
	z M45.2,12.9c0,5.2-2.9,9.5-6.7,10.2c0,0,0-0.1,0.1-0.1c0.7-1.2,1.4-2.7,1.4-5.3s-0.8-4.1-1.4-5.3c-0.6-1.1-1.1-2.1-1.1-4.1
	c0-2,0.5-3,1.1-4.1c0.2-0.4,0.4-0.8,0.6-1.2C42.6,3.9,45.2,8,45.2,12.9z M36.4,2.7c0,0,0,0.1-0.1,0.1c-0.7,1.2-1.4,2.7-1.4,5.3
	c0,2.7,0.8,4.1,1.4,5.3c0.6,1.1,1.1,2.1,1.1,4.1s-0.5,3-1.1,4.1c-0.2,0.4-0.4,0.8-0.6,1.2c-3.4-1.1-6-5.2-6-10
	C29.7,7.7,32.6,3.4,36.4,2.7z M2.6,14.2h15.5c0,2.1-1.7,3.9-3.9,3.9H6.5C4.3,18.1,2.6,16.3,2.6,14.2z M27.1,14.2
	c0.1,1.4,0.4,2.7,0.8,3.9h-3.4c-2.1,0-3.9-1.7-3.9-3.9H27.1z M28,7.7c-0.4,1.2-0.7,2.5-0.8,3.9h-6.5V7.7H28z M3.9,7.7h14.2v3.9H2.6
	V9C2.6,8.3,3.2,7.7,3.9,7.7z M5.2,77.4V20.5c0.4,0.1,0.8,0.1,1.3,0.1h7.7c2.1,0,4-1,5.2-2.6c1.2,1.6,3,2.6,5.2,2.6h4.7
	c1.9,3.1,4.9,5.2,8.2,5.2c3.4,0,6.4-2,8.2-5.2h4.7c2.1,0,4-1,5.2-2.6c1.2,1.6,3,2.6,5.2,2.6h7.7c0.4,0,0.9,0,1.3-0.1v8
	c-0.4-0.1-0.9-0.1-1.3-0.1c-4.3,0-7.7,3.5-7.7,7.7c0,2.8,1.5,5.2,3.6,6.5c-1.9,0.8-3.7,2-5.2,3.6l-0.2,0.2h-4.6v-5.2H41.3v6.5
	c0,1.5,0.5,2.8,1.3,3.9h-3.9V37.4c0-3.6-2.9-6.5-6.5-6.5H16.8c-3.6,0-6.5,2.9-6.5,6.5v35.1c-1.5,0.5-2.6,2-2.6,3.6v1.3H5.2z
	 M52.9,77.4h-2.6V59.4h2.6v16.1v0.2V77.4z M55.5,59.4h4.8c-0.9,0.7-1.6,1.6-2.1,2.7l-2.6,6.4V59.4z M65.8,56.8H38.7v-2.6H53h8.1
	c1.7,0,3.3-0.7,4.6-1.9l0.2-0.2L65.8,56.8z M36.1,72.3H12.9V37.4c0-2.1,1.7-3.9,3.9-3.9h15.5c2.1,0,3.9,1.7,3.9,3.9V72.3z
	 M46.5,50.3c0,0.4,0.1,0.8,0.2,1.1c-1.6-0.5-2.8-1.9-2.8-3.7v-3.9h7.7v2.6h-1.3C48.2,46.5,46.5,48.2,46.5,50.3z M10.3,77.4v-1.3
	c0-0.7,0.6-1.3,1.3-1.3h25.8c0.7,0,1.3,0.6,1.3,1.3v1.3H10.3z M38.7,72.5V59.4h9v18.1h-6.5v-1.3C41.3,74.4,40.2,73,38.7,72.5z
	 M63.3,72.3h2.5v5.2h-4.6c0-0.1,0.1-0.1,0.1-0.2L63.3,72.3z M71,77.4h-2.6v-5.2H71V77.4z M77.4,67.1v2.6H64.4l1-2.6h3H71H77.4z
	 M68.4,64.5h-3c-1.1,0-2,0.6-2.4,1.6l-4.1,10.2c-0.3,0.7-0.9,1.1-1.7,1.1c-1,0-1.8-0.8-1.8-1.8v-0.2c0-0.2,0-0.5,0.1-0.7L60.5,63
	c0.6-1.4,2-2.4,3.6-2.4h4.3V49.6l0.9-0.9l-1.8-1.8l-3.6,3.6c-0.7,0.7-1.7,1.1-2.7,1.1H50.3c-0.7,0-1.3-0.6-1.3-1.3
	c0-0.7,0.6-1.3,1.3-1.3h8.5c0.7,0,1.3-0.3,1.8-0.8l0.2-0.2c2.7-2.7,6.3-4.2,10.1-4.2c3.6,0,6.5,2.9,6.5,6.5v7.7
	c0,3.6-2.9,6.5-6.5,6.5H68.4z"/>
<path class="st0" d="M44.4,35.9c-0.7,0.5-1.9,1.2-1.9,2.8h2.6c0-0.1,0.2-0.3,0.7-0.6c0.7-0.5,1.9-1.2,1.9-2.8s-1.1-2.3-1.9-2.8
	c-0.5-0.3-0.7-0.5-0.7-0.6c0-0.1,0.2-0.3,0.7-0.6c0.7-0.5,1.9-1.2,1.9-2.8h-2.6c0,0.1-0.2,0.3-0.7,0.6c-0.7,0.5-1.9,1.2-1.9,2.8
	s1.1,2.3,1.9,2.8c0.5,0.3,0.7,0.5,0.7,0.6C45.2,35.4,44.9,35.6,44.4,35.9L44.4,35.9z"/>
<path class="st0" d="M50.9,35.9c-0.7,0.5-1.9,1.2-1.9,2.8h2.6c0-0.1,0.2-0.3,0.7-0.6c0.7-0.5,1.9-1.2,1.9-2.8s-1.1-2.3-1.9-2.8
	c-0.5-0.3-0.7-0.5-0.7-0.6c0-0.1,0.2-0.3,0.7-0.6c0.7-0.5,1.9-1.2,1.9-2.8h-2.6c0,0.1-0.2,0.3-0.7,0.6c-0.7,0.5-1.9,1.2-1.9,2.8
	s1.1,2.3,1.9,2.8c0.5,0.3,0.7,0.5,0.7,0.6C51.6,35.4,51.4,35.6,50.9,35.9L50.9,35.9z"/>
<path class="st0" d="M15.5,49h18.1V36.1H15.5V49z M18.1,38.7H31v7.7H18.1V38.7z"/>
<path class="st0" d="M29.7,51.6c-2.1,0-3.9,1.7-3.9,3.9v5.2c0,2.1,1.7,3.9,3.9,3.9s3.9-1.7,3.9-3.9v-5.2
	C33.5,53.3,31.8,51.6,29.7,51.6z M31,60.6c0,0.7-0.6,1.3-1.3,1.3s-1.3-0.6-1.3-1.3v-5.2c0-0.7,0.6-1.3,1.3-1.3s1.3,0.6,1.3,1.3V60.6
	z"/>
</svg>
