<?xml version="1.0" encoding="utf-8"?>
<!-- Generator: Adobe Illustrator 24.0.2, SVG Export Plug-In . SVG Version: 6.00 Build 0)  -->
<svg version="1.1" id="Layer_1" xmlns="http://www.w3.org/2000/svg" xmlns:xlink="http://www.w3.org/1999/xlink" x="0px" y="0px"
	 width="80px" height="80px" viewBox="0 0 80 80" style="enable-background:new 0 0 80 80;" xml:space="preserve">
<style type="text/css">
	.st0{fill:#CEA809;}
</style>
<g id="Page-1">
	<g id="_x30_20---Gas-Hob">
		<path id="Shape" class="st0" d="M24.7,26.5c0.2,0.1,0.4,0.1,0.6,0.1c0.5,0,1-0.3,1.2-0.8c2.7-5.2,6.3-9.9,10.7-13.9
			c0.5-0.5,0.5-1.3,0-1.9c-0.5-0.5-1.3-0.6-1.9-0.1c-4.6,4.2-8.4,9.2-11.3,14.7C23.8,25.4,24.1,26.1,24.7,26.5z"/>
		<path id="Shape_1_" class="st0" d="M1.3,80h77.3c0.7,0,1.3-0.6,1.3-1.3s-0.6-1.3-1.3-1.3h-1.3V64c0-1.1-0.4-2.1-1.2-2.8L70,55.1
			c-1-1-2.5-1.4-3.9-1.1c-1.4,0.4-2.5,1.5-2.8,2.8c-0.4,1.4,0,2.9,1.1,3.9l4.9,4.9v11.7h-2.7V72c0-4.4-3.6-8-8-8H48v-5.4
			c1.4-0.5,2.8-1.1,4.1-1.9c0,0,0.1-0.1,0.1-0.1c1.7-1,3.3-2.2,4.7-3.6C61.4,48.6,64,42.4,64,36C64,17.1,43.8,2.1,41.5,0.5
			c-0.9-0.7-2.2-0.7-3.1,0C36.2,2.1,16.4,16.8,16,35.4c-0.1,6.4,2.3,12.6,6.8,17.2c1.5,1.5,3.2,2.9,5,4c0,0,0,0,0.1,0
			c1.3,0.8,2.7,1.4,4.1,1.9V64H21.3c-4.4,0-8,3.6-8,8v5.3h-2.7V65.7l4.9-4.9c1-1,1.4-2.5,1.1-3.9c-0.4-1.4-1.5-2.5-2.8-2.8
			c-1.4-0.4-2.9,0-3.9,1.1l-6.1,6.1c-0.8,0.7-1.2,1.8-1.2,2.8v13.3H1.3c-0.7,0-1.3,0.6-1.3,1.3S0.6,80,1.3,80z M71.6,64.2l-5.3-5.3
			c-0.5-0.5-0.5-1.4,0-1.9s1.3-0.5,1.9,0l6.1,6.1c0.3,0.2,0.4,0.6,0.4,0.9v13.3H72V65.1C72,64.8,71.9,64.4,71.6,64.2L71.6,64.2z
			 M29.4,54.5c-1.9-2.5-2.8-5.6-2.8-8.7c0.2-9.9,8.8-18.7,13.3-22.7c4.6,4,13.3,13,13.3,23c0,3-0.9,5.9-2.7,8.3
			c-1,0.6-2.1,1.1-3.2,1.5c1.2-1.7,1.9-3.8,1.9-5.9c0-6.9-5.9-12.8-8.5-15.1c-0.5-0.4-1.3-0.4-1.8,0c-2.5,2.2-8.3,8-8.5,14.8
			c0,2.2,0.6,4.3,1.9,6.1C31.5,55.5,30.4,55,29.4,54.5L29.4,54.5z M35.3,55.1c-1.3-1.4-2-3.3-1.9-5.3c0.1-5.1,4.2-9.7,6.7-12.1
			c2.5,2.4,6.7,7.1,6.7,12.3c0.1,3.6-2.5,6.7-6.1,7.2c-0.2,0-0.5,0-0.7,0C38.1,57.3,36.4,56.5,35.3,55.1L35.3,55.1z M18.7,35.5
			C19,18.2,37.9,4.2,40,2.7C42.2,4.2,61.3,18.5,61.3,36c0,5.5-2.1,10.8-6,14.8c0.4-1.5,0.7-3.1,0.7-4.7c0-11.8-10.6-22-15.1-25.8
			c-0.5-0.4-1.2-0.4-1.7,0C34.7,24.1,24.2,34.1,24,45.7c0,1.7,0.2,3.3,0.6,4.9C20.7,46.6,18.6,41.1,18.7,35.5L18.7,35.5z M34.7,59.4
			c1.6,0.4,3.3,0.6,5,0.6H40c1.8,0,3.6-0.2,5.3-0.6V64H34.7V59.4z M16,73.3h5.3c0.7,0,1.3-0.6,1.3-1.3c0-0.7-0.6-1.3-1.3-1.3h-5.1
			c0.6-2.3,2.7-4,5.1-4h37.3c2.4,0,4.5,1.7,5.1,4H29.3c-0.7,0-1.3,0.6-1.3,1.3c0,0.7,0.6,1.3,1.3,1.3H64v4H16V73.3z M5.3,64
			c0-0.4,0.1-0.7,0.4-0.9l6.1-6.1c0.5-0.5,1.4-0.5,1.9,0c0.5,0.5,0.5,1.4,0,1.9l-5.3,5.3C8.1,64.4,8,64.8,8,65.1v12.2H5.3L5.3,64z"
			/>
		<circle id="Oval" class="st0" cx="40" cy="8" r="1.3"/>
	</g>
</g>
</svg>
