<?xml version="1.0" encoding="utf-8"?>
<!-- Generator: Adobe Illustrator 24.0.2, SVG Export Plug-In . SVG Version: 6.00 Build 0)  -->
<svg version="1.1" id="Layer_1" xmlns="http://www.w3.org/2000/svg" xmlns:xlink="http://www.w3.org/1999/xlink" x="0px" y="0px"
	 width="78.6px" height="79.6px" viewBox="0 0 78.6 79.6" style="enable-background:new 0 0 78.6 79.6;" xml:space="preserve">
<style type="text/css">
	.st0{fill:#CEA809;}
</style>
<g id="Layer_1">
	<g>
		<g>
			<g>
				<path class="st0" d="M62.4,18c-0.4,0-0.7-0.1-0.9-0.4C61.2,17.4,61,17,61,16.7s0.1-0.7,0.4-0.9c0.3-0.3,0.6-0.4,0.9-0.4
					s0.7,0.1,0.9,0.4c0.3,0.2,0.4,0.6,0.4,0.9s-0.1,0.7-0.4,0.9C63.1,17.9,62.7,18,62.4,18z"/>
			</g>
			<g>
				<path class="st0" d="M45.5,71.5c-0.7,0-1.3-0.6-1.3-1.3s0.6-1.3,1.3-1.3h20.7c0.4,0,0.8-0.3,0.9-0.7l1.2-3.9l-0.2,0
					c-1.1-0.3-2.2-0.7-3.1-1.4l-0.1-0.1l-0.1,0.1c-1.5,1-3.2,1.6-5,1.6c-1.8,0-3.5-0.6-5-1.6l-0.1-0.1l-0.1,0.1
					c-1.5,1-3.2,1.6-5,1.6c-1.8,0-3.5-0.6-5-1.6l-0.1-0.1l-0.1,0.1c-1.5,1-3.2,1.6-5,1.6s-3.5-0.6-5-1.6l-0.1-0.1l-0.1,0.1
					c-1.5,1-3.2,1.6-5,1.6c-1.8,0-3.5-0.6-5-1.6l-0.1-0.1l-0.1,0.1c-1.5,1-3.2,1.6-5,1.6c-1.8,0-3.5-0.6-5-1.6l-0.1-0.1l-0.1,0.1
					c-0.9,0.7-2,1.1-3.1,1.4l-0.2,0l1.2,3.9c0.1,0.4,0.5,0.7,0.9,0.7h20.7c0.7,0,1.3,0.6,1.3,1.3s-0.6,1.3-1.3,1.3H12.5
					c-1.6,0-3-1-3.5-2.6l-1.5-4.6l-0.1,0c-1.7-0.2-3.2-0.9-4.5-2.1c-0.2-0.1-0.3-0.2-0.4-0.3c-3.3-3.3-3.3-8.8,0-12.1
					c1.6-1.6,3.8-2.5,6.1-2.5c0.8,0,1.6,0.1,2.4,0.3l0.3,0.1l0-0.3c0-0.2,0-0.3,0-0.5c0-2.4,0.8-4.7,2.4-6.4l0.1-0.1l0-0.1
					c-0.7-2.3-1.1-4.7-1.2-7.1l0-0.2H8.1c-3.8,0-6.9-3.1-6.9-6.9c0-1.2,0.3-2.3,0.9-3.4l0.1-0.1l-0.1-0.1C0.7,21.3,0,19.5,0,17.7
					c0-3.8,3.1-6.9,6.9-6.9c2,0,3.9,0.9,5.2,2.4l0.1,0.1l0.1,0c0.8-0.3,1.6-0.4,2.4-0.4c3.8,0,6.9,3.1,6.9,6.9v4h31.7v-7.3
					c0-0.3,0-0.7,0.1-1l0-0.1l-0.1-0.1c-1.8-1.2-2.9-3.2-2.9-5.4c0-3.3,2.5-6,5.7-6.4l0.1,0l0-0.1C57.4,1.3,59.6,0,61.9,0
					s4.5,1.3,5.6,3.3l0,0.1l0.1,0c3.3,0.4,5.7,3.1,5.7,6.4c0,1.9-0.8,3.7-2.3,4.9l-0.1,0.1l0,0.1c0.1,0.5,0.1,1,0.1,1.5l1.5,4.3
					c0.1,0.4,0.1,0.9-0.2,1.2c-0.3,0.4-0.7,0.6-1.1,0.6h-3.5v9.9c0,3.3-0.6,6.4-1.7,9.4l0,0.1l0,0.1c0.8,1.5,1.3,3.2,1.3,4.9
					c0,0.2,0,0.3,0,0.5l0,0.3l0.3-0.1c0.8-0.2,1.6-0.3,2.4-0.3c2.1,0,4.1,0.8,5.7,2.1c0.2,0.1,0.3,0.2,0.4,0.3
					c1.6,1.6,2.5,3.8,2.5,6.1c0,2.3-0.9,4.4-2.5,6c-1.4,1.4-3,2.2-4.9,2.5l-0.1,0l-1.4,4.6c-0.5,1.5-1.9,2.6-3.5,2.6H45.5z
					 M64.9,59.6c0.4,0,0.7,0.1,1,0.4c1.1,1.1,2.6,1.7,4.2,1.7c1.6,0,3-0.6,4.1-1.7c1.1-1.1,1.8-2.6,1.8-4.2c0-1.4-0.5-2.8-1.4-3.8
					c-0.1-0.1-0.2-0.2-0.3-0.2C73.1,50.6,71.6,50,70,50c-1.6,0-3.1,0.6-4.2,1.7c-0.2,0.3-0.6,0.4-0.9,0.4c-0.4,0-0.7-0.1-1-0.4
					c-1.1-1.1-2.6-1.7-4.2-1.7c-1.6,0-3.1,0.6-4.2,1.7c-0.2,0.3-0.6,0.4-0.9,0.4S54,52,53.7,51.7c-1.1-1.1-2.6-1.7-4.2-1.7
					c-1.6,0-3.1,0.6-4.2,1.7c-0.3,0.3-0.6,0.4-1,0.4c-0.4,0-0.7-0.1-0.9-0.4c-1.1-1.1-2.6-1.7-4.2-1.7s-3.1,0.6-4.2,1.7
					c-0.2,0.3-0.6,0.4-0.9,0.4c-0.4,0-0.7-0.1-0.9-0.4c-1.1-1.1-2.6-1.7-4.2-1.7s-3.1,0.6-4.2,1.7c-0.3,0.3-0.6,0.4-0.9,0.4
					c-0.4,0-0.7-0.1-1-0.4c-1.1-1.1-2.6-1.7-4.2-1.7c-1.6,0-3.1,0.6-4.2,1.7c-0.2,0.3-0.6,0.4-0.9,0.4c-0.4,0-0.7-0.1-1-0.4
					c-1.1-1.1-2.6-1.7-4.2-1.7c-1.6,0-3,0.6-4.1,1.7c-2.2,2.2-2.3,5.7-0.3,8c0.1,0.1,0.2,0.2,0.3,0.2c1.1,1.1,2.6,1.7,4.2,1.7
					c1.6,0,3.1-0.6,4.2-1.7c0.3-0.3,0.6-0.4,0.9-0.4c0.4,0,0.7,0.1,0.9,0.4c1.1,1.1,2.6,1.7,4.2,1.7s3.1-0.6,4.2-1.7
					c0.3-0.3,0.6-0.4,0.9-0.4c0.4,0,0.7,0.1,0.9,0.4c1.1,1.1,2.6,1.7,4.2,1.7c1.6,0,3.1-0.6,4.2-1.7c0.3-0.3,0.6-0.4,0.9-0.4
					c0.4,0,0.7,0.1,0.9,0.4c1.1,1.1,2.6,1.7,4.2,1.7c1.6,0,3.1-0.6,4.2-1.7c0.3-0.3,0.6-0.4,0.9-0.4s0.7,0.1,1,0.4
					c1.1,1.1,2.6,1.7,4.2,1.7s3.1-0.6,4.2-1.7c0.3-0.3,0.6-0.4,1-0.4s0.7,0.1,1,0.4c1.1,1.1,2.6,1.7,4.2,1.7s3.1-0.6,4.2-1.7
					C64.2,59.7,64.5,59.6,64.9,59.6z M29.1,47.3c1.8,0,3.5,0.6,5,1.6l0.1,0.1l0.1-0.1c1-0.8,2.2-1.2,3.5-1.5l0.2,0c0,0,0-0.4,0-0.5
					c0-3.5-2.4-6.3-5.4-6.3c-1.5,0-2.9,0.7-3.9,2c-0.9,1.2-1.4,2.7-1.4,4.3c0,0.1,0,0.5,0,0.5l0.2,0C28,47.4,28.5,47.3,29.1,47.3z
					 M59.4,40.6c-3,0-5.4,2.8-5.4,6.3c0,0.6,0.1,1.1,0.2,1.7l0,0.1l0.4,0.3l0.1-0.1c1.5-1.1,3.2-1.6,5-1.6c1.6,0,3.2,0.4,4.5,1.3
					l0.2,0.2l0.1-0.3c0.1-0.5,0.2-1,0.2-1.5C64.7,43.5,62.3,40.6,59.4,40.6z M46,40.6c-3,0-5.4,2.8-5.4,6.3c0,0.1,0,0.5,0,0.5l0.2,0
					c1.3,0.2,2.4,0.7,3.5,1.5l0.1,0.1l0.1-0.1c1.5-1.1,3.2-1.6,5-1.6c0.5,0,1,0,1.6,0.1l0.2,0c0,0,0-0.5,0-0.6
					C51.3,43.5,48.9,40.6,46,40.6z M18.8,47.3c1.8,0,3.5,0.6,5,1.6l0.1,0.1l0.4-0.3l0-0.1c0.1-0.5,0.2-1.1,0.2-1.7
					c0-3.5-2.4-6.3-5.4-6.3c-1.1,0-2.2,0.4-3.1,1.2L16,41.9c-1.4,1.2-2.1,3.1-2.1,5.1c0,0.5,0.1,1,0.2,1.5l0.1,0.3l0.2-0.2
					C15.7,47.8,17.2,47.3,18.8,47.3z M42.1,31c5.5,0,10.1,4.5,10.1,10.1v0.1l0,0.1c0.1,0.2,0.2,0.3,0.3,0.5l0.2,0.3l0.2-0.3
					c1.5-2.4,4-3.8,6.5-3.8c1.6,0,3.1,0.5,4.5,1.5l0.2,0.2l0.1-0.3c0.7-2.2,1-4.6,1-6.9V21.2c0-0.7,0.6-1.3,1.3-1.3h3l-0.9-2.7
					c0-0.1-0.1-0.3-0.1-0.4v-0.3c0-3.5-2.8-6.3-6.3-6.3S56,13,56,16.4V25c0,0.7-0.6,1.3-1.3,1.3H15.1l0,0.2v5.9
					c0,2.1,0.3,4.1,0.8,6.1l0.1,0.2l0.2-0.1c1-0.5,2-0.7,3.1-0.7c2.2,0,4.3,1,5.8,2.8l0.3-0.2c-1.3-2.6-1.9-5.3-1.9-8.2
					c0-0.7,0.6-1.3,1.3-1.3H42.1z M32.6,37.9c2.6,0,5,1.4,6.5,3.8l0.2,0.3l0.2-0.3c1.5-2.4,4-3.8,6.5-3.8c0.9,0,1.8,0.2,2.7,0.5
					l0.4,0.2l-0.2-0.4c-1.2-2.8-3.8-4.5-6.8-4.5H26.2l0,0.2c0.2,1.9,0.7,3.8,1.6,5.5l0.1,0.2l0.2-0.1C29.4,38.5,31,37.9,32.6,37.9z
					 M4.4,24.2c-0.3,0.6-0.5,1.3-0.5,2c0,2.3,1.9,4.2,4.2,4.2h4.3v-3.5L4.5,24L4.4,24.2z M6.9,13.5c-2.3,0-4.2,1.9-4.2,4.2
					c0,1.4,0.7,2.8,1.9,3.5l8,3l0.1-0.1c0.1-0.1,0.3-0.2,0.4-0.3l0.2-0.1l-2.8-8.1C9.8,14.3,8.4,13.5,6.9,13.5z M14.7,15.5
					c-0.4,0-0.7,0-1.1,0.1l-0.2,0.1l2.8,8h2.7v-4C18.9,17.4,17,15.5,14.7,15.5z M56.8,6.1c-2.1,0-3.8,1.7-3.8,3.7
					c0,0.9,0.3,1.8,0.9,2.5l0.2,0.2l0.1-0.3c1.6-3,4.6-4.8,7.9-4.8c3.1,0,6,1.6,7.6,4.3l0.2,0.3l0.2-0.3c0.3-0.6,0.5-1.2,0.5-1.9
					c0-2.1-1.7-3.7-3.7-3.7c-0.1,0-0.2,0-0.2,0c-0.6,0-1.1-0.4-1.3-0.9c-0.5-1.5-1.9-2.5-3.5-2.5s-3,1-3.5,2.5
					c-0.2,0.5-0.7,0.9-1.3,0.9C57,6.1,56.9,6.1,56.8,6.1z"/>
			</g>
			<g>
				<path class="st0" d="M39.3,71.5c-0.4,0-0.7-0.1-1-0.4c-0.3-0.2-0.4-0.6-0.4-1s0.1-0.7,0.4-0.9c0.3-0.3,0.6-0.4,1-0.4
					c0.4,0,0.7,0.1,0.9,0.4c0.3,0.3,0.4,0.6,0.4,0.9s-0.1,0.7-0.4,1C40,71.4,39.7,71.5,39.3,71.5z"/>
			</g>
			<g>
				<path class="st0" d="M19.2,79.6c-0.7,0-1.3-0.6-1.3-1.3c0-0.7,0.6-1.3,1.3-1.3h40.1c0.7,0,1.3,0.6,1.3,1.3
					c0,0.7-0.6,1.3-1.3,1.3H19.2z"/>
			</g>
		</g>
	</g>
</g>
</svg>
