<?xml version="1.0" encoding="utf-8"?>
<!-- Generator: Adobe Illustrator 24.0.2, SVG Export Plug-In . SVG Version: 6.00 Build 0)  -->
<svg version="1.1" id="Capa_1" xmlns="http://www.w3.org/2000/svg" xmlns:xlink="http://www.w3.org/1999/xlink" x="0px" y="0px"
	 width="80px" height="80px" viewBox="0 0 80 80" style="enable-background:new 0 0 80 80;" xml:space="preserve">
<style type="text/css">
	.st0{fill:#CEA809;}
</style>
<path class="st0" d="M78.8,80H1.2C0.5,80,0,79.5,0,78.8v0c0-0.6,0.5-1.2,1.2-1.2h77.7c0.6,0,1.2,0.5,1.2,1.2v0
	C80,79.5,79.5,80,78.8,80z"/>
<g>
	<g>
		<path class="st0" d="M77.2,22.1h-0.8L69.3,2.8C68.7,1.1,67.1,0,65.3,0H14.7c-1.8,0-3.4,1.1-4.1,2.8L3.5,22.1H2.8
			c-1.5,0-2.8,1.2-2.8,2.8v2.2c0,1.5,1.2,2.8,2.8,2.8h0.4v25.7c0,0.6,0.5,1.2,1.2,1.2s1.2-0.5,1.2-1.2V29.8h18.4c1,0,2-0.4,2.7-1.1
			L40,15.3l13.4,13.4c0.7,0.7,1.7,1.1,2.7,1.1h18.4v3.1c0,0.6,0.5,1.2,1.2,1.2c0.6,0,1.2-0.5,1.2-1.2v-3.1h0.4
			c1.5,0,2.8-1.2,2.8-2.8v-2.2C80,23.3,78.8,22.1,77.2,22.1L77.2,22.1z M12.9,3.6c0.3-0.8,1-1.3,1.9-1.3h50.5c0.8,0,1.6,0.5,1.9,1.3
			L74,22.1H57.7l-15-15C42,6.4,41,6,40,6s-2,0.4-2.7,1.1l-15,15H6L12.9,3.6z M77.7,27.1c0,0.2-0.2,0.4-0.4,0.4H56.1
			c-0.4,0-0.8-0.2-1.1-0.4L40.8,12.8c-0.2-0.2-0.5-0.3-0.8-0.3s-0.6,0.1-0.8,0.3L25,27c-0.3,0.3-0.7,0.4-1.1,0.4H2.8
			c-0.2,0-0.4-0.2-0.4-0.4v-2.2c0-0.2,0.2-0.4,0.4-0.4h20c0.3,0,0.6-0.1,0.8-0.3L38.9,8.8c0.3-0.3,0.7-0.4,1.1-0.4s0.8,0.2,1.1,0.4
			l15.3,15.3c0.2,0.2,0.5,0.3,0.8,0.3h20c0.2,0,0.4,0.2,0.4,0.4L77.7,27.1L77.7,27.1z"/>
		<path class="st0" d="M70.5,62.3c0.6,0,1.2-0.5,1.2-1.2V40.3c0-0.6-0.5-1.2-1.2-1.2H54.7c-0.6,0-1.2,0.5-1.2,1.2v20.8
			c0,0.6,0.5,1.2,1.2,1.2H70.5z M69.3,54.9h-5.5v-5.5h5.5V54.9z M61.4,54.9h-5.5v-5.5h5.5V54.9z M69.3,60H55.9v-2.7h13.4V60z
			 M69.3,47h-5.5v-5.5h5.5V47z M61.4,41.5V47h-5.5v-5.5H61.4z"/>
		<path class="st0" d="M25.3,62.3c0.6,0,1.2-0.5,1.2-1.2V40.3c0-0.6-0.5-1.2-1.2-1.2H9.5c-0.6,0-1.2,0.5-1.2,1.2v20.8
			c0,0.6,0.5,1.2,1.2,1.2H25.3z M24.1,54.9h-5.5v-5.5h5.5V54.9z M16.3,54.9h-5.5v-5.5h5.5V54.9z M24.1,60H10.7v-2.7h13.4V60z
			 M24.1,47h-5.5v-5.5h5.5V47z M16.3,41.5V47h-5.5v-5.5H16.3z"/>
		<path class="st0" d="M43.8,44.2h-7.6c-0.6,0-1.2,0.5-1.2,1.2v5.1c0,0.6,0.5,1.2,1.2,1.2h7.6c0.6,0,1.2-0.5,1.2-1.2v-5.1
			C45,44.7,44.4,44.2,43.8,44.2z M42.6,49.2h-5.2v-2.7h5.2V49.2z"/>
		<path class="st0" d="M46.2,29.4c0-3.4-2.8-6.2-6.2-6.2c-3.4,0-6.2,2.8-6.2,6.2s2.8,6.2,6.2,6.2C43.4,35.6,46.2,32.9,46.2,29.4z
			 M36.1,29.4c0-2.1,1.7-3.9,3.9-3.9c2.1,0,3.9,1.7,3.9,3.9s-1.7,3.9-3.9,3.9C37.9,33.3,36.1,31.6,36.1,29.4L36.1,29.4z"/>
		<path class="st0" d="M78.8,64.1h-2V38.4c0-0.6-0.5-1.2-1.2-1.2c-0.6,0-1.2,0.5-1.2,1.2v25.7H50V40.3c0-0.6-0.5-1.2-1.2-1.2H31.2
			c-0.6,0-1.2,0.5-1.2,1.2v23.8H5.5V61c0-0.6-0.5-1.2-1.2-1.2S3.2,60.3,3.2,61v3.1h-2c-0.6,0-1.2,0.5-1.2,1.2v5.4
			c0,0.6,0.5,1.2,1.2,1.2h77.7c0.6,0,1.2-0.5,1.2-1.2v-5.4C80,64.6,79.5,64.1,78.8,64.1z M32.3,55.5H34c0.6,0,1.2-0.5,1.2-1.2
			s-0.5-1.2-1.2-1.2h-1.7V41.5h15.3v22.6H32.3V55.5z M77.7,69.4H2.3v-3h75.3V69.4z"/>
	</g>
</g>
</svg>
