<?xml version="1.0" encoding="utf-8"?>
<!-- Generator: Adobe Illustrator 24.0.2, SVG Export Plug-In . SVG Version: 6.00 Build 0)  -->
<svg version="1.1" id="Layer_1" xmlns="http://www.w3.org/2000/svg" xmlns:xlink="http://www.w3.org/1999/xlink" x="0px" y="0px"
	 width="78px" height="78px" viewBox="0 0 78 78" style="enable-background:new 0 0 78 78;" xml:space="preserve">
<style type="text/css">
	.st0{fill:#CEA809;}
</style>
<g>
	<path class="st0" d="M1.3,78C0.6,78,0,77.4,0,76.7V49c0-0.7,0.6-1.3,1.3-1.3c3.4,0,6.2-2.8,6.2-6.2v-5C7.5,19.1,21.6,5,39,5h8.7
		V1.3C47.7,0.6,48.3,0,49,0h10c0.7,0,1.3,0.6,1.3,1.3v1.2h16.2c0.7,0,1.3,0.6,1.3,1.3V29c0,0.7-0.6,1.3-1.3,1.3H60.4v1.2
		c0,0.7-0.6,1.3-1.3,1.3H49c-0.7,0-1.3-0.6-1.3-1.3v-3.7l-1.3,0.4c-3.6,1.2-6,4.5-6,8.3v5c0,3.4,2.8,6.2,6.2,6.2s6.2-2.8,6.2-6.2
		c0-0.7,0.6-1.3,1.3-1.3s1.3,0.6,1.3,1.3c0.2,4.2,3.3,6.2,6.2,6.2l0,0c2.9,0,6-1.9,6.2-6.1c0-1,0.7-1.4,1.3-1.4
		c0.6,0,1.3,0.4,1.3,1.4c0,3.4,2.8,6.1,6.2,6.1c0.7,0,1.3,0.6,1.3,1.3v27.6c0,0.7-0.6,1.3-1.3,1.3H1.3z M8.1,64.8
		c-1.2,1.4-2.8,2.4-4.7,2.9l-0.8,0.2v7.4h72.6v-7.4l-0.8-0.2c-1.8-0.4-3.4-1.4-4.7-2.9l-0.8-0.9l-0.8,0.9c-1.6,2-4.1,3.1-6.8,3.1
		s-5.1-1.1-6.8-3.1l-0.8-0.9l-0.8,0.9c-1.6,2-4.1,3.1-6.8,3.1s-5.1-1.1-6.8-3.1L39,63.9l-0.8,0.9c-1.6,2-4.1,3.1-6.8,3.1
		s-5.1-1.1-6.8-3.1l-0.8-0.9l-0.8,0.9c-1.6,2-4.1,3.1-6.8,3.1s-5.1-1.1-6.8-3.1l-0.8-0.9L8.1,64.8z M69.1,57.7
		c0.7,0,1.3,0.6,1.3,1.3c0,2.3,1.3,4.5,3.4,5.5l1.5,0.7v-15l-0.8-0.2c-1.8-0.4-3.5-1.5-4.7-2.9l-0.8-0.9l-0.8,0.9
		c-1.6,2-4.1,3.1-6.8,3.1s-5.1-1.1-6.8-3.1l-0.8-0.9l-0.8,0.9c-1.7,2-4.2,3.1-6.8,3.1s-5.1-1.1-6.8-3.1L39,46.3l-0.8,0.9
		c-1.6,2-4.1,3.1-6.8,3.1s-5.1-1.1-6.8-3.1l-0.8-0.9l-0.8,0.9c-1.6,2-4.1,3.1-6.8,3.1s-5.1-1.1-6.8-3.1l-0.8-0.9l-0.8,0.9
		c-1.2,1.4-2.8,2.4-4.7,2.9l-0.8,0.2v15l1.5-0.7c2.1-1.1,3.4-3.2,3.4-5.5c0-0.7,0.6-1.3,1.3-1.3s1.3,0.6,1.3,1.3
		c0,3.4,2.8,6.2,6.2,6.2s6.2-2.8,6.2-6.2c0-0.7,0.6-1.3,1.3-1.3s1.3,0.6,1.3,1.3c0,3.4,2.8,6.2,6.2,6.2s6.2-2.8,6.2-6.2
		c0-0.7,0.6-1.3,1.3-1.3s1.3,0.6,1.3,1.3c0,3.4,2.8,6.2,6.2,6.2s6.2-2.8,6.2-6.2c0-0.7,0.6-1.3,1.3-1.3s1.3,0.6,1.3,1.3
		c0,3.4,2.8,6.2,6.2,6.2s6.2-2.8,6.2-6.2C67.8,58.3,68.4,57.7,69.1,57.7z M44,17.8c-10.3,0-18.7,8.4-18.7,18.7v5
		c0.2,4.2,3.3,6.2,6.2,6.2c2.9,0,6-1.9,6.2-6.1l0-5.1c0-5.5,3.9-10.2,9.2-11.2l0.8-0.2v-7.4H44z M39,7.7
		c-15.9,0-28.8,12.9-28.8,28.8v5c0.2,4.2,3.3,6.2,6.2,6.2c2.9,0,6-1.9,6.2-6.1l0-5.1c0-11.8,9.6-21.4,21.4-21.4h3.7V7.7H39z
		 M50.4,30.1h7.4V2.7h-7.4V30.1z M60.4,27.6h14.9V5.2H60.4V27.6z"/>
</g>
</svg>
